<svg width="118" height="24" viewBox="0 0 118 24" fill="none" xmlns="http://www.w3.org/2000/svg">
<path d="M17.8239 14.0527C17.5697 14.299 17.4529 14.6553 17.5108 15.0046L18.3832 19.8328C18.4568 20.242 18.2841 20.6561 17.9416 20.8926C17.606 21.138 17.1595 21.1674 16.7935 20.9711L12.4471 18.7042C12.296 18.6238 12.1282 18.5806 11.9565 18.5757H11.6905C11.5983 18.5894 11.508 18.6189 11.4256 18.664L7.07827 20.9417C6.86336 21.0496 6.61999 21.0879 6.38153 21.0496C5.80058 20.9397 5.41295 20.3863 5.50814 19.8024L6.38153 14.9742C6.43942 14.6219 6.32265 14.2637 6.06848 14.0135L2.52489 10.5788C2.22852 10.2913 2.12548 9.85949 2.26091 9.4699C2.39241 9.08129 2.72802 8.79769 3.13331 8.7339L8.01054 8.02636C8.38148 7.98809 8.70728 7.76238 8.87411 7.42873L11.0232 3.02254C11.0743 2.92441 11.14 2.83413 11.2195 2.75758L11.3078 2.68889C11.3539 2.63786 11.4069 2.59566 11.4658 2.56132L11.5728 2.52206L11.7396 2.45337H12.1527C12.5217 2.49164 12.8465 2.71244 13.0163 3.04217L15.1939 7.42873C15.3509 7.74963 15.6561 7.97239 16.0084 8.02636L20.8856 8.7339C21.2978 8.79278 21.6422 9.07737 21.7786 9.4699C21.9072 9.86342 21.7963 10.2952 21.4941 10.5788L17.8239 14.0527Z" fill="#C199D7"/>
<path d="M41.3759 14.0527C41.1217 14.299 41.0049 14.6553 41.0628 15.0046L41.9352 19.8328C42.0088 20.242 41.8361 20.6561 41.4936 20.8926C41.158 21.138 40.7115 21.1674 40.3455 20.9711L35.9991 18.7042C35.848 18.6238 35.6802 18.5806 35.5085 18.5757H35.2425C35.1503 18.5894 35.06 18.6189 34.9776 18.664L30.6303 20.9417C30.4154 21.0496 30.172 21.0879 29.9335 21.0496C29.3526 20.9397 28.965 20.3863 29.0601 19.8024L29.9335 14.9742C29.9914 14.6219 29.8746 14.2637 29.6205 14.0135L26.0769 10.5788C25.7805 10.2913 25.6775 9.85949 25.8129 9.4699C25.9444 9.08129 26.28 8.79769 26.6853 8.7339L31.5625 8.02636C31.9335 7.98809 32.2593 7.76238 32.4261 7.42873L34.5752 3.02254C34.6263 2.92441 34.692 2.83413 34.7715 2.75758L34.8598 2.68889C34.9059 2.63786 34.9589 2.59566 35.0178 2.56132L35.1248 2.52206L35.2916 2.45337H35.7047C36.0737 2.49164 36.3986 2.71244 36.5683 3.04217L38.7459 7.42873C38.9029 7.74963 39.2081 7.97239 39.5604 8.02636L44.4376 8.7339C44.8498 8.79278 45.1942 9.07737 45.3306 9.4699C45.4592 9.86342 45.3483 10.2952 45.0461 10.5788L41.3759 14.0527Z" fill="#C199D7"/>
<path d="M64.9279 14.0527C64.6737 14.299 64.5569 14.6553 64.6148 15.0046L65.4872 19.8328C65.5608 20.242 65.3881 20.6561 65.0456 20.8926C64.71 21.138 64.2635 21.1674 63.8975 20.9711L59.5512 18.7042C59.4 18.6238 59.2322 18.5806 59.0605 18.5757H58.7945C58.7023 18.5894 58.612 18.6189 58.5296 18.664L54.1823 20.9417C53.9674 21.0496 53.724 21.0879 53.4855 21.0496C52.9046 20.9397 52.517 20.3863 52.6121 19.8024L53.4855 14.9742C53.5434 14.6219 53.4266 14.2637 53.1725 14.0135L49.6289 10.5788C49.3325 10.2913 49.2295 9.85949 49.3649 9.4699C49.4964 9.08129 49.832 8.79769 50.2373 8.7339L55.1145 8.02636C55.4855 7.98809 55.8113 7.76238 55.9781 7.42873L58.1272 3.02254C58.1783 2.92441 58.244 2.83413 58.3235 2.75758L58.4118 2.68889C58.4579 2.63786 58.5109 2.59566 58.5698 2.56132L58.6768 2.52206L58.8436 2.45337H59.2568C59.6257 2.49164 59.9506 2.71244 60.1203 3.04217L62.2979 7.42873C62.4549 7.74963 62.7601 7.97239 63.1124 8.02636L67.9896 8.7339C68.4018 8.79278 68.7462 9.07737 68.8826 9.4699C69.0112 9.86342 68.9003 10.2952 68.5981 10.5788L64.9279 14.0527Z" fill="#C199D7"/>
<path d="M88.4799 14.0527C88.2257 14.299 88.1089 14.6553 88.1668 15.0046L89.0392 19.8328C89.1128 20.242 88.9401 20.6561 88.5976 20.8926C88.262 21.138 87.8155 21.1674 87.4495 20.9711L83.1032 18.7042C82.952 18.6238 82.7842 18.5806 82.6125 18.5757H82.3465C82.2543 18.5894 82.164 18.6189 82.0816 18.664L77.7343 20.9417C77.5194 21.0496 77.276 21.0879 77.0375 21.0496C76.4566 20.9397 76.069 20.3863 76.1641 19.8024L77.0375 14.9742C77.0954 14.6219 76.9787 14.2637 76.7245 14.0135L73.1809 10.5788C72.8845 10.2913 72.7815 9.85949 72.9169 9.4699C73.0484 9.08129 73.384 8.79769 73.7893 8.7339L78.6665 8.02636C79.0375 7.98809 79.3633 7.76238 79.5301 7.42873L81.6792 3.02254C81.7303 2.92441 81.796 2.83413 81.8755 2.75758L81.9638 2.68889C82.0099 2.63786 82.0629 2.59566 82.1218 2.56132L82.2288 2.52206L82.3956 2.45337H82.8088C83.1777 2.49164 83.5026 2.71244 83.6723 3.04217L85.8499 7.42873C86.0069 7.74963 86.3121 7.97239 86.6644 8.02636L91.5416 8.7339C91.9538 8.79278 92.2982 9.07737 92.4347 9.4699C92.5632 9.86342 92.4523 10.2952 92.1501 10.5788L88.4799 14.0527Z" fill="#C199D7"/>
<path d="M112.032 14.0527C111.778 14.299 111.661 14.6553 111.719 15.0046L112.591 19.8328C112.665 20.242 112.492 20.6561 112.15 20.8926C111.814 21.138 111.368 21.1674 111.001 20.9711L106.655 18.7042C106.504 18.6238 106.336 18.5806 106.164 18.5757H105.899C105.806 18.5894 105.716 18.6189 105.634 18.664L101.286 20.9417C101.071 21.0496 100.828 21.0879 100.59 21.0496C100.009 20.9397 99.621 20.3863 99.7161 19.8024L100.59 14.9742C100.647 14.6219 100.531 14.2637 100.276 14.0135L96.7329 10.5788C96.4365 10.2913 96.3335 9.85949 96.4689 9.4699C96.6004 9.08129 96.936 8.79769 97.3413 8.7339L102.219 8.02636C102.589 7.98809 102.915 7.76238 103.082 7.42873L105.231 3.02254C105.282 2.92441 105.348 2.83413 105.428 2.75758L105.516 2.68889C105.562 2.63786 105.615 2.59566 105.674 2.56132L105.781 2.52206L105.948 2.45337H106.361C106.73 2.49164 107.055 2.71244 107.224 3.04217L109.402 7.42873C109.559 7.74963 109.864 7.97239 110.216 8.02636L115.094 8.7339C115.506 8.79278 115.85 9.07737 115.987 9.4699C116.115 9.86342 116.004 10.2952 115.702 10.5788L112.032 14.0527Z" fill="#C199D7"/>
</svg>