<svg width="796" height="160" viewBox="0 0 796 160" fill="none" xmlns="http://www.w3.org/2000/svg">
<path opacity="0.8" d="M141.214 34.1091L140.999 32.5376L141.214 34.1091ZM794.482 101.606C794.701 100.758 794.19 99.8928 793.342 99.6742L779.518 96.1117C778.67 95.8931 777.805 96.4035 777.587 97.2518C777.368 98.1001 777.878 98.965 778.727 99.1836L791.014 102.35L787.848 114.638C787.629 115.486 788.14 116.351 788.988 116.57C789.836 116.788 790.701 116.278 790.92 115.43L794.482 101.606ZM199.895 91.0865L199.69 89.5137L199.895 91.0865ZM167.464 40.436L167.093 41.978L167.104 41.9807L167.115 41.9833L167.464 40.436ZM8.41969 2.10201L7.55169 0.774488C6.24885 1.62638 5.15012 2.68536 4.82282 4.04597L6.36499 4.41692L7.90711 4.78786C7.94491 4.63075 8.18729 4.1491 9.28775 3.42953L8.41969 2.10201ZM16.2458 10.8921L15.7699 12.4051C17.6184 12.9866 19.6852 13.5651 21.9462 14.1431L22.339 12.6064L22.7319 11.0697C20.5112 10.502 18.5019 9.93896 16.7217 9.37902L16.2458 10.8921ZM34.5836 15.3831L34.2637 16.9367C36.2536 17.3465 38.3253 17.7587 40.4715 18.1738L40.7727 16.6165L41.0739 15.0593C38.9383 14.6462 36.8792 14.2365 34.9036 13.8296L34.5836 15.3831ZM53.1447 18.9084L52.8654 20.4697C54.8895 20.8317 56.9578 21.1967 59.0662 21.5652L59.3392 20.0027L59.6123 18.4403C57.5073 18.0724 55.4431 17.7081 53.4239 17.347L53.1447 18.9084ZM71.7324 22.1383L71.4656 23.7019C73.5051 24.0499 75.5712 24.4014 77.6602 24.7567L77.9262 23.193L78.1921 21.6293C76.1031 21.274 74.0378 20.9226 71.9991 20.5748L71.7324 22.1383ZM90.322 25.3056L90.0543 26.869C92.1062 27.2204 94.1732 27.5758 96.2526 27.9353L96.5228 26.3724L96.7931 24.8094C94.7116 24.4495 92.643 24.0939 90.5898 23.7422L90.322 25.3056ZM108.922 28.5452L108.644 30.1068C110.7 30.4727 112.763 30.8431 114.83 31.2181L115.113 29.6574L115.396 28.0968C113.325 27.7211 111.259 27.3501 109.2 26.9836L108.922 28.5452ZM127.48 31.953L127.184 33.5112C129.242 33.9027 131.3 34.2992 133.354 34.701L133.658 33.1443L133.963 31.5877C131.903 31.1848 129.84 30.7873 127.777 30.3948L127.48 31.953ZM145.986 35.6328L145.662 37.1855C147.719 37.6146 149.767 38.0496 151.805 38.4907L152.14 36.9405L152.476 35.3902C150.431 34.9474 148.375 34.5108 146.31 34.0801L145.986 35.6328ZM164.42 39.7107L164.057 41.2546C165.073 41.494 166.085 41.7351 167.093 41.978L167.464 40.436L167.836 38.894C166.823 38.6498 165.805 38.4075 164.784 38.1668L164.42 39.7107ZM167.464 40.436C167.115 41.9833 167.115 41.9833 167.115 41.9833C167.115 41.9833 167.115 41.9833 167.116 41.9833C167.116 41.9833 167.116 41.9833 167.116 41.9834C167.117 41.9835 167.117 41.9837 167.118 41.9839C167.12 41.9844 167.124 41.9851 167.128 41.9861C167.136 41.988 167.149 41.9909 167.167 41.9949C167.202 42.0028 167.254 42.0147 167.323 42.0305C167.461 42.0622 167.668 42.1095 167.937 42.1721C168.476 42.2972 169.269 42.4831 170.281 42.7252L170.65 41.1827L171.019 39.6402C170 39.3962 169.2 39.2086 168.654 39.082C168.381 39.0186 168.172 38.9705 168.03 38.9381C167.96 38.9219 167.906 38.9097 167.869 38.9014C167.851 38.8973 167.837 38.8942 167.828 38.892C167.823 38.891 167.82 38.8902 167.817 38.8896C167.816 38.8894 167.815 38.8892 167.815 38.889C167.814 38.8889 167.814 38.8889 167.814 38.8888C167.814 38.8888 167.814 38.8888 167.814 38.8888C167.814 38.8888 167.814 38.8888 167.814 38.8888C167.814 38.8888 167.813 38.8887 167.464 40.436ZM183.6 44.4661L183.191 45.9986C185.224 46.5411 187.386 47.1308 189.639 47.7628L190.068 46.2357L190.496 44.7085C188.229 44.0725 186.054 43.4792 184.009 42.9336L183.6 44.4661ZM202.861 50.0227L202.387 51.5364C204.49 52.1947 206.608 52.8776 208.716 53.582L209.219 52.0776L209.721 50.5731C207.592 49.8618 205.455 49.1727 203.335 48.509L202.861 50.0227ZM221.787 56.622L221.204 58.0973C223.317 58.9316 225.36 59.7823 227.304 60.6457L227.948 59.1961L228.591 57.7465C226.601 56.8626 224.517 55.9948 222.37 55.1468L221.787 56.622ZM239.72 65.4709L238.829 66.7836C240.883 68.1768 242.464 69.5318 243.524 70.8231L244.75 69.8166L245.976 68.81C244.65 67.1958 242.8 65.6441 240.61 64.1582L239.72 65.4709ZM241.797 80.6688L240.968 79.3162C239.516 80.2057 237.647 81.1017 235.304 81.9906L235.866 83.4737L236.429 84.9567C238.9 84.0192 240.959 83.0419 242.625 82.0213L241.797 80.6688ZM223.073 87.1482L222.725 85.6007C220.717 86.0523 218.559 86.4957 216.244 86.93L216.536 88.4889L216.828 90.0479C219.177 89.6074 221.372 89.1564 223.421 88.6956L223.073 87.1482ZM203.365 90.6171L203.146 89.0463C202.02 89.2038 200.868 89.3596 199.69 89.5137L199.895 91.0865L200.101 92.6592C201.288 92.5039 202.449 92.3468 203.585 92.188L203.365 90.6171ZM199.895 91.0865L199.69 89.5137C198.675 89.6464 197.634 89.7717 196.569 89.8897L196.743 91.4662L196.918 93.0427C198.003 92.9226 199.064 92.7948 200.101 92.6592L199.895 91.0865ZM183.613 92.499L183.531 90.915C181.435 91.0232 179.284 91.111 177.083 91.1788L177.132 92.7641L177.181 94.3495C179.402 94.2811 181.575 94.1925 183.695 94.083L183.613 92.499ZM164.014 92.9374L164.019 91.3513C161.879 91.3451 159.711 91.3231 157.519 91.2858L157.492 92.8717L157.465 94.4576C159.671 94.4952 161.854 94.5173 164.009 94.5236L164.014 92.9374ZM144.386 92.4788L144.454 90.894C142.298 90.8026 140.13 90.6979 137.955 90.5802L137.869 92.164L137.783 93.7478C139.971 93.8662 142.151 93.9715 144.319 94.0635L144.386 92.4788ZM124.803 91.3078L124.925 89.7264C122.751 89.5593 120.58 89.3801 118.414 89.189L118.275 90.769L118.135 92.349C120.313 92.5411 122.496 92.7213 124.681 92.8893L124.803 91.3078ZM105.25 89.4673L105.427 87.891C103.247 87.647 101.082 87.3911 98.9385 87.1237L98.7421 88.6977L98.5459 90.2716C100.703 90.5407 102.881 90.7981 105.074 91.0436L105.25 89.4673ZM85.7741 86.8991L86.0149 85.3313C83.8314 84.9959 81.683 84.6482 79.5756 84.2887L79.3088 85.8522L79.042 87.4157C81.1675 87.7784 83.3333 88.1289 85.5333 88.4668L85.7741 86.8991ZM66.4619 83.3995L66.7936 81.8484C64.5974 81.3788 62.4728 80.8948 60.4285 80.3972L60.0533 81.9383L59.6782 83.4795C61.7538 83.9847 63.9076 84.4752 66.1302 84.9505L66.4619 83.3995ZM47.4737 78.3529L47.9824 76.8506C45.7866 76.107 43.7784 75.3446 41.9766 74.5658L41.3473 76.0218L40.718 77.4777C42.6133 78.2969 44.7038 79.0896 46.965 79.8553L47.4737 78.3529ZM30.8614 68.5703L32.2504 67.8043C31.8476 67.074 31.7043 66.4012 31.7601 65.7557C31.8166 65.102 32.0884 64.3539 32.7126 63.5014L31.4328 62.5643L30.1532 61.6273C29.2627 62.8432 28.7163 64.1328 28.5996 65.4824C28.4823 66.84 28.8106 68.136 29.4725 69.3363L30.8614 68.5703ZM42.2329 55.3244L42.8762 56.7743C44.6489 55.9878 46.6455 55.1914 48.8783 54.3864L48.3404 52.8943L47.8025 51.4022C45.5106 52.2284 43.4424 53.0526 41.5897 53.8745L42.2329 55.3244ZM60.7096 49.0235L61.1317 50.5524C63.1096 50.0063 65.1962 49.458 67.3945 48.9077L67.0093 47.369L66.6241 45.8304C64.4031 46.3864 62.2918 46.9412 60.2875 47.4946L60.7096 49.0235ZM79.7167 44.4353L80.0487 45.9863C82.1351 45.5398 84.2966 45.0924 86.5347 44.6441L86.2233 43.0889L85.9118 41.5336C83.6607 41.9845 81.4856 42.4347 79.3848 42.8843L79.7167 44.4353ZM99.118 40.651L99.3973 42.2123C101.438 41.8472 103.531 41.4817 105.676 41.1159L105.41 39.5523L105.143 37.9887C102.989 38.3559 100.888 38.7229 98.8386 39.0896L99.118 40.651ZM118.499 37.42L118.744 38.9873C120.793 38.6678 122.884 38.3482 125.016 38.0286L124.781 36.46L124.546 34.8914C122.408 35.2119 120.311 35.5324 118.255 35.8528L118.499 37.42ZM137.805 34.5793L138.024 36.1503C139.149 35.9937 140.284 35.8372 141.429 35.6806L141.214 34.1091L140.999 32.5376C139.851 32.6945 138.714 32.8514 137.587 33.0083L137.805 34.5793ZM141.214 34.1091L141.429 35.6806C142.526 35.5306 143.62 35.3826 144.711 35.2367L144.501 33.6645L144.29 32.0924C143.196 32.2388 142.099 32.3872 140.999 32.5376L141.214 34.1091ZM157.461 32.0062L157.653 33.5807C159.785 33.3205 161.905 33.0682 164.013 32.8237L163.83 31.2481L163.648 29.6725C161.533 29.9178 159.407 30.1709 157.269 30.4318L157.461 32.0062ZM176.351 29.8713L176.515 31.4489C178.575 31.2351 180.622 31.0289 182.658 30.8302L182.504 29.2515L182.35 27.6729C180.307 27.8723 178.253 28.0792 176.187 28.2936L176.351 29.8713ZM195.552 28.066L195.685 29.6465C197.836 29.4658 199.974 29.2937 202.098 29.1301L201.976 27.5486L201.855 25.9672C199.723 26.1314 197.578 26.3041 195.419 26.4854L195.552 28.066ZM214.582 26.6662L214.682 28.2492C216.752 28.119 218.809 27.9971 220.853 27.8834L220.765 26.2997L220.677 24.716C218.625 24.8302 216.561 24.9525 214.483 25.0831L214.582 26.6662ZM233.811 25.6759L233.874 27.2608C236.029 27.1749 238.168 27.0984 240.293 27.031L240.242 25.4457L240.192 23.8603C238.059 23.928 235.911 24.0048 233.748 24.091L233.811 25.6759ZM252.836 25.1493L252.86 26.7352C254.962 26.7033 257.048 26.6805 259.12 26.6668L259.109 25.0807L259.099 23.4946C257.018 23.5084 254.923 23.5312 252.812 23.5633L252.836 25.1493ZM272.166 25.1144L272.147 26.7005C274.285 26.726 276.406 26.7615 278.51 26.8067L278.544 25.2209L278.578 23.6351C276.464 23.5898 274.333 23.5541 272.185 23.5284L272.166 25.1144ZM291.023 25.6083L290.959 27.1931C293.166 27.2832 295.354 27.3842 297.524 27.4959L297.606 25.9118L297.687 24.3278C295.506 24.2155 293.306 24.114 291.088 24.0235L291.023 25.6083ZM310.438 26.7106L310.323 28.2925C312.419 28.4461 314.498 28.6098 316.559 28.7836L316.692 27.2031L316.825 25.6226C314.753 25.4478 312.662 25.2831 310.554 25.1287L310.438 26.7106ZM329.483 28.432L329.313 30.0089C331.46 30.2409 333.587 30.4841 335.694 30.7381L335.884 29.1633L336.074 27.5886C333.953 27.3331 331.813 27.0884 329.653 26.855L329.483 28.432ZM348.332 30.8199L348.103 32.3894C350.262 32.7044 352.399 33.0309 354.515 33.3687L354.765 31.8024L355.015 30.2361C352.885 29.8961 350.734 29.5674 348.561 29.2504L348.332 30.8199ZM367.412 33.9986L367.119 35.5574C369.177 35.9443 371.215 36.342 373.231 36.7502L373.546 35.1956L373.861 33.6409C371.829 33.2299 369.778 32.8293 367.705 32.4398L367.412 33.9986ZM386.185 37.9482L385.825 39.4928C387.899 39.9772 389.951 40.4727 391.98 40.9791L392.364 39.4401L392.748 37.9011C390.703 37.3909 388.636 36.8916 386.546 36.4036L386.185 37.9482ZM404.689 42.7176L404.257 44.2439C406.334 44.831 408.386 45.4293 410.414 46.0383L410.871 44.5191L411.327 43C409.282 42.3861 407.213 41.783 405.12 41.1913L404.689 42.7176ZM422.931 48.3518L422.427 49.8555C424.49 50.548 426.527 51.2514 428.541 51.965L429.071 50.47L429.601 48.975C427.571 48.2555 425.516 47.5463 423.436 46.8481L422.931 48.3518ZM440.911 54.8875L440.333 56.3642C442.362 57.1597 444.366 57.9651 446.345 58.7797L446.948 57.313L447.552 55.8463C445.557 55.0249 443.537 54.2128 441.49 53.4107L440.911 54.8875ZM458.61 62.3396L457.959 63.7857C459.931 64.6742 461.877 65.571 463.8 66.4754L464.475 65.0401L465.15 63.6049C463.212 62.6933 461.25 61.7892 459.262 60.8935L458.61 62.3396ZM475.897 70.6345L475.178 72.048C477.103 73.0285 479.005 74.0153 480.883 75.0073L481.624 73.6049L482.365 72.2024C480.473 71.2031 478.557 70.2089 476.617 69.221L475.897 70.6345ZM492.772 79.6962L491.992 81.0777C493.882 82.1438 495.748 83.2136 497.593 84.2856L498.39 82.9143L499.187 81.543C497.331 80.4644 495.453 79.3879 493.551 78.3148L492.772 79.6962ZM509.317 89.4328L508.49 90.7863C510.337 91.9143 512.162 93.0421 513.968 94.1685L514.807 92.8226L515.647 91.4767C513.833 90.3457 511.999 89.2128 510.144 88.0793L509.317 89.4328ZM525.583 99.6517L524.726 100.986C526.534 102.148 528.326 103.305 530.101 104.455L530.964 103.124L531.826 101.793C530.048 100.641 528.253 99.4816 526.44 98.3171L525.583 99.6517ZM541.683 110.092L540.819 111.422C542.608 112.584 544.385 113.736 546.15 114.876L547.011 113.544L547.871 112.211C546.109 111.074 544.335 109.923 542.548 108.762L541.683 110.092ZM557.813 120.42L556.972 121.765C558.794 122.903 560.608 124.023 562.418 125.124L563.242 123.768L564.066 122.413C562.269 121.32 560.465 120.206 558.653 119.074L557.813 120.42ZM574.256 130.22L573.48 131.604C575.368 132.662 577.257 133.694 579.149 134.698L579.892 133.296L580.635 131.895C578.767 130.904 576.9 129.884 575.032 128.837L574.256 130.22ZM591.337 138.957L590.678 140.4C592.632 141.292 594.596 142.149 596.573 142.968L597.18 141.503L597.787 140.038C595.847 139.234 593.918 138.392 591.996 137.514L591.337 138.957ZM609.172 145.92L608.687 147.43C610.727 148.085 612.785 148.696 614.863 149.261L615.279 147.73L615.695 146.2C613.664 145.648 611.652 145.05 609.657 144.41L609.172 145.92ZM627.739 150.482L627.472 152.046C629.582 152.405 631.716 152.716 633.877 152.975L634.066 151.4L634.255 149.825C632.146 149.572 630.063 149.269 628.005 148.919L627.739 150.482ZM646.771 152.299L646.735 153.885C648.887 153.933 651.067 153.932 653.278 153.879L653.24 152.294L653.202 150.708C651.04 150.76 648.909 150.761 646.807 150.713L646.771 152.299ZM665.953 151.437L666.126 153.013C668.209 152.785 670.32 152.513 672.46 152.195L672.227 150.626L671.994 149.057C669.893 149.369 667.822 149.636 665.78 149.86L665.953 151.437ZM684.934 148.267L685.277 149.815C687.274 149.373 689.297 148.893 691.346 148.375L690.957 146.837L690.568 145.3C688.549 145.81 686.557 146.283 684.591 146.718L684.934 148.267ZM703.449 143.292L703.924 144.806C705.866 144.197 707.831 143.556 709.82 142.881L709.31 141.379L708.801 139.877C706.835 140.544 704.893 141.177 702.975 141.778L703.449 143.292ZM721.475 136.946L722.049 138.424C723.976 137.676 725.924 136.897 727.895 136.088L727.293 134.621L726.691 133.154C724.738 133.955 722.808 134.726 720.9 135.467L721.475 136.946ZM739.007 129.574L739.659 131.02C741.641 130.127 743.645 129.204 745.672 128.252L744.998 126.817L744.324 125.381C742.312 126.326 740.322 127.241 738.356 128.128L739.007 129.574ZM756.21 121.364L756.922 122.782C758.835 121.82 760.767 120.834 762.719 119.823L761.989 118.414L761.26 117.006C759.319 118.012 757.398 118.992 755.497 119.947L756.21 121.364ZM773.262 112.411L774.022 113.802C775.842 112.808 777.679 111.792 779.532 110.755L778.757 109.371L777.983 107.987C776.138 109.019 774.311 110.029 772.501 111.019L773.262 112.411ZM790.056 102.907L790.856 104.277C791.817 103.715 792.782 103.148 793.752 102.576L792.946 101.21L792.14 99.8442C791.174 100.414 790.213 100.979 789.256 101.538L790.056 102.907Z" fill="#3E3737"/>
</svg>