<svg width="428" height="428" viewBox="0 0 428 428" fill="none" xmlns="http://www.w3.org/2000/svg">
<rect width="430" height="428" fill="#F2FC2B"/>
<path d="M86.3846 204.285L97.6472 193.022V192.983L129.557 193.022L118.294 204.285V204.246H97.6472V208.076H120.172V223.056L108.91 234.319H77L88.2626 223.056H108.91V219.339L86.3846 219.3V204.285Z" fill="#234DF0"/>
<path d="M146.451 234.316H114.541L125.804 223.054H157.713L146.451 234.316ZM155.835 204.285H123.926L135.188 193.022H167.098L155.835 204.285ZM157.713 219.336L123.926 219.298V208.035H157.713V219.334V219.336Z" fill="#234DF0"/>
<path d="M202.8 238.07H202.838L191.576 249.332L191.537 249.258V249.332H172.766L184.028 238.07H191.537V234.278H172.766L161.503 223.015V204.244L172.766 192.981H191.537L202.761 204.205H202.8V238.067V238.07ZM191.761 223.054L191.537 222.979V204.246H172.766V223.018H191.537V223.056H191.761V223.054Z" fill="#234DF0"/>
<path d="M236.585 193.022L247.848 181.759V223.054L236.585 234.316L217.813 210.928V234.316H209.942C205.228 234.316 202.867 228.616 206.199 225.281L206.551 224.929V204.282L217.813 193.019L236.585 216.369V193.019V193.022ZM209.929 234.316H204.639V224.133H209.929V234.316Z" fill="#234DF0"/>
<path d="M251.601 187.557L262.583 179V190.263L251.601 200.166M251.601 204.284L262.863 193.022V223.054L251.601 234.316V204.284Z" fill="#234DF0"/>
<path d="M307.95 238.07H307.988L296.726 249.332L296.687 249.258V249.332H277.915L289.178 238.07H296.687V234.278H277.915L266.653 223.015V204.244L277.915 192.981H296.687L307.911 204.205H307.95V238.067V238.07ZM296.913 223.054L296.69 222.979V204.246H277.918V223.018H296.69V223.056H296.913V223.054Z" fill="#234DF0"/>
<path d="M311.703 223.054V204.285L322.966 193.022V192.983H341.738V193.058L352.962 204.282H353V223.051L341.738 234.314H322.966L311.703 223.051V223.054ZM322.966 223.054H341.738V204.246H322.966V223.054Z" fill="#234DF0"/>
</svg>