<svg width="158" height="51" viewBox="0 0 158 51" fill="none" xmlns="http://www.w3.org/2000/svg">
<g clip-path="url(#clip0_3158_15697)">
<path d="M63.0466 10.1017V36.7251H57.707V10.1017H63.0466Z" fill="#070707"/>
<path d="M85.1701 17.6735C86.7194 19.2622 87.4985 21.4812 87.4985 24.3305V36.7252H82.1589V25.0526C82.1589 23.3763 81.7388 22.0852 80.8984 21.1792C80.0581 20.2776 78.9158 19.8268 77.4671 19.8268C76.0184 19.8268 74.828 20.2776 73.9789 21.1792C73.1254 22.0808 72.7009 23.372 72.7009 25.0526V36.7252H67.3613V15.5946H72.7009V18.225C73.4143 17.3102 74.3203 16.5925 75.4276 16.0716C76.5349 15.5508 77.7472 15.2882 79.069 15.2882C81.5856 15.2882 83.6207 16.0848 85.1701 17.6735Z" fill="#070707"/>
<path d="M97.833 19.9798V30.1994C97.833 30.9128 98.0037 31.4249 98.3495 31.7444C98.6909 32.0639 99.2686 32.2214 100.087 32.2214H102.564V36.7207H99.2073C94.7081 36.7207 92.4541 34.5323 92.4541 30.16V19.9755H89.9375V15.59H92.4541V10.3643H97.833V15.59H102.564V19.9755H97.833V19.9798Z" fill="#070707"/>
<path d="M134.755 15.5945L128.575 36.7251H122.815L118.964 21.9626L115.112 36.7251H109.313L103.094 15.5945H108.512L112.25 31.6919L116.294 15.5945H121.94L125.905 31.6526L129.643 15.5945H134.755Z" fill="#070707"/>
<path d="M137.061 12.1808C136.44 11.5856 136.129 10.8415 136.129 9.94867C136.129 9.05582 136.44 8.31616 137.061 7.71656C137.683 7.12133 138.466 6.81934 139.407 6.81934C140.348 6.81934 141.131 7.11695 141.753 7.71656C142.374 8.31616 142.69 9.05582 142.69 9.94867C142.69 10.8415 142.379 11.5812 141.753 12.1808C141.131 12.7804 140.348 13.078 139.407 13.078C138.466 13.078 137.683 12.7804 137.061 12.1808ZM142.037 15.5946V36.7253H136.698V15.5946H142.037Z" fill="#070707"/>
<path d="M152.564 19.9799V30.1995C152.564 30.9129 152.734 31.425 153.08 31.7444C153.421 32.0639 153.999 32.2215 154.818 32.2215H157.295V36.7207H153.938C149.439 36.7207 147.185 34.5324 147.185 30.1601V19.9755H144.668V15.5901H147.185V10.3643H152.564V15.5901H157.295V19.9755H152.564V19.9799Z" fill="#070707"/>
<path d="M50.1087 25.1222C50.1087 38.9963 38.8606 50.2444 24.9865 50.2444C11.9965 50.2444 1.30425 40.3793 0 27.7307V0H24.9865C38.8606 0 50.1087 11.2481 50.1087 25.1222Z" fill="#D7AD5E"/>
<path d="M13.2232 34.5098H8.67578V16.5566H13.2232V34.5098Z" fill="white"/>
<path d="M33.1641 29.9934V16.557L37.6764 13.7646V19.3581H41.633V23.2839H37.6764V29.1969C37.6764 30.1335 38.3373 30.5843 39.379 30.5843H41.6373V34.5102H38.0966C34.8316 34.5102 33.1641 32.5669 33.1641 29.9978V29.9934Z" fill="white"/>
<path d="M31.6017 23.5243V34.5054H27.0543V23.9882C27.0543 21.743 25.6757 20.3205 23.7018 20.1499C23.5705 20.1411 23.4392 20.1367 23.2991 20.1367C23.1591 20.1367 23.0234 20.1411 22.8921 20.1499C20.9182 20.3205 19.5396 21.743 19.5396 23.9882V34.5054H14.9922V23.5243C15.3161 20.6838 17.0799 18.2766 19.5396 17.0512C20.5593 16.5391 21.706 16.2327 22.9184 16.1933C23.0234 16.1889 23.1328 16.1846 23.2379 16.1846H23.3429C23.448 16.1846 23.5574 16.1889 23.6624 16.1933C24.8791 16.2327 26.0214 16.5391 27.0412 17.0512C29.4965 18.2766 31.2603 20.6794 31.5886 23.5243H31.6017Z" fill="white"/>
</g>
<defs>
<clipPath id="clip0_3158_15697">
<rect width="157.294" height="50.2444" fill="white"/>
</clipPath>
</defs>
</svg>