<svg width="1280" height="349" viewBox="0 0 1280 349" fill="none" xmlns="http://www.w3.org/2000/svg">
<path d="M504.893 3.00293L542.003 64.9492L504.893 128.284V128.288H281.002L318.114 64.9492L281.002 3H504.893V3.00293Z" fill="#F7DC4C"/>
<path d="M504.893 3.00293H502.893V3.55616L503.177 4.03075L504.893 3.00293ZM542.003 64.9492L543.729 65.9603L544.328 64.9379L543.719 63.9214L542.003 64.9492ZM504.893 128.284L503.167 127.273L502.893 127.741V128.284H504.893ZM504.893 128.288V130.288H506.893V128.288H504.893ZM281.002 128.288L279.276 127.277L277.512 130.288H281.002V128.288ZM318.114 64.9492L319.84 65.9603L320.439 64.9379L319.83 63.9214L318.114 64.9492ZM281.002 3V1H277.472L279.286 4.02783L281.002 3ZM504.893 3H506.893V1H504.893V3ZM504.893 3.00293L503.177 4.03075L540.287 65.977L542.003 64.9492L543.719 63.9214L506.608 1.97511L504.893 3.00293ZM542.003 64.9492L540.277 63.9381L503.167 127.273L504.893 128.284L506.618 129.295L543.729 65.9603L542.003 64.9492ZM504.893 128.284H502.893V128.288H504.893H506.893V128.284H504.893ZM504.893 128.288V126.288H281.002V128.288V130.288H504.893V128.288ZM281.002 128.288L282.728 129.299L319.84 65.9603L318.114 64.9492L316.389 63.9381L279.276 127.277L281.002 128.288ZM318.114 64.9492L319.83 63.9214L282.718 1.97217L281.002 3L279.286 4.02783L316.399 65.977L318.114 64.9492ZM281.002 3V5H504.893V3V1H281.002V3ZM504.893 3H502.893V3.00293H504.893H506.893V3H504.893Z" fill="black"/>
<path d="M732.895 3.00293L770.005 64.9492L732.895 128.284V128.288H509.004L546.116 64.9492L509.004 3H732.895V3.00293Z" fill="#FF8952"/>
<path d="M732.895 3.00293H730.895V3.55616L731.179 4.03075L732.895 3.00293ZM770.005 64.9492L771.73 65.9603L772.33 64.9379L771.721 63.9214L770.005 64.9492ZM732.895 128.284L731.169 127.273L730.895 127.741V128.284H732.895ZM732.895 128.288V130.288H734.895V128.288H732.895ZM509.004 128.288L507.278 127.277L505.514 130.288H509.004V128.288ZM546.116 64.9492L547.842 65.9603L548.441 64.9379L547.832 63.9214L546.116 64.9492ZM509.004 3V1H505.474L507.288 4.02783L509.004 3ZM732.895 3H734.895V1H732.895V3ZM732.895 3.00293L731.179 4.03075L768.289 65.977L770.005 64.9492L771.721 63.9214L734.61 1.97511L732.895 3.00293ZM770.005 64.9492L768.279 63.9381L731.169 127.273L732.895 128.284L734.62 129.295L771.73 65.9603L770.005 64.9492ZM732.895 128.284H730.895V128.288H732.895H734.895V128.284H732.895ZM732.895 128.288V126.288H509.004V128.288V130.288H732.895V128.288ZM509.004 128.288L510.73 129.299L547.842 65.9603L546.116 64.9492L544.391 63.9381L507.278 127.277L509.004 128.288ZM546.116 64.9492L547.832 63.9214L510.72 1.97217L509.004 3L507.288 4.02783L544.401 65.977L546.116 64.9492ZM509.004 3V5H732.895V3V1H509.004V3ZM732.895 3H730.895V3.00293H732.895H734.895V3H732.895Z" fill="black"/>
<path d="M960.896 3.00293L998.007 64.9492L960.896 128.284V128.288H737.006L774.118 64.9492L737.006 3H960.896V3.00293Z" fill="#FA5555"/>
<path d="M960.896 3.00293H958.896V3.55616L959.181 4.03075L960.896 3.00293ZM998.007 64.9492L999.732 65.9603L1000.33 64.9379L999.723 63.9214L998.007 64.9492ZM960.896 128.284L959.171 127.273L958.896 127.741V128.284H960.896ZM960.896 128.288V130.288H962.896V128.288H960.896ZM737.006 128.288L735.28 127.277L733.516 130.288H737.006V128.288ZM774.118 64.9492L775.844 65.9603L776.443 64.9379L775.834 63.9214L774.118 64.9492ZM737.006 3V1H733.476L735.29 4.02783L737.006 3ZM960.896 3H962.896V1H960.896V3ZM960.896 3.00293L959.181 4.03075L996.291 65.977L998.007 64.9492L999.723 63.9214L962.612 1.97511L960.896 3.00293ZM998.007 64.9492L996.281 63.9381L959.171 127.273L960.896 128.284L962.622 129.295L999.732 65.9603L998.007 64.9492ZM960.896 128.284H958.896V128.288H960.896H962.896V128.284H960.896ZM960.896 128.288V126.288H737.006V128.288V130.288H960.896V128.288ZM737.006 128.288L738.731 129.299L775.844 65.9603L774.118 64.9492L772.393 63.9381L735.28 127.277L737.006 128.288ZM774.118 64.9492L775.834 63.9214L738.722 1.97217L737.006 3L735.29 4.02783L772.402 65.977L774.118 64.9492ZM737.006 3V5H960.896V3V1H737.006V3ZM960.896 3H958.896V3.00293H960.896H962.896V3H960.896Z" fill="black"/>
<path d="M1188.9 3.00293L1226.01 64.9492L1188.9 128.284V128.288H965.008L1002.12 64.9492L965.008 3H1188.9V3.00293Z" fill="#459AFD"/>
<path d="M1188.9 3.00293H1186.9V3.55616L1187.18 4.03075L1188.9 3.00293ZM1226.01 64.9492L1227.73 65.9603L1228.33 64.9379L1227.72 63.9214L1226.01 64.9492ZM1188.9 128.284L1187.17 127.273L1186.9 127.741V128.284H1188.9ZM1188.9 128.288V130.288H1190.9V128.288H1188.9ZM965.008 128.288L963.282 127.277L961.518 130.288H965.008V128.288ZM1002.12 64.9492L1003.85 65.9603L1004.44 64.9379L1003.84 63.9214L1002.12 64.9492ZM965.008 3V1H961.478L963.292 4.02783L965.008 3ZM1188.9 3H1190.9V1H1188.9V3ZM1188.9 3.00293L1187.18 4.03075L1224.29 65.977L1226.01 64.9492L1227.72 63.9214L1190.61 1.97511L1188.9 3.00293ZM1226.01 64.9492L1224.28 63.9381L1187.17 127.273L1188.9 128.284L1190.62 129.295L1227.73 65.9603L1226.01 64.9492ZM1188.9 128.284H1186.9V128.288H1188.9H1190.9V128.284H1188.9ZM1188.9 128.288V126.288H965.008V128.288V130.288H1188.9V128.288ZM965.008 128.288L966.733 129.299L1003.85 65.9603L1002.12 64.9492L1000.39 63.9381L963.282 127.277L965.008 128.288ZM1002.12 64.9492L1003.84 63.9214L966.723 1.97217L965.008 3L963.292 4.02783L1000.4 65.977L1002.12 64.9492ZM965.008 3V5H1188.9V3V1H965.008V3ZM1188.9 3H1186.9V3.00293H1188.9H1190.9V3H1188.9Z" fill="black"/>
<path d="M276.891 3.00293L314.001 64.9492L276.891 128.284V128.288H53L90.1123 64.9492L53 3H276.891V3.00293Z" fill="#FEE2F0"/>
<path d="M276.891 3.00293H274.891V3.55616L275.175 4.03075L276.891 3.00293ZM314.001 64.9492L315.727 65.9603L316.326 64.9379L315.717 63.9214L314.001 64.9492ZM276.891 128.284L275.165 127.273L274.891 127.741V128.284H276.891ZM276.891 128.288V130.288H278.891V128.288H276.891ZM53 128.288L51.2744 127.277L49.5101 130.288H53V128.288ZM90.1123 64.9492L91.8379 65.9603L92.437 64.9379L91.828 63.9214L90.1123 64.9492ZM53 3V1H49.4704L51.2843 4.02783L53 3ZM276.891 3H278.891V1H276.891V3ZM276.891 3.00293L275.175 4.03075L312.285 65.977L314.001 64.9492L315.717 63.9214L278.606 1.97511L276.891 3.00293ZM314.001 64.9492L312.275 63.9381L275.165 127.273L276.891 128.284L278.616 129.295L315.727 65.9603L314.001 64.9492ZM276.891 128.284H274.891V128.288H276.891H278.891V128.284H276.891ZM276.891 128.288V126.288H53V128.288V130.288H276.891V128.288ZM53 128.288L54.7256 129.299L91.8379 65.9603L90.1123 64.9492L88.3867 63.9381L51.2744 127.277L53 128.288ZM90.1123 64.9492L91.828 63.9214L54.7157 1.97217L53 3L51.2843 4.02783L88.3966 65.977L90.1123 64.9492ZM53 3V5H276.891V3V1H53V3ZM276.891 3H274.891V3.00293H276.891H278.891V3H276.891Z" fill="black"/>
<path d="M135.69 77H128.52V55.31H135.57C142.05 55.31 146.43 59.69 146.43 66.17C146.43 72.62 142.11 77 135.69 77ZM135.36 58.01H131.46V74.27H135.48C140.31 74.27 143.37 71.15 143.37 66.17C143.37 61.13 140.31 58.01 135.36 58.01ZM150.77 58.85C149.75 58.85 148.91 58.01 148.91 56.99C148.91 55.94 149.75 55.13 150.77 55.13C151.79 55.13 152.63 55.94 152.63 56.99C152.63 58.01 151.79 58.85 150.77 58.85ZM149.39 77V62.33H152.21V77H149.39ZM154.804 72.74H157.504C157.504 74.24 158.644 75.14 160.504 75.14C162.484 75.14 163.624 74.33 163.624 72.98C163.624 71.99 163.144 71.39 161.614 71L159.034 70.4C156.424 69.77 155.194 68.48 155.194 66.32C155.194 63.62 157.474 61.91 160.714 61.91C163.924 61.91 166.024 63.71 166.084 66.5H163.384C163.324 65.03 162.334 64.1 160.624 64.1C158.854 64.1 157.864 64.88 157.864 66.23C157.864 67.22 158.584 67.88 160.024 68.24L162.604 68.87C165.094 69.47 166.324 70.61 166.324 72.8C166.324 75.59 163.924 77.36 160.444 77.36C156.994 77.36 154.804 75.53 154.804 72.74ZM168.192 69.68C168.192 65.09 171.102 61.91 175.392 61.91C179.082 61.91 181.662 64.01 182.172 67.28H179.352C178.872 65.42 177.372 64.43 175.482 64.43C172.812 64.43 170.982 66.47 170.982 69.65C170.982 72.8 172.692 74.84 175.362 74.84C177.372 74.84 178.872 73.79 179.382 72.05H182.202C181.632 75.23 178.902 77.36 175.362 77.36C171.042 77.36 168.192 74.3 168.192 69.68ZM183.917 69.65C183.917 65.12 187.157 61.94 191.567 61.94C195.947 61.94 199.187 65.12 199.187 69.65C199.187 74.18 195.947 77.36 191.567 77.36C187.157 77.36 183.917 74.18 183.917 69.65ZM186.767 69.65C186.767 72.71 188.717 74.84 191.567 74.84C194.387 74.84 196.367 72.71 196.367 69.65C196.367 66.59 194.387 64.46 191.567 64.46C188.717 64.46 186.767 66.59 186.767 69.65ZM205.445 77L199.535 62.33H202.535L205.745 70.52C206.255 71.9 206.675 73.13 206.915 74.03C207.155 73.07 207.635 71.81 208.145 70.52L211.415 62.33H214.355L208.235 77H205.445ZM221.955 77.36C217.635 77.36 214.665 74.24 214.665 69.68C214.665 65.09 217.575 61.91 221.835 61.91C226.005 61.91 228.735 64.79 228.735 69.14V70.19L217.395 70.22C217.605 73.31 219.225 75.02 222.015 75.02C224.205 75.02 225.645 74.12 226.125 72.44H228.765C228.045 75.59 225.585 77.36 221.955 77.36ZM221.835 64.28C219.375 64.28 217.815 65.75 217.455 68.33H225.915C225.915 65.9 224.325 64.28 221.835 64.28ZM239.985 62.21V64.79H238.725C236.055 64.79 234.405 66.41 234.405 69.23V77H231.585V62.36H234.225L234.405 64.58C235.005 63.05 236.475 62.03 238.485 62.03C238.995 62.03 239.415 62.09 239.985 62.21Z" fill="black"/>
<path d="M377.69 77H370.52V55.31H377.57C384.05 55.31 388.43 59.69 388.43 66.17C388.43 72.62 384.11 77 377.69 77ZM377.36 58.01H373.46V74.27H377.48C382.31 74.27 385.37 71.15 385.37 66.17C385.37 61.13 382.31 58.01 377.36 58.01ZM397.72 77.36C393.4 77.36 390.43 74.24 390.43 69.68C390.43 65.09 393.34 61.91 397.6 61.91C401.77 61.91 404.5 64.79 404.5 69.14V70.19L393.16 70.22C393.37 73.31 394.99 75.02 397.78 75.02C399.97 75.02 401.41 74.12 401.89 72.44H404.53C403.81 75.59 401.35 77.36 397.72 77.36ZM397.6 64.28C395.14 64.28 393.58 65.75 393.22 68.33H401.68C401.68 65.9 400.09 64.28 397.6 64.28ZM417.28 77V64.7H410.77V77H407.95V64.7H405.79V62.33H407.95V59.99C407.95 56.39 409.9 54.92 412.45 54.92C412.99 54.92 413.65 54.95 414.19 55.04V57.47H412.93C411.22 57.47 410.77 58.4 410.77 59.99V62.33H420.1V77H417.28ZM418.69 58.73C417.67 58.73 416.89 57.95 416.89 56.93C416.89 55.91 417.67 55.13 418.69 55.13C419.68 55.13 420.46 55.91 420.46 56.93C420.46 57.95 419.68 58.73 418.69 58.73ZM426.628 77H423.808V62.33H426.358L426.658 64.58C427.588 62.9 429.448 61.91 431.518 61.91C435.388 61.91 437.158 64.28 437.158 68.03V77H434.338V68.66C434.338 65.69 432.958 64.49 430.798 64.49C428.158 64.49 426.628 66.38 426.628 69.23V77ZM447.094 77.36C442.774 77.36 439.804 74.24 439.804 69.68C439.804 65.09 442.714 61.91 446.974 61.91C451.144 61.91 453.874 64.79 453.874 69.14V70.19L442.534 70.22C442.744 73.31 444.364 75.02 447.154 75.02C449.344 75.02 450.784 74.12 451.264 72.44H453.904C453.184 75.59 450.724 77.36 447.094 77.36ZM446.974 64.28C444.514 64.28 442.954 65.75 442.594 68.33H451.054C451.054 65.9 449.464 64.28 446.974 64.28Z" fill="black"/>
<path d="M603.46 55.31V77H600.52V55.31H603.46ZM613.618 77.36C609.358 77.36 606.778 74.18 606.778 69.71C606.778 65.21 609.388 61.91 613.738 61.91C615.988 61.91 617.878 62.9 618.868 64.7V54.92H621.658V77H619.138L618.898 74.33C617.938 76.34 615.958 77.36 613.618 77.36ZM614.188 74.81C617.068 74.81 618.838 72.68 618.838 69.62C618.838 66.62 617.068 64.46 614.188 64.46C611.308 64.46 609.628 66.62 609.628 69.62C609.628 72.65 611.308 74.81 614.188 74.81ZM631.756 77.36C627.436 77.36 624.466 74.24 624.466 69.68C624.466 65.09 627.376 61.91 631.636 61.91C635.806 61.91 638.536 64.79 638.536 69.14V70.19L627.196 70.22C627.406 73.31 629.026 75.02 631.816 75.02C634.006 75.02 635.446 74.12 635.926 72.44H638.566C637.846 75.59 635.386 77.36 631.756 77.36ZM631.636 64.28C629.176 64.28 627.616 65.75 627.256 68.33H635.716C635.716 65.9 634.126 64.28 631.636 64.28ZM645.53 77.36C642.38 77.36 640.52 75.59 640.52 72.92C640.52 70.22 642.53 68.54 645.98 68.27L650.6 67.91V67.49C650.6 65.03 649.13 64.16 647.15 64.16C644.78 64.16 643.43 65.21 643.43 66.98H640.97C640.97 63.92 643.49 61.91 647.27 61.91C650.9 61.91 653.36 63.83 653.36 67.79V77H650.96L650.66 74.63C649.91 76.31 647.9 77.36 645.53 77.36ZM646.34 75.17C649.01 75.17 650.63 73.43 650.63 70.67V69.89L646.88 70.19C644.39 70.43 643.37 71.39 643.37 72.83C643.37 74.39 644.51 75.17 646.34 75.17ZM660.871 77H658.051V64.7H655.171V62.33H658.051V57.74H660.871V62.33H663.751V64.7H660.871V77ZM672.165 77.36C667.845 77.36 664.875 74.24 664.875 69.68C664.875 65.09 667.785 61.91 672.045 61.91C676.215 61.91 678.945 64.79 678.945 69.14V70.19L667.605 70.22C667.815 73.31 669.435 75.02 672.225 75.02C674.415 75.02 675.855 74.12 676.335 72.44H678.975C678.255 75.59 675.795 77.36 672.165 77.36ZM672.045 64.28C669.585 64.28 668.025 65.75 667.665 68.33H676.125C676.125 65.9 674.535 64.28 672.045 64.28Z" fill="black"/>
<path d="M818.95 69.26H813.46V77H810.52V55.31H818.95C823.21 55.31 825.94 58.1 825.94 62.27C825.94 66.32 823.18 69.26 818.95 69.26ZM818.44 57.95H813.46V66.62H818.32C821.23 66.62 822.85 64.91 822.85 62.24C822.85 59.51 821.2 57.95 818.44 57.95ZM836.89 62.21V64.79H835.63C832.96 64.79 831.31 66.41 831.31 69.23V77H828.49V62.36H831.13L831.31 64.58C831.91 63.05 833.38 62.03 835.39 62.03C835.9 62.03 836.32 62.09 836.89 62.21ZM837.748 69.65C837.748 65.12 840.988 61.94 845.398 61.94C849.778 61.94 853.018 65.12 853.018 69.65C853.018 74.18 849.778 77.36 845.398 77.36C840.988 77.36 837.748 74.18 837.748 69.65ZM840.598 69.65C840.598 72.71 842.548 74.84 845.398 74.84C848.218 74.84 850.198 72.71 850.198 69.65C850.198 66.59 848.218 64.46 845.398 64.46C842.548 64.46 840.598 66.59 840.598 69.65ZM859.833 77H857.013V64.7H854.133V62.33H857.013V57.74H859.833V62.33H862.713V64.7H859.833V77ZM863.837 69.65C863.837 65.12 867.077 61.94 871.487 61.94C875.867 61.94 879.107 65.12 879.107 69.65C879.107 74.18 875.867 77.36 871.487 77.36C867.077 77.36 863.837 74.18 863.837 69.65ZM866.687 69.65C866.687 72.71 868.637 74.84 871.487 74.84C874.307 74.84 876.287 72.71 876.287 69.65C876.287 66.59 874.307 64.46 871.487 64.46C868.637 64.46 866.687 66.59 866.687 69.65ZM880.021 83.57V81.26H881.911C883.261 81.26 884.341 81.05 885.031 79.19L885.541 77.78L879.631 62.33H882.601L886.861 74.15L891.211 62.33H894.121L887.191 80.3C886.201 82.82 884.731 83.87 882.481 83.87C881.551 83.87 880.771 83.75 880.021 83.57ZM896.072 83.57V62.33H898.622L898.832 64.97C899.822 62.96 901.802 61.91 904.142 61.91C908.342 61.91 910.952 65.06 910.952 69.56C910.952 74.03 908.492 77.39 904.142 77.39C901.802 77.39 899.852 76.4 898.892 74.6V83.57H896.072ZM898.922 69.68C898.922 72.68 900.662 74.84 903.542 74.84C906.422 74.84 908.132 72.68 908.132 69.68C908.132 66.65 906.422 64.49 903.542 64.49C900.662 64.49 898.922 66.62 898.922 69.68ZM920.09 77.36C915.77 77.36 912.8 74.24 912.8 69.68C912.8 65.09 915.71 61.91 919.97 61.91C924.14 61.91 926.87 64.79 926.87 69.14V70.19L915.53 70.22C915.74 73.31 917.36 75.02 920.15 75.02C922.34 75.02 923.78 74.12 924.26 72.44H926.9C926.18 75.59 923.72 77.36 920.09 77.36ZM919.97 64.28C917.51 64.28 915.95 65.75 915.59 68.33H924.05C924.05 65.9 922.46 64.28 919.97 64.28Z" fill="black"/>
<path d="M1069.42 58.01V55.31H1085.41V58.01H1078.9V77H1075.96V58.01H1069.42ZM1091.54 77.36C1087.22 77.36 1084.25 74.24 1084.25 69.68C1084.25 65.09 1087.16 61.91 1091.42 61.91C1095.59 61.91 1098.32 64.79 1098.32 69.14V70.19L1086.98 70.22C1087.19 73.31 1088.81 75.02 1091.6 75.02C1093.79 75.02 1095.23 74.12 1095.71 72.44H1098.35C1097.63 75.59 1095.17 77.36 1091.54 77.36ZM1091.42 64.28C1088.96 64.28 1087.4 65.75 1087.04 68.33H1095.5C1095.5 65.9 1093.91 64.28 1091.42 64.28ZM1099.97 72.74H1102.67C1102.67 74.24 1103.81 75.14 1105.67 75.14C1107.65 75.14 1108.79 74.33 1108.79 72.98C1108.79 71.99 1108.31 71.39 1106.78 71L1104.2 70.4C1101.59 69.77 1100.36 68.48 1100.36 66.32C1100.36 63.62 1102.64 61.91 1105.88 61.91C1109.09 61.91 1111.19 63.71 1111.25 66.5H1108.55C1108.49 65.03 1107.5 64.1 1105.79 64.1C1104.02 64.1 1103.03 64.88 1103.03 66.23C1103.03 67.22 1103.75 67.88 1105.19 68.24L1107.77 68.87C1110.26 69.47 1111.49 70.61 1111.49 72.8C1111.49 75.59 1109.09 77.36 1105.61 77.36C1102.16 77.36 1099.97 75.53 1099.97 72.74ZM1118.46 77H1115.64V64.7H1112.76V62.33H1115.64V57.74H1118.46V62.33H1121.34V64.7H1118.46V77Z" fill="black"/>
<path d="M40.7071 74.2071C41.0976 73.8166 41.0976 73.1834 40.7071 72.7929L34.3431 66.4289C33.9526 66.0384 33.3195 66.0384 32.9289 66.4289C32.5384 66.8195 32.5384 67.4526 32.9289 67.8431L38.5858 73.5L32.9289 79.1569C32.5384 79.5474 32.5384 80.1805 32.9289 80.5711C33.3195 80.9616 33.9526 80.9616 34.3431 80.5711L40.7071 74.2071ZM40 73.5V72.5H34.5714V73.5V74.5H40V73.5ZM7.42857 73.5V72.5H2V73.5V74.5H7.42857V73.5ZM2 73.5V72.5C0.895424 72.5 0 73.3954 0 74.5H1H2V74.5V73.5ZM1 74.5H0V78.4196H1H2V74.5H1ZM1 98.0179H0V105.857H1H2V98.0179H1ZM1 125.455H0V133.295H1H2V125.455H1ZM1 152.893H0V160.732H1H2V152.893H1ZM1 180.33H0V188.17H1H2V180.33H1ZM1 207.768H0V215.607H1H2V207.768H1ZM1 235.205H0V243.045H1H2V235.205H1ZM1 262.643H0V270.482H1H2V262.643H1ZM1 290.08H0V294H1H2V290.08H1ZM1 294H0C0 295.105 0.895457 296 2.00001 296V295V294H2H1ZM2.00001 295V296H5.96119V295V294H2.00001V295ZM25.7671 295V296H33.6895V295V294H25.7671V295ZM53.4953 295V296H61.4177V295V294H53.4953V295ZM81.2236 295V296H89.146V295V294H81.2236V295ZM108.952 295V296H116.874V295V294H108.952V295ZM136.68 295V296H144.603V295V294H136.68V295ZM164.408 295V296H172.331V295V294H164.408V295ZM192.137 295V296H200.059V295V294H192.137V295ZM219.865 295V296H227.787V295V294H219.865V295ZM247.593 295V296H255.516V295V294H247.593V295ZM275.321 295V296H283.244V295V294H275.321V295ZM303.05 295V296H310.972V295V294H303.05V295ZM330.778 295V296H338.7V295V294H330.778V295ZM358.506 295V296H366.429V295V294H358.506V295ZM386.235 295V296H394.157V295V294H386.235V295ZM413.963 295V296H421.885V295V294H413.963V295ZM441.691 295V296H449.613V295V294H441.691V295ZM469.419 295V296H477.342V295V294H469.419V295ZM497.148 295V296H505.07V295V294H497.148V295ZM524.876 295V296H532.798V295V294H524.876V295ZM552.604 295V296H560.527V295V294H552.604V295ZM580.332 295V296H588.255V295V294H580.332V295ZM608.061 295V296H615.983V295V294H608.061V295ZM635.789 295V296H643.711V295V294H635.789V295ZM663.517 295V296H671.44V295V294H663.517V295ZM691.246 295V296H699.168V295V294H691.246V295ZM718.974 295V296H726.896V295V294H718.974V295ZM746.702 295V296H754.624V295V294H746.702V295ZM774.43 295V296H782.353V295V294H774.43V295ZM802.159 295V296H810.081V295V294H802.159V295ZM829.887 295V296H837.809V295V294H829.887V295ZM857.615 295V296H865.538V295V294H857.615V295ZM885.343 295V296H893.266V295V294H885.343V295ZM913.072 295V296H920.994V295V294H913.072V295ZM940.8 295V296H948.722V295V294H940.8V295ZM968.528 295V296H976.451V295V294H968.528V295ZM996.257 295V296H1004.18V295V294H996.257V295ZM1023.98 295V296H1031.91V295V294H1023.98V295ZM1051.71 295V296H1059.64V295V294H1051.71V295ZM1079.44 295V296H1087.36V295V294H1079.44V295ZM1107.17 295V296H1115.09V295V294H1107.17V295ZM1134.9 295V296H1142.82V295V294H1134.9V295ZM1162.63 295V296H1170.55V295V294H1162.63V295ZM1190.35 295V296H1198.28V295V294H1190.35V295ZM1218.08 295V296H1226.01V295V294H1218.08V295ZM1245.81 295V296H1253.73V295V294H1245.81V295ZM1273.54 295V296H1277.5V295V294H1273.54V295ZM1277.5 295V296C1278.6 296 1279.5 295.105 1279.5 294H1278.5H1277.5V295ZM1278.5 294H1279.5V289.911H1278.5H1277.5V294H1278.5ZM1278.5 269.464H1279.5V261.286H1278.5H1277.5V269.464H1278.5ZM1278.5 240.839H1279.5V232.661H1278.5H1277.5V240.839H1278.5ZM1278.5 212.214H1279.5V204.036H1278.5H1277.5V212.214H1278.5ZM1278.5 183.589H1279.5V175.411H1278.5H1277.5V183.589H1278.5ZM1278.5 154.964H1279.5V146.786H1278.5H1277.5V154.964H1278.5ZM1278.5 126.339H1279.5V118.161H1278.5H1277.5V126.339H1278.5ZM1278.5 97.7143H1279.5V89.5357H1278.5H1277.5V97.7143H1278.5ZM1278.5 69.0893H1279.5V65H1278.5H1277.5V69.0893H1278.5ZM1278.5 65H1279.5C1279.5 63.8954 1278.6 63 1277.5 63V64V65H1278.5ZM1277.5 64V63H1274.39V64V65H1277.5V64ZM1258.86 64V63H1252.64V64V65H1258.86V64ZM1237.11 64V63H1234V64V65H1237.11V64Z" fill="black"/>
<rect x="510.504" y="241.668" width="207.992" height="104.828" rx="22.4631" fill="white" stroke="black" stroke-width="4.9918"/>
<path d="M578.46 282.31V304H575.52V282.31H578.46ZM586.878 304H584.058V291.7H581.178V289.33H584.058V284.74H586.878V289.33H589.758V291.7H586.878V304ZM598.172 304.36C593.852 304.36 590.882 301.24 590.882 296.68C590.882 292.09 593.792 288.91 598.052 288.91C602.222 288.91 604.952 291.79 604.952 296.14V297.19L593.612 297.22C593.822 300.31 595.442 302.02 598.232 302.02C600.422 302.02 601.862 301.12 602.342 299.44H604.982C604.262 302.59 601.802 304.36 598.172 304.36ZM598.052 291.28C595.592 291.28 594.032 292.75 593.672 295.33H602.132C602.132 292.9 600.542 291.28 598.052 291.28ZM616.202 289.21V291.79H614.942C612.272 291.79 610.622 293.41 610.622 296.23V304H607.802V289.36H610.442L610.622 291.58C611.222 290.05 612.692 289.03 614.702 289.03C615.212 289.03 615.632 289.09 616.202 289.21ZM622.251 304.36C619.101 304.36 617.241 302.59 617.241 299.92C617.241 297.22 619.251 295.54 622.701 295.27L627.321 294.91V294.49C627.321 292.03 625.851 291.16 623.871 291.16C621.501 291.16 620.151 292.21 620.151 293.98H617.691C617.691 290.92 620.211 288.91 623.991 288.91C627.621 288.91 630.081 290.83 630.081 294.79V304H627.681L627.381 301.63C626.631 303.31 624.621 304.36 622.251 304.36ZM623.061 302.17C625.731 302.17 627.351 300.43 627.351 297.67V296.89L623.601 297.19C621.111 297.43 620.091 298.39 620.091 299.83C620.091 301.39 621.231 302.17 623.061 302.17ZM637.592 304H634.772V291.7H631.892V289.33H634.772V284.74H637.592V289.33H640.472V291.7H637.592V304ZM648.886 304.36C644.566 304.36 641.596 301.24 641.596 296.68C641.596 292.09 644.506 288.91 648.766 288.91C652.936 288.91 655.666 291.79 655.666 296.14V297.19L644.326 297.22C644.536 300.31 646.156 302.02 648.946 302.02C651.136 302.02 652.576 301.12 653.056 299.44H655.696C654.976 302.59 652.516 304.36 648.886 304.36ZM648.766 291.28C646.306 291.28 644.746 292.75 644.386 295.33H652.846C652.846 292.9 651.256 291.28 648.766 291.28Z" fill="black"/>
</svg>