<svg width="318" height="206" viewBox="0 0 318 206" fill="none" xmlns="http://www.w3.org/2000/svg">
<path d="M62.844 31.5071C62.844 48.9073 48.7372 63.0142 31.3369 63.0142C15.0455 63.0142 1.63573 50.6419 0 34.7785L0 0L31.3369 0C48.7372 0 62.844 14.1068 62.844 31.5071Z" fill="#D7AD5E"/>
<path d="M141.688 31.5071C141.688 48.9073 127.581 63.0142 110.181 63.0142C93.8897 63.0142 80.48 50.6419 78.8442 34.7785V0L110.181 0C127.581 0 141.688 14.1068 141.688 31.5071Z" fill="#D7AD5E"/>
<path d="M220.532 31.5071C220.532 48.9073 206.425 63.0142 189.025 63.0142C172.733 63.0142 159.324 50.6419 157.688 34.7785V0L189.025 0C206.425 0 220.532 14.1068 220.532 31.5071Z" fill="#D7AD5E"/>
<path d="M299.376 31.5071C299.376 48.9073 285.269 63.0142 267.869 63.0142C251.578 63.0142 238.168 50.6419 236.532 34.7785V0L267.869 0C285.269 0 299.376 14.1068 299.376 31.5071Z" fill="#D7AD5E"/>
<path d="M62.844 102.521C62.844 119.921 48.7372 134.028 31.3369 134.028C15.0455 134.028 1.63573 121.656 0 105.793L0 71.0142H31.3369C48.7372 71.0142 62.844 85.121 62.844 102.521Z" fill="#D7AD5E"/>
<path d="M141.688 102.521C141.688 119.921 127.581 134.028 110.181 134.028C93.8897 134.028 80.48 121.656 78.8442 105.793V71.0142H110.181C127.581 71.0142 141.688 85.121 141.688 102.521Z" fill="#DBDAD7"/>
<path d="M220.532 102.521C220.532 119.921 206.425 134.028 189.025 134.028C172.733 134.028 159.324 121.656 157.688 105.793V71.0142H189.025C206.425 71.0142 220.532 85.121 220.532 102.521Z" fill="#DBDAD7"/>
<path d="M299.376 102.521C299.376 119.921 285.269 134.028 267.869 134.028C251.578 134.028 238.168 121.656 236.532 105.793V71.0142H267.869C285.269 71.0142 299.376 85.121 299.376 102.521Z" fill="#DBDAD7"/>
<path d="M62.844 173.535C62.844 190.936 48.7372 205.042 31.3369 205.042C15.0455 205.042 1.63573 192.67 0 176.807L0 142.028H31.3369C48.7372 142.028 62.844 156.135 62.844 173.535Z" fill="#DBDAD7"/>
<path d="M141.688 173.535C141.688 190.936 127.581 205.042 110.181 205.042C93.8897 205.042 80.48 192.67 78.8442 176.807V142.028H110.181C127.581 142.028 141.688 156.135 141.688 173.535Z" fill="#DBDAD7"/>
<path d="M220.532 173.535C220.532 190.936 206.425 205.042 189.025 205.042C172.733 205.042 159.324 192.67 157.688 176.807V142.028H189.025C206.425 142.028 220.532 156.135 220.532 173.535Z" fill="#DBDAD7"/>
<path d="M299.376 173.535C299.376 190.936 285.269 205.042 267.869 205.042C251.578 205.042 238.168 192.67 236.532 176.807V142.028H267.869C285.269 142.028 299.376 156.135 299.376 173.535Z" fill="#DBDAD7"/>
</svg>