<svg width="97" height="28" viewBox="0 0 97 28" fill="none" xmlns="http://www.w3.org/2000/svg">
<path d="M13.7975 19.6916H8.10866C7.88269 20.1273 7.74314 20.3485 7.64776 20.5886C7.22911 21.6301 6.83927 22.6854 6.40141 23.719C6.30795 23.9389 6.06278 24.2424 5.88034 24.247C4.15838 24.2869 2.43321 24.2699 0.5 24.2699C3.02278 17.8683 5.46745 11.6636 7.99663 5.24036C8.21492 5.62962 8.33975 5.80168 8.41528 5.99272C10.2128 10.5573 12.0071 15.1238 13.7969 19.6916H13.7975Z" fill="white"/>
<path d="M20.8182 19.6912H15.1248C14.0077 16.8263 12.8805 13.9667 11.7666 11.1018C11.6809 10.8833 11.6431 10.5804 11.7231 10.3743C12.5374 8.25264 13.3791 6.14341 14.219 4.03287C14.2446 3.97006 14.3227 3.9295 14.5352 3.72668C16.6381 9.06846 18.7095 14.333 20.8188 19.6918L20.8182 19.6912Z" fill="white"/>
<path d="M26.8184 9.87052H29.1607L31.503 15.2331H31.8112L34.1535 9.87052H36.4341V18.5H35.0164V12.4594L35.1397 11.2882H35.0164L32.7358 16.5275H30.5167L28.2361 11.2882H28.1128L28.2361 12.4594V18.5H26.8184V9.87052ZM40.6246 18.6233C40.2055 18.6233 39.8151 18.5452 39.4535 18.389C39.1001 18.2329 38.7878 18.0151 38.5165 17.7357C38.2535 17.448 38.044 17.1028 37.8878 16.7001C37.7399 16.2974 37.6659 15.8495 37.6659 15.3564C37.6659 14.8633 37.7399 14.4154 37.8878 14.0127C38.044 13.61 38.2535 13.2689 38.5165 12.9895C38.7878 12.7018 39.1001 12.4799 39.4535 12.3238C39.8151 12.1676 40.2055 12.0895 40.6246 12.0895C40.9451 12.0895 41.2287 12.1388 41.4752 12.2375C41.7218 12.3361 41.9272 12.4429 42.0916 12.558C42.2889 12.6977 42.4573 12.8497 42.597 13.0141H42.6587V12.2128H43.9531V18.5H42.6587V17.6371H42.597C42.4573 17.8179 42.2889 17.9822 42.0916 18.1302C41.9272 18.2534 41.7218 18.3685 41.4752 18.4753C41.2287 18.574 40.9451 18.6233 40.6246 18.6233ZM40.8712 17.4521C41.3971 17.4521 41.8245 17.2754 42.1532 16.922C42.4902 16.5604 42.6587 16.0385 42.6587 15.3564C42.6587 14.6743 42.4902 14.1565 42.1532 13.8031C41.8245 13.4415 41.3971 13.2607 40.8712 13.2607C40.3123 13.2607 39.8644 13.4415 39.5274 13.8031C39.1905 14.1565 39.022 14.6743 39.022 15.3564C39.022 16.0385 39.1905 16.5604 39.5274 16.922C39.8644 17.2754 40.3123 17.4521 40.8712 17.4521ZM45.4276 12.2128H46.7221V13.0758H46.7837C46.8988 12.8949 47.0508 12.7306 47.2398 12.5826C47.4042 12.4594 47.6056 12.3484 47.8439 12.2498C48.0904 12.1429 48.3945 12.0895 48.7561 12.0895C49.5287 12.0895 50.1328 12.3155 50.5683 12.7676C51.0039 13.2114 51.2217 13.8688 51.2217 14.74V18.5H49.9273V14.8633C49.9273 14.3044 49.804 13.8976 49.5575 13.6428C49.3109 13.3881 48.9411 13.2607 48.448 13.2607C48.2014 13.2607 47.9713 13.3059 47.7576 13.3963C47.5521 13.4867 47.3713 13.6141 47.2152 13.7784C47.059 13.9346 46.9357 14.1277 46.8453 14.3578C46.7631 14.5798 46.7221 14.8304 46.7221 15.1098V18.5H45.4276V12.2128ZM52.6389 12.2128H53.9334V13.0758H53.995C54.1101 12.8949 54.2621 12.7306 54.4511 12.5826C54.6155 12.4594 54.8168 12.3484 55.0552 12.2498C55.3017 12.1429 55.6058 12.0895 55.9674 12.0895C56.74 12.0895 57.3441 12.3155 57.7796 12.7676C58.2152 13.2114 58.433 13.8688 58.433 14.74V18.5H57.1386V14.8633C57.1386 14.3044 57.0153 13.8976 56.7688 13.6428C56.5222 13.3881 56.1524 13.2607 55.6593 13.2607C55.4127 13.2607 55.1826 13.3059 54.9689 13.3963C54.7634 13.4867 54.5826 13.6141 54.4265 13.7784C54.2703 13.9346 54.147 14.1277 54.0566 14.3578C53.9744 14.5798 53.9334 14.8304 53.9334 15.1098V18.5H52.6389V12.2128ZM62.2542 18.5H60.9597L59.2338 12.2128H60.5899L61.946 17.2672H62.624L64.1033 12.2128H65.4594L62.8705 20.8423H61.5145L62.2542 18.5ZM69.713 9.87052H72.0553L74.3975 15.2331H74.7057L77.048 9.87052H79.3287V18.5H77.911V12.4594L78.0343 11.2882H77.911L75.6303 16.5275H73.4113L71.1307 11.2882H71.0074L71.1307 12.4594V18.5H69.713V9.87052ZM80.9303 12.2128H82.2248V18.5H80.9303V12.2128ZM81.5714 11.2882C81.3577 11.2882 81.1769 11.2143 81.029 11.0663C80.881 10.9184 80.8071 10.7376 80.8071 10.5239C80.8071 10.3102 80.881 10.1294 81.029 9.98147C81.1769 9.82532 81.3577 9.74724 81.5714 9.74724C81.7851 9.74724 81.9659 9.82532 82.1138 9.98147C82.27 10.1294 82.348 10.3102 82.348 10.5239C82.348 10.7376 82.27 10.9184 82.1138 11.0663C81.9659 11.2143 81.7851 11.2882 81.5714 11.2882ZM83.6993 9.87052H84.9937V14.6784H85.9183L87.8291 12.2128H89.3084L87.0278 15.1098L89.4934 18.5H87.8907L85.9799 15.8495H84.9937V18.5H83.6993V9.87052ZM92.6986 18.6233C92.2548 18.6233 91.8356 18.5411 91.4412 18.3767C91.0549 18.2041 90.7138 17.974 90.4179 17.6864C90.1303 17.3905 89.9043 17.0453 89.7399 16.6508C89.5755 16.2481 89.4934 15.8166 89.4934 15.3564C89.4934 14.8962 89.5755 14.4688 89.7399 14.0743C89.9043 13.6716 90.1303 13.3264 90.4179 13.0388C90.7138 12.7429 91.0549 12.5128 91.4412 12.3484C91.8356 12.1758 92.2548 12.0895 92.6986 12.0895C93.1424 12.0895 93.5574 12.1758 93.9437 12.3484C94.3382 12.5128 94.6793 12.7429 94.9669 13.0388C95.2628 13.3264 95.4929 13.6716 95.6573 14.0743C95.8216 14.4688 95.9038 14.8962 95.9038 15.3564V15.7879H90.7878C90.8371 16.0509 90.9193 16.2851 91.0343 16.4906C91.1494 16.696 91.2932 16.8727 91.4658 17.0207C91.6384 17.1604 91.8274 17.2672 92.0329 17.3412C92.2466 17.4152 92.4685 17.4521 92.6986 17.4521C93.0191 17.4521 93.2944 17.411 93.5246 17.3289C93.7547 17.2385 93.9396 17.1357 94.0793 17.0207C94.2437 16.8974 94.3793 16.7536 94.4861 16.5892H95.8422C95.686 16.9755 95.4683 17.3165 95.1888 17.6124C95.0655 17.7357 94.9258 17.859 94.7697 17.9822C94.6135 18.1055 94.4327 18.2165 94.2272 18.3151C94.0218 18.4055 93.7917 18.4795 93.5369 18.537C93.2821 18.5945 93.0027 18.6233 92.6986 18.6233ZM94.5478 14.74C94.5149 14.5592 94.4533 14.3784 94.3629 14.1976C94.2725 14.0168 94.1492 13.8606 93.993 13.7291C93.8369 13.5894 93.652 13.4785 93.4383 13.3963C93.2246 13.3059 92.978 13.2607 92.6986 13.2607C92.4849 13.2607 92.2753 13.2935 92.0699 13.3593C91.8726 13.425 91.6877 13.5237 91.5151 13.6552C91.3508 13.7784 91.211 13.9346 91.096 14.1236C90.9809 14.3044 90.8987 14.5099 90.8494 14.74H94.5478Z" fill="white"/>
</svg>