<svg width="1267" height="1945" viewBox="0 0 1267 1945" fill="none" xmlns="http://www.w3.org/2000/svg">
<g opacity="0.8" clip-path="url(#clip0_3158_17135)">
<g opacity="0.15">
<path d="M77.8457 0.439453V756.03" stroke="#0F1322" stroke-linecap="round"/>
<path d="M190.438 0.439453V756.03" stroke="#0F1322" stroke-linecap="round"/>
<path d="M303.027 0.439453V756.03" stroke="#0F1322" stroke-linecap="round"/>
<path d="M415.619 0.439453V756.03" stroke="#0F1322" stroke-linecap="round"/>
<path d="M528.211 0.439453V756.03" stroke="#0F1322" stroke-linecap="round"/>
<path d="M640.801 0.439453V756.03" stroke="#0F1322" stroke-linecap="round"/>
<path d="M753.393 0.439453V756.03" stroke="#0F1322" stroke-linecap="round"/>
<path d="M865.984 0.439453V756.03" stroke="#0F1322" stroke-linecap="round"/>
<path d="M978.574 0.439453V756.03" stroke="#0F1322" stroke-linecap="round"/>
<path d="M1091.17 0.439453V756.03" stroke="#0F1322" stroke-linecap="round"/>
<path d="M1203.76 0.439453V756.03" stroke="#0F1322" stroke-linecap="round"/>
<path d="M0.439453 372.518H1266.21" stroke="#0F1322" stroke-linecap="round"/>
<path d="M0.439453 485.109H1266.21" stroke="#0F1322" stroke-linecap="round"/>
<path d="M0.439453 597.699H1266.21" stroke="#0F1322" stroke-linecap="round"/>
<path d="M0.439453 710.289H1266.21" stroke="#0F1322" stroke-linecap="round"/>
<path d="M0.439453 259.926H1266.21" stroke="#0F1322" stroke-linecap="round"/>
<path d="M0.439453 147.336H1266.21" stroke="#0F1322" stroke-linecap="round"/>
<path d="M0.439453 34.7441L1266.21 34.7442" stroke="#0F1322" stroke-linecap="round"/>
</g>
</g>
<g opacity="0.8" clip-path="url(#clip1_3158_17135)">
<g opacity="0.15">
<path d="M77.8457 753.439V1509.03" stroke="#0F1322" stroke-linecap="round"/>
<path d="M190.438 753.439V1509.03" stroke="#0F1322" stroke-linecap="round"/>
<path d="M303.027 753.439V1509.03" stroke="#0F1322" stroke-linecap="round"/>
<path d="M415.619 753.439V1509.03" stroke="#0F1322" stroke-linecap="round"/>
<path d="M528.211 753.439V1509.03" stroke="#0F1322" stroke-linecap="round"/>
<path d="M640.801 753.439V1509.03" stroke="#0F1322" stroke-linecap="round"/>
<path d="M753.393 753.439V1509.03" stroke="#0F1322" stroke-linecap="round"/>
<path d="M865.984 753.439V1509.03" stroke="#0F1322" stroke-linecap="round"/>
<path d="M978.574 753.439V1509.03" stroke="#0F1322" stroke-linecap="round"/>
<path d="M1091.17 753.439V1509.03" stroke="#0F1322" stroke-linecap="round"/>
<path d="M1203.76 753.439V1509.03" stroke="#0F1322" stroke-linecap="round"/>
<path d="M0.439453 1125.52H1266.21" stroke="#0F1322" stroke-linecap="round"/>
<path d="M0.439453 1238.11H1266.21" stroke="#0F1322" stroke-linecap="round"/>
<path d="M0.439453 1350.7H1266.21" stroke="#0F1322" stroke-linecap="round"/>
<path d="M0.439453 1463.29H1266.21" stroke="#0F1322" stroke-linecap="round"/>
<path d="M0.439453 1012.93H1266.21" stroke="#0F1322" stroke-linecap="round"/>
<path d="M0.439453 900.336H1266.21" stroke="#0F1322" stroke-linecap="round"/>
<path d="M0.439453 787.744L1266.21 787.744" stroke="#0F1322" stroke-linecap="round"/>
</g>
</g>
<g opacity="0.8" clip-path="url(#clip2_3158_17135)">
<g opacity="0.15">
<path d="M77.8457 1506.44V2262.03" stroke="#0F1322" stroke-linecap="round"/>
<path d="M190.438 1506.44V2262.03" stroke="#0F1322" stroke-linecap="round"/>
<path d="M303.027 1506.44V2262.03" stroke="#0F1322" stroke-linecap="round"/>
<path d="M415.619 1506.44V2262.03" stroke="#0F1322" stroke-linecap="round"/>
<path d="M528.211 1506.44V2262.03" stroke="#0F1322" stroke-linecap="round"/>
<path d="M640.801 1506.44V2262.03" stroke="#0F1322" stroke-linecap="round"/>
<path d="M753.393 1506.44V2262.03" stroke="#0F1322" stroke-linecap="round"/>
<path d="M865.984 1506.44V2262.03" stroke="#0F1322" stroke-linecap="round"/>
<path d="M978.574 1506.44V2262.03" stroke="#0F1322" stroke-linecap="round"/>
<path d="M1091.17 1506.44V2262.03" stroke="#0F1322" stroke-linecap="round"/>
<path d="M1203.76 1506.44V2262.03" stroke="#0F1322" stroke-linecap="round"/>
<path d="M0.439453 1878.52H1266.21" stroke="#0F1322" stroke-linecap="round"/>
<path d="M0.439453 1765.93H1266.21" stroke="#0F1322" stroke-linecap="round"/>
<path d="M0.439453 1653.34H1266.21" stroke="#0F1322" stroke-linecap="round"/>
<path d="M0.439453 1540.74L1266.21 1540.74" stroke="#0F1322" stroke-linecap="round"/>
</g>
</g>
<defs>
<clipPath id="clip0_3158_17135">
<rect width="1266.65" height="756.47" fill="white"/>
</clipPath>
<clipPath id="clip1_3158_17135">
<rect width="1266.65" height="756.47" fill="white" transform="translate(0 753)"/>
</clipPath>
<clipPath id="clip2_3158_17135">
<rect width="1266.65" height="756.47" fill="white" transform="translate(0 1506)"/>
</clipPath>
</defs>
</svg>