<svg width="1267" height="15130" viewBox="0 0 1267 15130" fill="none" xmlns="http://www.w3.org/2000/svg">
<g opacity="0.8" clip-path="url(#clip0_3304_4941)">
<g opacity="0.15">
<path d="M77.8457 0.439453V756.03" stroke="#0F1322" stroke-linecap="round"/>
<path d="M190.438 0.439453V756.03" stroke="#0F1322" stroke-linecap="round"/>
<path d="M303.027 0.439453V756.03" stroke="#0F1322" stroke-linecap="round"/>
<path d="M415.619 0.439453V756.03" stroke="#0F1322" stroke-linecap="round"/>
<path d="M528.211 0.439453V756.03" stroke="#0F1322" stroke-linecap="round"/>
<path d="M640.801 0.439453V756.03" stroke="#0F1322" stroke-linecap="round"/>
<path d="M753.393 0.439453V756.03" stroke="#0F1322" stroke-linecap="round"/>
<path d="M865.984 0.439453V756.03" stroke="#0F1322" stroke-linecap="round"/>
<path d="M978.574 0.439453V756.03" stroke="#0F1322" stroke-linecap="round"/>
<path d="M1091.17 0.439453V756.03" stroke="#0F1322" stroke-linecap="round"/>
<path d="M1203.76 0.439453V756.03" stroke="#0F1322" stroke-linecap="round"/>
<path d="M0.439453 372.518H1266.21" stroke="#0F1322" stroke-linecap="round"/>
<path d="M0.439453 485.109H1266.21" stroke="#0F1322" stroke-linecap="round"/>
<path d="M0.439453 597.699H1266.21" stroke="#0F1322" stroke-linecap="round"/>
<path d="M0.439453 710.289H1266.21" stroke="#0F1322" stroke-linecap="round"/>
<path d="M0.439453 259.926H1266.21" stroke="#0F1322" stroke-linecap="round"/>
<path d="M0.439453 147.336H1266.21" stroke="#0F1322" stroke-linecap="round"/>
<path d="M0.439453 34.7441L1266.21 34.7442" stroke="#0F1322" stroke-linecap="round"/>
</g>
</g>
<g opacity="0.8" clip-path="url(#clip1_3304_4941)">
<g opacity="0.15">
<path d="M77.8457 756.909V1512.5" stroke="#0F1322" stroke-linecap="round"/>
<path d="M190.438 756.909V1512.5" stroke="#0F1322" stroke-linecap="round"/>
<path d="M303.027 756.909V1512.5" stroke="#0F1322" stroke-linecap="round"/>
<path d="M415.619 756.909V1512.5" stroke="#0F1322" stroke-linecap="round"/>
<path d="M528.211 756.909V1512.5" stroke="#0F1322" stroke-linecap="round"/>
<path d="M640.801 756.909V1512.5" stroke="#0F1322" stroke-linecap="round"/>
<path d="M753.393 756.909V1512.5" stroke="#0F1322" stroke-linecap="round"/>
<path d="M865.984 756.909V1512.5" stroke="#0F1322" stroke-linecap="round"/>
<path d="M978.574 756.909V1512.5" stroke="#0F1322" stroke-linecap="round"/>
<path d="M1091.17 756.909V1512.5" stroke="#0F1322" stroke-linecap="round"/>
<path d="M1203.76 756.909V1512.5" stroke="#0F1322" stroke-linecap="round"/>
<path d="M0.439453 1128.99H1266.21" stroke="#0F1322" stroke-linecap="round"/>
<path d="M0.439453 1241.58H1266.21" stroke="#0F1322" stroke-linecap="round"/>
<path d="M0.439453 1354.17H1266.21" stroke="#0F1322" stroke-linecap="round"/>
<path d="M0.439453 1466.76H1266.21" stroke="#0F1322" stroke-linecap="round"/>
<path d="M0.439453 1016.4H1266.21" stroke="#0F1322" stroke-linecap="round"/>
<path d="M0.439453 903.804H1266.21" stroke="#0F1322" stroke-linecap="round"/>
<path d="M0.439453 791.214L1266.21 791.214" stroke="#0F1322" stroke-linecap="round"/>
</g>
</g>
<g opacity="0.8" clip-path="url(#clip2_3304_4941)">
<g opacity="0.15">
<path d="M77.8457 1513.38V2268.97" stroke="#0F1322" stroke-linecap="round"/>
<path d="M190.438 1513.38V2268.97" stroke="#0F1322" stroke-linecap="round"/>
<path d="M303.027 1513.38V2268.97" stroke="#0F1322" stroke-linecap="round"/>
<path d="M415.619 1513.38V2268.97" stroke="#0F1322" stroke-linecap="round"/>
<path d="M528.211 1513.38V2268.97" stroke="#0F1322" stroke-linecap="round"/>
<path d="M640.801 1513.38V2268.97" stroke="#0F1322" stroke-linecap="round"/>
<path d="M753.393 1513.38V2268.97" stroke="#0F1322" stroke-linecap="round"/>
<path d="M865.984 1513.38V2268.97" stroke="#0F1322" stroke-linecap="round"/>
<path d="M978.574 1513.38V2268.97" stroke="#0F1322" stroke-linecap="round"/>
<path d="M1091.17 1513.38V2268.97" stroke="#0F1322" stroke-linecap="round"/>
<path d="M1203.76 1513.38V2268.97" stroke="#0F1322" stroke-linecap="round"/>
<path d="M0.439453 1885.46H1266.21" stroke="#0F1322" stroke-linecap="round"/>
<path d="M0.439453 1998.05H1266.21" stroke="#0F1322" stroke-linecap="round"/>
<path d="M0.439453 2110.64H1266.21" stroke="#0F1322" stroke-linecap="round"/>
<path d="M0.439453 2223.23H1266.21" stroke="#0F1322" stroke-linecap="round"/>
<path d="M0.439453 1772.87H1266.21" stroke="#0F1322" stroke-linecap="round"/>
<path d="M0.439453 1660.27H1266.21" stroke="#0F1322" stroke-linecap="round"/>
<path d="M0.439453 1547.68L1266.21 1547.68" stroke="#0F1322" stroke-linecap="round"/>
</g>
</g>
<g opacity="0.8" clip-path="url(#clip3_3304_4941)">
<g opacity="0.15">
<path d="M77.8457 2269.85V3025.44" stroke="#0F1322" stroke-linecap="round"/>
<path d="M190.438 2269.85V3025.44" stroke="#0F1322" stroke-linecap="round"/>
<path d="M303.027 2269.85V3025.44" stroke="#0F1322" stroke-linecap="round"/>
<path d="M415.619 2269.85V3025.44" stroke="#0F1322" stroke-linecap="round"/>
<path d="M528.211 2269.85V3025.44" stroke="#0F1322" stroke-linecap="round"/>
<path d="M640.801 2269.85V3025.44" stroke="#0F1322" stroke-linecap="round"/>
<path d="M753.393 2269.85V3025.44" stroke="#0F1322" stroke-linecap="round"/>
<path d="M865.984 2269.85V3025.44" stroke="#0F1322" stroke-linecap="round"/>
<path d="M978.574 2269.85V3025.44" stroke="#0F1322" stroke-linecap="round"/>
<path d="M1091.17 2269.85V3025.44" stroke="#0F1322" stroke-linecap="round"/>
<path d="M1203.76 2269.85V3025.44" stroke="#0F1322" stroke-linecap="round"/>
<path d="M0.439453 2641.93H1266.21" stroke="#0F1322" stroke-linecap="round"/>
<path d="M0.439453 2754.52H1266.21" stroke="#0F1322" stroke-linecap="round"/>
<path d="M0.439453 2867.11H1266.21" stroke="#0F1322" stroke-linecap="round"/>
<path d="M0.439453 2979.7H1266.21" stroke="#0F1322" stroke-linecap="round"/>
<path d="M0.439453 2529.34H1266.21" stroke="#0F1322" stroke-linecap="round"/>
<path d="M0.439453 2416.75H1266.21" stroke="#0F1322" stroke-linecap="round"/>
<path d="M0.439453 2304.15L1266.21 2304.15" stroke="#0F1322" stroke-linecap="round"/>
</g>
</g>
<g opacity="0.8" clip-path="url(#clip4_3304_4941)">
<g opacity="0.15">
<path d="M77.8457 3026.32V3781.91" stroke="#0F1322" stroke-linecap="round"/>
<path d="M190.438 3026.32V3781.91" stroke="#0F1322" stroke-linecap="round"/>
<path d="M303.027 3026.32V3781.91" stroke="#0F1322" stroke-linecap="round"/>
<path d="M415.619 3026.32V3781.91" stroke="#0F1322" stroke-linecap="round"/>
<path d="M528.211 3026.32V3781.91" stroke="#0F1322" stroke-linecap="round"/>
<path d="M640.801 3026.32V3781.91" stroke="#0F1322" stroke-linecap="round"/>
<path d="M753.393 3026.32V3781.91" stroke="#0F1322" stroke-linecap="round"/>
<path d="M865.984 3026.32V3781.91" stroke="#0F1322" stroke-linecap="round"/>
<path d="M978.574 3026.32V3781.91" stroke="#0F1322" stroke-linecap="round"/>
<path d="M1091.17 3026.32V3781.91" stroke="#0F1322" stroke-linecap="round"/>
<path d="M1203.76 3026.32V3781.91" stroke="#0F1322" stroke-linecap="round"/>
<path d="M0.439453 3398.4H1266.21" stroke="#0F1322" stroke-linecap="round"/>
<path d="M0.439453 3510.99H1266.21" stroke="#0F1322" stroke-linecap="round"/>
<path d="M0.439453 3623.58H1266.21" stroke="#0F1322" stroke-linecap="round"/>
<path d="M0.439453 3736.17H1266.21" stroke="#0F1322" stroke-linecap="round"/>
<path d="M0.439453 3285.81H1266.21" stroke="#0F1322" stroke-linecap="round"/>
<path d="M0.439453 3173.21H1266.21" stroke="#0F1322" stroke-linecap="round"/>
<path d="M0.439453 3060.62L1266.21 3060.62" stroke="#0F1322" stroke-linecap="round"/>
</g>
</g>
<g opacity="0.8" clip-path="url(#clip5_3304_4941)">
<g opacity="0.15">
<path d="M77.8457 3782.79V4538.38" stroke="#0F1322" stroke-linecap="round"/>
<path d="M190.438 3782.79V4538.38" stroke="#0F1322" stroke-linecap="round"/>
<path d="M303.027 3782.79V4538.38" stroke="#0F1322" stroke-linecap="round"/>
<path d="M415.619 3782.79V4538.38" stroke="#0F1322" stroke-linecap="round"/>
<path d="M528.211 3782.79V4538.38" stroke="#0F1322" stroke-linecap="round"/>
<path d="M640.801 3782.79V4538.38" stroke="#0F1322" stroke-linecap="round"/>
<path d="M753.393 3782.79V4538.38" stroke="#0F1322" stroke-linecap="round"/>
<path d="M865.984 3782.79V4538.38" stroke="#0F1322" stroke-linecap="round"/>
<path d="M978.574 3782.79V4538.38" stroke="#0F1322" stroke-linecap="round"/>
<path d="M1091.17 3782.79V4538.38" stroke="#0F1322" stroke-linecap="round"/>
<path d="M1203.76 3782.79V4538.38" stroke="#0F1322" stroke-linecap="round"/>
<path d="M0.439453 4154.87H1266.21" stroke="#0F1322" stroke-linecap="round"/>
<path d="M0.439453 4267.46H1266.21" stroke="#0F1322" stroke-linecap="round"/>
<path d="M0.439453 4380.05H1266.21" stroke="#0F1322" stroke-linecap="round"/>
<path d="M0.439453 4492.64H1266.21" stroke="#0F1322" stroke-linecap="round"/>
<path d="M0.439453 4042.28H1266.21" stroke="#0F1322" stroke-linecap="round"/>
<path d="M0.439453 3929.68H1266.21" stroke="#0F1322" stroke-linecap="round"/>
<path d="M0.439453 3817.09L1266.21 3817.09" stroke="#0F1322" stroke-linecap="round"/>
</g>
</g>
<g opacity="0.8" clip-path="url(#clip6_3304_4941)">
<g opacity="0.15">
<path d="M77.8457 4539.26V5294.85" stroke="#0F1322" stroke-linecap="round"/>
<path d="M190.438 4539.26V5294.85" stroke="#0F1322" stroke-linecap="round"/>
<path d="M303.027 4539.26V5294.85" stroke="#0F1322" stroke-linecap="round"/>
<path d="M415.619 4539.26V5294.85" stroke="#0F1322" stroke-linecap="round"/>
<path d="M528.211 4539.26V5294.85" stroke="#0F1322" stroke-linecap="round"/>
<path d="M640.801 4539.26V5294.85" stroke="#0F1322" stroke-linecap="round"/>
<path d="M753.393 4539.26V5294.85" stroke="#0F1322" stroke-linecap="round"/>
<path d="M865.984 4539.26V5294.85" stroke="#0F1322" stroke-linecap="round"/>
<path d="M978.574 4539.26V5294.85" stroke="#0F1322" stroke-linecap="round"/>
<path d="M1091.17 4539.26V5294.85" stroke="#0F1322" stroke-linecap="round"/>
<path d="M1203.76 4539.26V5294.85" stroke="#0F1322" stroke-linecap="round"/>
<path d="M0.439453 4911.34H1266.21" stroke="#0F1322" stroke-linecap="round"/>
<path d="M0.439453 5023.93H1266.21" stroke="#0F1322" stroke-linecap="round"/>
<path d="M0.439453 5136.52H1266.21" stroke="#0F1322" stroke-linecap="round"/>
<path d="M0.439453 5249.11H1266.21" stroke="#0F1322" stroke-linecap="round"/>
<path d="M0.439453 4798.75H1266.21" stroke="#0F1322" stroke-linecap="round"/>
<path d="M0.439453 4686.16H1266.21" stroke="#0F1322" stroke-linecap="round"/>
<path d="M0.439453 4573.56L1266.21 4573.56" stroke="#0F1322" stroke-linecap="round"/>
</g>
</g>
<g opacity="0.8" clip-path="url(#clip7_3304_4941)">
<g opacity="0.15">
<path d="M77.8457 5295.73V6051.32" stroke="#0F1322" stroke-linecap="round"/>
<path d="M190.438 5295.73V6051.32" stroke="#0F1322" stroke-linecap="round"/>
<path d="M303.027 5295.73V6051.32" stroke="#0F1322" stroke-linecap="round"/>
<path d="M415.619 5295.73V6051.32" stroke="#0F1322" stroke-linecap="round"/>
<path d="M528.211 5295.73V6051.32" stroke="#0F1322" stroke-linecap="round"/>
<path d="M640.801 5295.73V6051.32" stroke="#0F1322" stroke-linecap="round"/>
<path d="M753.393 5295.73V6051.32" stroke="#0F1322" stroke-linecap="round"/>
<path d="M865.984 5295.73V6051.32" stroke="#0F1322" stroke-linecap="round"/>
<path d="M978.574 5295.73V6051.32" stroke="#0F1322" stroke-linecap="round"/>
<path d="M1091.17 5295.73V6051.32" stroke="#0F1322" stroke-linecap="round"/>
<path d="M1203.76 5295.73V6051.32" stroke="#0F1322" stroke-linecap="round"/>
<path d="M0.439453 5667.81H1266.21" stroke="#0F1322" stroke-linecap="round"/>
<path d="M0.439453 5780.4H1266.21" stroke="#0F1322" stroke-linecap="round"/>
<path d="M0.439453 5892.99H1266.21" stroke="#0F1322" stroke-linecap="round"/>
<path d="M0.439453 6005.58H1266.21" stroke="#0F1322" stroke-linecap="round"/>
<path d="M0.439453 5555.22H1266.21" stroke="#0F1322" stroke-linecap="round"/>
<path d="M0.439453 5442.63H1266.21" stroke="#0F1322" stroke-linecap="round"/>
<path d="M0.439453 5330.03L1266.21 5330.03" stroke="#0F1322" stroke-linecap="round"/>
</g>
</g>
<g opacity="0.8" clip-path="url(#clip8_3304_4941)">
<g opacity="0.15">
<path d="M77.8457 6052.2V6807.79" stroke="#0F1322" stroke-linecap="round"/>
<path d="M190.438 6052.2V6807.79" stroke="#0F1322" stroke-linecap="round"/>
<path d="M303.027 6052.2V6807.79" stroke="#0F1322" stroke-linecap="round"/>
<path d="M415.619 6052.2V6807.79" stroke="#0F1322" stroke-linecap="round"/>
<path d="M528.211 6052.2V6807.79" stroke="#0F1322" stroke-linecap="round"/>
<path d="M640.801 6052.2V6807.79" stroke="#0F1322" stroke-linecap="round"/>
<path d="M753.393 6052.2V6807.79" stroke="#0F1322" stroke-linecap="round"/>
<path d="M865.984 6052.2V6807.79" stroke="#0F1322" stroke-linecap="round"/>
<path d="M978.574 6052.2V6807.79" stroke="#0F1322" stroke-linecap="round"/>
<path d="M1091.17 6052.2V6807.79" stroke="#0F1322" stroke-linecap="round"/>
<path d="M1203.76 6052.2V6807.79" stroke="#0F1322" stroke-linecap="round"/>
<path d="M0.439453 6424.28H1266.21" stroke="#0F1322" stroke-linecap="round"/>
<path d="M0.439453 6536.87H1266.21" stroke="#0F1322" stroke-linecap="round"/>
<path d="M0.439453 6649.46H1266.21" stroke="#0F1322" stroke-linecap="round"/>
<path d="M0.439453 6762.05H1266.21" stroke="#0F1322" stroke-linecap="round"/>
<path d="M0.439453 6311.69H1266.21" stroke="#0F1322" stroke-linecap="round"/>
<path d="M0.439453 6199.1H1266.21" stroke="#0F1322" stroke-linecap="round"/>
<path d="M0.439453 6086.5L1266.21 6086.5" stroke="#0F1322" stroke-linecap="round"/>
</g>
</g>
<g opacity="0.8" clip-path="url(#clip9_3304_4941)">
<g opacity="0.15">
<path d="M77.8457 6808.67V7564.26" stroke="#0F1322" stroke-linecap="round"/>
<path d="M190.438 6808.67V7564.26" stroke="#0F1322" stroke-linecap="round"/>
<path d="M303.027 6808.67V7564.26" stroke="#0F1322" stroke-linecap="round"/>
<path d="M415.619 6808.67V7564.26" stroke="#0F1322" stroke-linecap="round"/>
<path d="M528.211 6808.67V7564.26" stroke="#0F1322" stroke-linecap="round"/>
<path d="M640.801 6808.67V7564.26" stroke="#0F1322" stroke-linecap="round"/>
<path d="M753.393 6808.67V7564.26" stroke="#0F1322" stroke-linecap="round"/>
<path d="M865.984 6808.67V7564.26" stroke="#0F1322" stroke-linecap="round"/>
<path d="M978.574 6808.67V7564.26" stroke="#0F1322" stroke-linecap="round"/>
<path d="M1091.17 6808.67V7564.26" stroke="#0F1322" stroke-linecap="round"/>
<path d="M1203.76 6808.67V7564.26" stroke="#0F1322" stroke-linecap="round"/>
<path d="M0.439453 7180.75H1266.21" stroke="#0F1322" stroke-linecap="round"/>
<path d="M0.439453 7293.34H1266.21" stroke="#0F1322" stroke-linecap="round"/>
<path d="M0.439453 7405.93H1266.21" stroke="#0F1322" stroke-linecap="round"/>
<path d="M0.439453 7518.52H1266.21" stroke="#0F1322" stroke-linecap="round"/>
<path d="M0.439453 7068.16H1266.21" stroke="#0F1322" stroke-linecap="round"/>
<path d="M0.439453 6955.56H1266.21" stroke="#0F1322" stroke-linecap="round"/>
<path d="M0.439453 6842.97L1266.21 6842.97" stroke="#0F1322" stroke-linecap="round"/>
</g>
</g>
<g opacity="0.8" clip-path="url(#clip10_3304_4941)">
<g opacity="0.15">
<path d="M77.8457 7565.14V8320.73" stroke="#0F1322" stroke-linecap="round"/>
<path d="M190.438 7565.14V8320.73" stroke="#0F1322" stroke-linecap="round"/>
<path d="M303.027 7565.14V8320.73" stroke="#0F1322" stroke-linecap="round"/>
<path d="M415.619 7565.14V8320.73" stroke="#0F1322" stroke-linecap="round"/>
<path d="M528.211 7565.14V8320.73" stroke="#0F1322" stroke-linecap="round"/>
<path d="M640.801 7565.14V8320.73" stroke="#0F1322" stroke-linecap="round"/>
<path d="M753.393 7565.14V8320.73" stroke="#0F1322" stroke-linecap="round"/>
<path d="M865.984 7565.14V8320.73" stroke="#0F1322" stroke-linecap="round"/>
<path d="M978.574 7565.14V8320.73" stroke="#0F1322" stroke-linecap="round"/>
<path d="M1091.17 7565.14V8320.73" stroke="#0F1322" stroke-linecap="round"/>
<path d="M1203.76 7565.14V8320.73" stroke="#0F1322" stroke-linecap="round"/>
<path d="M0.439453 7937.22H1266.21" stroke="#0F1322" stroke-linecap="round"/>
<path d="M0.439453 8049.81H1266.21" stroke="#0F1322" stroke-linecap="round"/>
<path d="M0.439453 8162.4H1266.21" stroke="#0F1322" stroke-linecap="round"/>
<path d="M0.439453 8274.99H1266.21" stroke="#0F1322" stroke-linecap="round"/>
<path d="M0.439453 7824.62H1266.21" stroke="#0F1322" stroke-linecap="round"/>
<path d="M0.439453 7712.03H1266.21" stroke="#0F1322" stroke-linecap="round"/>
<path d="M0.439453 7599.44L1266.21 7599.44" stroke="#0F1322" stroke-linecap="round"/>
</g>
</g>
<g opacity="0.8" clip-path="url(#clip11_3304_4941)">
<g opacity="0.15">
<path d="M77.8457 8321.61V9077.2" stroke="#0F1322" stroke-linecap="round"/>
<path d="M190.438 8321.61V9077.2" stroke="#0F1322" stroke-linecap="round"/>
<path d="M303.027 8321.61V9077.2" stroke="#0F1322" stroke-linecap="round"/>
<path d="M415.619 8321.61V9077.2" stroke="#0F1322" stroke-linecap="round"/>
<path d="M528.211 8321.61V9077.2" stroke="#0F1322" stroke-linecap="round"/>
<path d="M640.801 8321.61V9077.2" stroke="#0F1322" stroke-linecap="round"/>
<path d="M753.393 8321.61V9077.2" stroke="#0F1322" stroke-linecap="round"/>
<path d="M865.984 8321.61V9077.2" stroke="#0F1322" stroke-linecap="round"/>
<path d="M978.574 8321.61V9077.2" stroke="#0F1322" stroke-linecap="round"/>
<path d="M1091.17 8321.61V9077.2" stroke="#0F1322" stroke-linecap="round"/>
<path d="M1203.76 8321.61V9077.2" stroke="#0F1322" stroke-linecap="round"/>
<path d="M0.439453 8693.69H1266.21" stroke="#0F1322" stroke-linecap="round"/>
<path d="M0.439453 8806.28H1266.21" stroke="#0F1322" stroke-linecap="round"/>
<path d="M0.439453 8918.87H1266.21" stroke="#0F1322" stroke-linecap="round"/>
<path d="M0.439453 9031.46H1266.21" stroke="#0F1322" stroke-linecap="round"/>
<path d="M0.439453 8581.1H1266.21" stroke="#0F1322" stroke-linecap="round"/>
<path d="M0.439453 8468.51H1266.21" stroke="#0F1322" stroke-linecap="round"/>
<path d="M0.439453 8355.91L1266.21 8355.91" stroke="#0F1322" stroke-linecap="round"/>
</g>
</g>
<g opacity="0.8" clip-path="url(#clip12_3304_4941)">
<g opacity="0.15">
<path d="M77.8457 9078.08V9833.67" stroke="#0F1322" stroke-linecap="round"/>
<path d="M190.438 9078.08V9833.67" stroke="#0F1322" stroke-linecap="round"/>
<path d="M303.027 9078.08V9833.67" stroke="#0F1322" stroke-linecap="round"/>
<path d="M415.619 9078.08V9833.67" stroke="#0F1322" stroke-linecap="round"/>
<path d="M528.211 9078.08V9833.67" stroke="#0F1322" stroke-linecap="round"/>
<path d="M640.801 9078.08V9833.67" stroke="#0F1322" stroke-linecap="round"/>
<path d="M753.393 9078.08V9833.67" stroke="#0F1322" stroke-linecap="round"/>
<path d="M865.984 9078.08V9833.67" stroke="#0F1322" stroke-linecap="round"/>
<path d="M978.574 9078.08V9833.67" stroke="#0F1322" stroke-linecap="round"/>
<path d="M1091.17 9078.08V9833.67" stroke="#0F1322" stroke-linecap="round"/>
<path d="M1203.76 9078.08V9833.67" stroke="#0F1322" stroke-linecap="round"/>
<path d="M0.439453 9450.16H1266.21" stroke="#0F1322" stroke-linecap="round"/>
<path d="M0.439453 9562.75H1266.21" stroke="#0F1322" stroke-linecap="round"/>
<path d="M0.439453 9675.34H1266.21" stroke="#0F1322" stroke-linecap="round"/>
<path d="M0.439453 9787.93H1266.21" stroke="#0F1322" stroke-linecap="round"/>
<path d="M0.439453 9337.57H1266.21" stroke="#0F1322" stroke-linecap="round"/>
<path d="M0.439453 9224.98H1266.21" stroke="#0F1322" stroke-linecap="round"/>
<path d="M0.439453 9112.38L1266.21 9112.38" stroke="#0F1322" stroke-linecap="round"/>
</g>
</g>
<g opacity="0.8" clip-path="url(#clip13_3304_4941)">
<g opacity="0.15">
<path d="M77.8457 9834.55V10590.1" stroke="#0F1322" stroke-linecap="round"/>
<path d="M190.438 9834.55V10590.1" stroke="#0F1322" stroke-linecap="round"/>
<path d="M303.027 9834.55V10590.1" stroke="#0F1322" stroke-linecap="round"/>
<path d="M415.619 9834.55V10590.1" stroke="#0F1322" stroke-linecap="round"/>
<path d="M528.211 9834.55V10590.1" stroke="#0F1322" stroke-linecap="round"/>
<path d="M640.801 9834.55V10590.1" stroke="#0F1322" stroke-linecap="round"/>
<path d="M753.393 9834.55V10590.1" stroke="#0F1322" stroke-linecap="round"/>
<path d="M865.984 9834.55V10590.1" stroke="#0F1322" stroke-linecap="round"/>
<path d="M978.574 9834.55V10590.1" stroke="#0F1322" stroke-linecap="round"/>
<path d="M1091.17 9834.55V10590.1" stroke="#0F1322" stroke-linecap="round"/>
<path d="M1203.76 9834.55V10590.1" stroke="#0F1322" stroke-linecap="round"/>
<path d="M0.439453 10206.6H1266.21" stroke="#0F1322" stroke-linecap="round"/>
<path d="M0.439453 10319.2H1266.21" stroke="#0F1322" stroke-linecap="round"/>
<path d="M0.439453 10431.8H1266.21" stroke="#0F1322" stroke-linecap="round"/>
<path d="M0.439453 10544.4H1266.21" stroke="#0F1322" stroke-linecap="round"/>
<path d="M0.439453 10094H1266.21" stroke="#0F1322" stroke-linecap="round"/>
<path d="M0.439453 9981.44H1266.21" stroke="#0F1322" stroke-linecap="round"/>
<path d="M0.439453 9868.85L1266.21 9868.85" stroke="#0F1322" stroke-linecap="round"/>
</g>
</g>
<g opacity="0.8" clip-path="url(#clip14_3304_4941)">
<g opacity="0.15">
<path d="M77.8457 10591V11346.6" stroke="#0F1322" stroke-linecap="round"/>
<path d="M190.438 10591V11346.6" stroke="#0F1322" stroke-linecap="round"/>
<path d="M303.027 10591V11346.6" stroke="#0F1322" stroke-linecap="round"/>
<path d="M415.619 10591V11346.6" stroke="#0F1322" stroke-linecap="round"/>
<path d="M528.211 10591V11346.6" stroke="#0F1322" stroke-linecap="round"/>
<path d="M640.801 10591V11346.6" stroke="#0F1322" stroke-linecap="round"/>
<path d="M753.393 10591V11346.6" stroke="#0F1322" stroke-linecap="round"/>
<path d="M865.984 10591V11346.6" stroke="#0F1322" stroke-linecap="round"/>
<path d="M978.574 10591V11346.6" stroke="#0F1322" stroke-linecap="round"/>
<path d="M1091.17 10591V11346.6" stroke="#0F1322" stroke-linecap="round"/>
<path d="M1203.76 10591V11346.6" stroke="#0F1322" stroke-linecap="round"/>
<path d="M0.439453 10963.1H1266.21" stroke="#0F1322" stroke-linecap="round"/>
<path d="M0.439453 11075.7H1266.21" stroke="#0F1322" stroke-linecap="round"/>
<path d="M0.439453 11188.3H1266.21" stroke="#0F1322" stroke-linecap="round"/>
<path d="M0.439453 11300.9H1266.21" stroke="#0F1322" stroke-linecap="round"/>
<path d="M0.439453 10850.5H1266.21" stroke="#0F1322" stroke-linecap="round"/>
<path d="M0.439453 10737.9H1266.21" stroke="#0F1322" stroke-linecap="round"/>
<path d="M0.439453 10625.3L1266.21 10625.3" stroke="#0F1322" stroke-linecap="round"/>
</g>
</g>
<g opacity="0.8" clip-path="url(#clip15_3304_4941)">
<g opacity="0.15">
<path d="M77.8457 11347.5V12103.1" stroke="#0F1322" stroke-linecap="round"/>
<path d="M190.438 11347.5V12103.1" stroke="#0F1322" stroke-linecap="round"/>
<path d="M303.027 11347.5V12103.1" stroke="#0F1322" stroke-linecap="round"/>
<path d="M415.619 11347.5V12103.1" stroke="#0F1322" stroke-linecap="round"/>
<path d="M528.211 11347.5V12103.1" stroke="#0F1322" stroke-linecap="round"/>
<path d="M640.801 11347.5V12103.1" stroke="#0F1322" stroke-linecap="round"/>
<path d="M753.393 11347.5V12103.1" stroke="#0F1322" stroke-linecap="round"/>
<path d="M865.984 11347.5V12103.1" stroke="#0F1322" stroke-linecap="round"/>
<path d="M978.574 11347.5V12103.1" stroke="#0F1322" stroke-linecap="round"/>
<path d="M1091.17 11347.5V12103.1" stroke="#0F1322" stroke-linecap="round"/>
<path d="M1203.76 11347.5V12103.1" stroke="#0F1322" stroke-linecap="round"/>
<path d="M0.439453 11719.6H1266.21" stroke="#0F1322" stroke-linecap="round"/>
<path d="M0.439453 11832.2H1266.21" stroke="#0F1322" stroke-linecap="round"/>
<path d="M0.439453 11944.7H1266.21" stroke="#0F1322" stroke-linecap="round"/>
<path d="M0.439453 12057.3H1266.21" stroke="#0F1322" stroke-linecap="round"/>
<path d="M0.439453 11607H1266.21" stroke="#0F1322" stroke-linecap="round"/>
<path d="M0.439453 11494.4H1266.21" stroke="#0F1322" stroke-linecap="round"/>
<path d="M0.439453 11381.8L1266.21 11381.8" stroke="#0F1322" stroke-linecap="round"/>
</g>
</g>
<g opacity="0.8" clip-path="url(#clip16_3304_4941)">
<g opacity="0.15">
<path d="M77.8457 12104V12859.5" stroke="#0F1322" stroke-linecap="round"/>
<path d="M190.438 12104V12859.5" stroke="#0F1322" stroke-linecap="round"/>
<path d="M303.027 12104V12859.5" stroke="#0F1322" stroke-linecap="round"/>
<path d="M415.619 12104V12859.5" stroke="#0F1322" stroke-linecap="round"/>
<path d="M528.211 12104V12859.5" stroke="#0F1322" stroke-linecap="round"/>
<path d="M640.801 12104V12859.5" stroke="#0F1322" stroke-linecap="round"/>
<path d="M753.393 12104V12859.5" stroke="#0F1322" stroke-linecap="round"/>
<path d="M865.984 12104V12859.5" stroke="#0F1322" stroke-linecap="round"/>
<path d="M978.574 12104V12859.5" stroke="#0F1322" stroke-linecap="round"/>
<path d="M1091.17 12104V12859.5" stroke="#0F1322" stroke-linecap="round"/>
<path d="M1203.76 12104V12859.5" stroke="#0F1322" stroke-linecap="round"/>
<path d="M0.439453 12476H1266.21" stroke="#0F1322" stroke-linecap="round"/>
<path d="M0.439453 12588.6H1266.21" stroke="#0F1322" stroke-linecap="round"/>
<path d="M0.439453 12701.2H1266.21" stroke="#0F1322" stroke-linecap="round"/>
<path d="M0.439453 12813.8H1266.21" stroke="#0F1322" stroke-linecap="round"/>
<path d="M0.439453 12363.4H1266.21" stroke="#0F1322" stroke-linecap="round"/>
<path d="M0.439453 12250.9H1266.21" stroke="#0F1322" stroke-linecap="round"/>
<path d="M0.439453 12138.3L1266.21 12138.3" stroke="#0F1322" stroke-linecap="round"/>
</g>
</g>
<g opacity="0.8" clip-path="url(#clip17_3304_4941)">
<g opacity="0.15">
<path d="M77.8457 12860.4V13616" stroke="#0F1322" stroke-linecap="round"/>
<path d="M190.438 12860.4V13616" stroke="#0F1322" stroke-linecap="round"/>
<path d="M303.027 12860.4V13616" stroke="#0F1322" stroke-linecap="round"/>
<path d="M415.619 12860.4V13616" stroke="#0F1322" stroke-linecap="round"/>
<path d="M528.211 12860.4V13616" stroke="#0F1322" stroke-linecap="round"/>
<path d="M640.801 12860.4V13616" stroke="#0F1322" stroke-linecap="round"/>
<path d="M753.393 12860.4V13616" stroke="#0F1322" stroke-linecap="round"/>
<path d="M865.984 12860.4V13616" stroke="#0F1322" stroke-linecap="round"/>
<path d="M978.574 12860.4V13616" stroke="#0F1322" stroke-linecap="round"/>
<path d="M1091.17 12860.4V13616" stroke="#0F1322" stroke-linecap="round"/>
<path d="M1203.76 12860.4V13616" stroke="#0F1322" stroke-linecap="round"/>
<path d="M0.439453 13232.5H1266.21" stroke="#0F1322" stroke-linecap="round"/>
<path d="M0.439453 13345.1H1266.21" stroke="#0F1322" stroke-linecap="round"/>
<path d="M0.439453 13457.7H1266.21" stroke="#0F1322" stroke-linecap="round"/>
<path d="M0.439453 13570.3H1266.21" stroke="#0F1322" stroke-linecap="round"/>
<path d="M0.439453 13119.9H1266.21" stroke="#0F1322" stroke-linecap="round"/>
<path d="M0.439453 13007.3H1266.21" stroke="#0F1322" stroke-linecap="round"/>
<path d="M0.439453 12894.7L1266.21 12894.7" stroke="#0F1322" stroke-linecap="round"/>
</g>
</g>
<g opacity="0.8" clip-path="url(#clip18_3304_4941)">
<g opacity="0.15">
<path d="M77.8457 13616.9V14372.5" stroke="#0F1322" stroke-linecap="round"/>
<path d="M190.438 13616.9V14372.5" stroke="#0F1322" stroke-linecap="round"/>
<path d="M303.027 13616.9V14372.5" stroke="#0F1322" stroke-linecap="round"/>
<path d="M415.619 13616.9V14372.5" stroke="#0F1322" stroke-linecap="round"/>
<path d="M528.211 13616.9V14372.5" stroke="#0F1322" stroke-linecap="round"/>
<path d="M640.801 13616.9V14372.5" stroke="#0F1322" stroke-linecap="round"/>
<path d="M753.393 13616.9V14372.5" stroke="#0F1322" stroke-linecap="round"/>
<path d="M865.984 13616.9V14372.5" stroke="#0F1322" stroke-linecap="round"/>
<path d="M978.574 13616.9V14372.5" stroke="#0F1322" stroke-linecap="round"/>
<path d="M1091.17 13616.9V14372.5" stroke="#0F1322" stroke-linecap="round"/>
<path d="M1203.76 13616.9V14372.5" stroke="#0F1322" stroke-linecap="round"/>
<path d="M0.439453 13989H1266.21" stroke="#0F1322" stroke-linecap="round"/>
<path d="M0.439453 14101.6H1266.21" stroke="#0F1322" stroke-linecap="round"/>
<path d="M0.439453 14214.2H1266.21" stroke="#0F1322" stroke-linecap="round"/>
<path d="M0.439453 14326.8H1266.21" stroke="#0F1322" stroke-linecap="round"/>
<path d="M0.439453 13876.4H1266.21" stroke="#0F1322" stroke-linecap="round"/>
<path d="M0.439453 13763.8H1266.21" stroke="#0F1322" stroke-linecap="round"/>
<path d="M0.439453 13651.2L1266.21 13651.2" stroke="#0F1322" stroke-linecap="round"/>
</g>
</g>
<g opacity="0.8" clip-path="url(#clip19_3304_4941)">
<g opacity="0.15">
<path d="M77.8457 14373.4V15129" stroke="#0F1322" stroke-linecap="round"/>
<path d="M190.438 14373.4V15129" stroke="#0F1322" stroke-linecap="round"/>
<path d="M303.027 14373.4V15129" stroke="#0F1322" stroke-linecap="round"/>
<path d="M415.619 14373.4V15129" stroke="#0F1322" stroke-linecap="round"/>
<path d="M528.211 14373.4V15129" stroke="#0F1322" stroke-linecap="round"/>
<path d="M640.801 14373.4V15129" stroke="#0F1322" stroke-linecap="round"/>
<path d="M753.393 14373.4V15129" stroke="#0F1322" stroke-linecap="round"/>
<path d="M865.984 14373.4V15129" stroke="#0F1322" stroke-linecap="round"/>
<path d="M978.574 14373.4V15129" stroke="#0F1322" stroke-linecap="round"/>
<path d="M1091.17 14373.4V15129" stroke="#0F1322" stroke-linecap="round"/>
<path d="M1203.76 14373.4V15129" stroke="#0F1322" stroke-linecap="round"/>
<path d="M0.439453 14745.4H1266.21" stroke="#0F1322" stroke-linecap="round"/>
<path d="M0.439453 14858H1266.21" stroke="#0F1322" stroke-linecap="round"/>
<path d="M0.439453 14970.6H1266.21" stroke="#0F1322" stroke-linecap="round"/>
<path d="M0.439453 15083.2H1266.21" stroke="#0F1322" stroke-linecap="round"/>
<path d="M0.439453 14632.9H1266.21" stroke="#0F1322" stroke-linecap="round"/>
<path d="M0.439453 14520.3H1266.21" stroke="#0F1322" stroke-linecap="round"/>
<path d="M0.439453 14407.7L1266.21 14407.7" stroke="#0F1322" stroke-linecap="round"/>
</g>
</g>
<defs>
<clipPath id="clip0_3304_4941">
<rect width="1266.65" height="756.47" fill="white"/>
</clipPath>
<clipPath id="clip1_3304_4941">
<rect width="1266.65" height="756.47" fill="white" transform="translate(0 756.47)"/>
</clipPath>
<clipPath id="clip2_3304_4941">
<rect width="1266.65" height="756.47" fill="white" transform="translate(0 1512.94)"/>
</clipPath>
<clipPath id="clip3_3304_4941">
<rect width="1266.65" height="756.47" fill="white" transform="translate(0 2269.41)"/>
</clipPath>
<clipPath id="clip4_3304_4941">
<rect width="1266.65" height="756.47" fill="white" transform="translate(0 3025.88)"/>
</clipPath>
<clipPath id="clip5_3304_4941">
<rect width="1266.65" height="756.47" fill="white" transform="translate(0 3782.35)"/>
</clipPath>
<clipPath id="clip6_3304_4941">
<rect width="1266.65" height="756.47" fill="white" transform="translate(0 4538.82)"/>
</clipPath>
<clipPath id="clip7_3304_4941">
<rect width="1266.65" height="756.47" fill="white" transform="translate(0 5295.29)"/>
</clipPath>
<clipPath id="clip8_3304_4941">
<rect width="1266.65" height="756.47" fill="white" transform="translate(0 6051.76)"/>
</clipPath>
<clipPath id="clip9_3304_4941">
<rect width="1266.65" height="756.47" fill="white" transform="translate(0 6808.23)"/>
</clipPath>
<clipPath id="clip10_3304_4941">
<rect width="1266.65" height="756.47" fill="white" transform="translate(0 7564.7)"/>
</clipPath>
<clipPath id="clip11_3304_4941">
<rect width="1266.65" height="756.47" fill="white" transform="translate(0 8321.17)"/>
</clipPath>
<clipPath id="clip12_3304_4941">
<rect width="1266.65" height="756.47" fill="white" transform="translate(0 9077.64)"/>
</clipPath>
<clipPath id="clip13_3304_4941">
<rect width="1266.65" height="756.47" fill="white" transform="translate(0 9834.11)"/>
</clipPath>
<clipPath id="clip14_3304_4941">
<rect width="1266.65" height="756.47" fill="white" transform="translate(0 10590.6)"/>
</clipPath>
<clipPath id="clip15_3304_4941">
<rect width="1266.65" height="756.47" fill="white" transform="translate(0 11347)"/>
</clipPath>
<clipPath id="clip16_3304_4941">
<rect width="1266.65" height="756.47" fill="white" transform="translate(0 12103.5)"/>
</clipPath>
<clipPath id="clip17_3304_4941">
<rect width="1266.65" height="756.47" fill="white" transform="translate(0 12860)"/>
</clipPath>
<clipPath id="clip18_3304_4941">
<rect width="1266.65" height="756.47" fill="white" transform="translate(0 13616.5)"/>
</clipPath>
<clipPath id="clip19_3304_4941">
<rect width="1266.65" height="756.47" fill="white" transform="translate(0 14372.9)"/>
</clipPath>
</defs>
</svg>