<svg width="1440" height="34" viewBox="0 0 1440 34" fill="none" xmlns="http://www.w3.org/2000/svg">
<path d="M-133.562 20.253H-137.234V26H-140.153V9.32913H-133.562C-130.21 9.32913 -128.043 11.5185 -128.043 14.7797C-128.043 17.9952 -130.232 20.253 -133.562 20.253ZM-134.132 11.929H-137.234V17.6532H-134.178C-132.171 17.6532 -131.099 16.5813 -131.099 14.7569C-131.099 12.9324 -132.194 11.929 -134.132 11.929ZM-119.84 14.6884V17.2655H-120.867C-122.874 17.2655 -124.128 18.3373 -124.128 20.5267V26H-126.91V14.7569H-124.288L-124.128 16.3989C-123.649 15.2814 -122.577 14.5288 -121.072 14.5288C-120.684 14.5288 -120.297 14.5744 -119.84 14.6884ZM-119.909 20.3442C-119.909 16.8322 -117.378 14.4148 -113.889 14.4148C-110.4 14.4148 -107.868 16.8322 -107.868 20.3442C-107.868 23.8563 -110.4 26.2737 -113.889 26.2737C-117.378 26.2737 -119.909 23.8563 -119.909 20.3442ZM-117.127 20.3442C-117.127 22.3967 -115.804 23.7879 -113.889 23.7879C-111.973 23.7879 -110.65 22.3967 -110.65 20.3442C-110.65 18.2917 -111.973 16.9006 -113.889 16.9006C-115.804 16.9006 -117.127 18.2917 -117.127 20.3442ZM-101.945 26.2965C-105.207 26.2965 -107.236 23.9019 -107.236 20.4126C-107.236 16.9006 -105.184 14.392 -101.786 14.392C-100.212 14.392 -98.8211 15.0533 -98.1141 16.1708V9.03266H-95.3546V26H-97.9088L-98.0913 24.244C-98.7754 25.5439 -100.235 26.2965 -101.945 26.2965ZM-101.33 23.7422C-99.3912 23.7422 -98.1369 22.3511 -98.1369 20.3214C-98.1369 18.2917 -99.3912 16.8778 -101.33 16.8778C-103.268 16.8778 -104.454 18.3145 -104.454 20.3214C-104.454 22.3283 -103.268 23.7422 -101.33 23.7422ZM-85.7275 14.7341H-82.9452V26H-85.5222L-85.7275 24.4948C-86.4116 25.5667 -87.8712 26.2965 -89.3763 26.2965C-91.9762 26.2965 -93.5042 24.5404 -93.5042 21.781V14.7341H-90.7219V20.8003C-90.7219 22.9441 -89.8781 23.8107 -88.3273 23.8107C-86.5713 23.8107 -85.7275 22.7844 -85.7275 20.6407V14.7341ZM-81.8678 20.3442C-81.8678 16.855 -79.5644 14.392 -76.2348 14.392C-73.1561 14.392 -71.058 16.1024 -70.7615 18.8162H-73.5438C-73.863 17.5391 -74.7981 16.8778 -76.1208 16.8778C-77.8996 16.8778 -79.0855 18.2233 -79.0855 20.3442C-79.0855 22.4651 -77.9908 23.7879 -76.212 23.7879C-74.8209 23.7879 -73.8402 23.1037 -73.5438 21.8722H-70.7387C-71.0808 24.4948 -73.2701 26.2965 -76.212 26.2965C-79.6328 26.2965 -81.8678 23.9247 -81.8678 20.3442ZM-65.7487 26H-68.531V17.0602H-70.6975V14.7341H-68.531V11.222H-65.7487V14.7341H-63.5594V17.0602H-65.7487V26ZM-51.099 26H-57.0969V9.32913H-51.2586C-46.3326 9.32913 -42.9346 12.7272 -42.9346 17.6988C-42.9346 22.602 -46.2642 26 -51.099 26ZM-51.5323 12.0202H-54.1777V23.3089H-51.3727C-48.043 23.3089 -46.0134 21.1652 -46.0134 17.6988C-46.0134 14.1639 -48.0887 12.0202 -51.5323 12.0202ZM-36.4981 26.2965C-39.8505 26.2965 -42.1995 23.8563 -42.1995 20.367C-42.1995 16.8322 -39.8961 14.392 -36.5893 14.392C-33.2141 14.392 -31.0704 16.6497 -31.0704 20.1618V21.0056L-39.554 21.0284C-39.3488 23.0125 -38.2997 24.0159 -36.4525 24.0159C-34.9245 24.0159 -33.9211 23.423 -33.6018 22.3511H-31.0248C-31.5037 24.8141 -33.5562 26.2965 -36.4981 26.2965ZM-36.5665 16.6725C-38.2085 16.6725 -39.212 17.5619 -39.4856 19.2496H-33.8298C-33.8298 17.6988 -34.9017 16.6725 -36.5665 16.6725ZM-30.6224 22.5792H-27.977C-27.9542 23.5598 -27.2244 24.1756 -25.9473 24.1756C-24.6474 24.1756 -23.9404 23.651 -23.9404 22.83C-23.9404 22.2599 -24.2369 21.8494 -25.2403 21.6213L-27.27 21.1424C-29.2997 20.6863 -30.2804 19.7285 -30.2804 17.9268C-30.2804 15.7147 -28.4103 14.392 -25.8105 14.392C-23.2791 14.392 -21.5686 15.8515 -21.5458 18.0409H-24.1913C-24.2141 17.083 -24.8526 16.4673 -25.9245 16.4673C-27.0192 16.4673 -27.6577 16.969 -27.6577 17.8128C-27.6577 18.4514 -27.156 18.8619 -26.1982 19.0899L-24.1685 19.5688C-22.2756 20.0021 -21.3178 20.8687 -21.3178 22.602C-21.3178 24.8825 -23.2563 26.2965 -26.0385 26.2965C-28.8436 26.2965 -30.6224 24.7913 -30.6224 22.5792ZM-18.7204 12.4763C-19.6783 12.4763 -20.4309 11.7237 -20.4309 10.7887C-20.4309 9.85366 -19.6783 9.12388 -18.7204 9.12388C-17.8082 9.12388 -17.0556 9.85366 -17.0556 10.7887C-17.0556 11.7237 -17.8082 12.4763 -18.7204 12.4763ZM-20.1116 26V14.7341H-17.3293V26H-20.1116ZM-16.0055 20.1162C-16.0055 16.8322 -13.8618 14.3692 -10.6462 14.3692C-8.95859 14.3692 -7.63587 15.0761 -6.97451 16.2848L-6.81487 14.7341H-4.23784V25.4299C-4.23784 29.1928 -6.49559 31.5418 -10.1445 31.5418C-13.3829 31.5418 -15.595 29.6945 -15.9371 26.6842H-13.1548C-12.9724 28.1437 -11.8549 29.0103 -10.1445 29.0103C-8.22881 29.0103 -6.99731 27.8016 -6.99731 25.9316V24.0615C-7.70428 25.1106 -9.09542 25.7719 -10.7146 25.7719C-13.9074 25.7719 -16.0055 23.3774 -16.0055 20.1162ZM-13.2004 20.0477C-13.2004 21.9406 -11.9917 23.3546 -10.1673 23.3546C-8.25162 23.3546 -7.06573 22.009 -7.06573 20.0477C-7.06573 18.1321 -8.22881 16.8094 -10.1673 16.8094C-12.0145 16.8094 -13.2004 18.2005 -13.2004 20.0477ZM0.511601 26H-2.27068V14.7341H0.306351L0.534406 16.1936C1.24138 15.0533 2.60971 14.392 4.13769 14.392C6.96558 14.392 8.42513 16.148 8.42513 19.0671V26H5.64285V19.7285C5.64285 17.8356 4.70782 16.9234 3.27107 16.9234C1.56066 16.9234 0.511601 18.1093 0.511601 19.9337V26Z" fill="#292929"/>
<path d="M46.3238 2.8653L50.5284 14.228L61.8912 18.4326L50.5284 22.6372L46.3238 34L42.1192 22.6372L30.7565 18.4326L42.1192 14.228L46.3238 2.8653Z" fill="#D9D9D9"/>
<path d="M84.4948 26V9.32913H91.1313C94.4153 9.32913 96.4221 11.0396 96.4221 13.8218C96.4221 15.6691 95.6011 16.9918 94.0276 17.6532C95.7836 18.2233 96.673 19.546 96.673 21.4845C96.673 24.3352 94.6889 26 91.2453 26H84.4948ZM90.8804 11.9062H87.4139V16.4445H90.9488C92.5452 16.4445 93.4346 15.6007 93.4346 14.1183C93.4346 12.6816 92.5224 11.9062 90.8804 11.9062ZM91.1313 18.9075H87.4139V23.423H91.1313C92.7733 23.423 93.6855 22.6248 93.6855 21.1196C93.6855 19.7057 92.7504 18.9075 91.1313 18.9075ZM105.097 14.6884V17.2655H104.07C102.063 17.2655 100.809 18.3373 100.809 20.5267V26H98.0269V14.7569H100.65L100.809 16.3989C101.288 15.2814 102.36 14.5288 103.865 14.5288C104.253 14.5288 104.641 14.5744 105.097 14.6884ZM108.975 26.2965C106.58 26.2965 105.121 24.9053 105.121 22.7844C105.121 20.7091 106.626 19.4092 109.294 19.2039L112.669 18.9531V18.7022C112.669 17.1742 111.757 16.5585 110.343 16.5585C108.701 16.5585 107.789 17.2427 107.789 18.4286H105.417C105.417 15.9884 107.424 14.392 110.48 14.392C113.513 14.392 115.383 16.034 115.383 19.1583V26H112.943L112.738 24.3352C112.259 25.4983 110.731 26.2965 108.975 26.2965ZM109.887 24.1984C111.597 24.1984 112.692 23.1721 112.692 21.4389V20.8459L110.343 21.0284C108.61 21.188 107.948 21.7582 107.948 22.6704C107.948 23.6966 108.633 24.1984 109.887 24.1984ZM119.986 26H117.204V14.7341H119.781L120.009 16.1936C120.716 15.0533 122.084 14.392 123.612 14.392C126.44 14.392 127.9 16.148 127.9 19.0671V26H125.118V19.7285C125.118 17.8356 124.183 16.9234 122.746 16.9234C121.035 16.9234 119.986 18.1093 119.986 19.9337V26ZM134.351 26.2965C131.09 26.2965 129.06 23.9019 129.06 20.4126C129.06 16.9006 131.112 14.392 134.51 14.392C136.084 14.392 137.475 15.0533 138.182 16.1708V9.03266H140.942V26H138.387L138.205 24.244C137.521 25.5439 136.061 26.2965 134.351 26.2965ZM134.967 23.7422C136.905 23.7422 138.159 22.3511 138.159 20.3214C138.159 18.2917 136.905 16.8778 134.967 16.8778C133.028 16.8778 131.842 18.3145 131.842 20.3214C131.842 22.3283 133.028 23.7422 134.967 23.7422ZM153.249 26L146.955 9.32913H150.056L153.705 18.9303C154.07 19.9337 154.389 20.9144 154.754 22.2599C155.165 20.8003 155.507 19.7741 155.826 18.9303L159.429 9.32913H162.463L156.259 26H153.249ZM164.611 12.4763C163.653 12.4763 162.9 11.7237 162.9 10.7887C162.9 9.85366 163.653 9.12388 164.611 9.12388C165.523 9.12388 166.276 9.85366 166.276 10.7887C166.276 11.7237 165.523 12.4763 164.611 12.4763ZM163.22 26V14.7341H166.002V26H163.22ZM167.098 22.5792H169.743C169.766 23.5598 170.496 24.1756 171.773 24.1756C173.073 24.1756 173.78 23.651 173.78 22.83C173.78 22.2599 173.483 21.8494 172.48 21.6213L170.45 21.1424C168.42 20.6863 167.44 19.7285 167.44 17.9268C167.44 15.7147 169.31 14.392 171.91 14.392C174.441 14.392 176.151 15.8515 176.174 18.0409H173.529C173.506 17.083 172.867 16.4673 171.796 16.4673C170.701 16.4673 170.062 16.969 170.062 17.8128C170.062 18.4514 170.564 18.8619 171.522 19.0899L173.552 19.5688C175.444 20.0021 176.402 20.8687 176.402 22.602C176.402 24.8825 174.464 26.2965 171.682 26.2965C168.876 26.2965 167.098 24.7913 167.098 22.5792ZM185.248 14.7341H188.031V26H185.454L185.248 24.4948C184.564 25.5667 183.105 26.2965 181.599 26.2965C179 26.2965 177.472 24.5404 177.472 21.781V14.7341H180.254V20.8003C180.254 22.9441 181.098 23.8107 182.649 23.8107C184.405 23.8107 185.248 22.7844 185.248 20.6407V14.7341ZM193.345 26.2965C190.95 26.2965 189.49 24.9053 189.49 22.7844C189.49 20.7091 190.996 19.4092 193.664 19.2039L197.039 18.9531V18.7022C197.039 17.1742 196.127 16.5585 194.713 16.5585C193.071 16.5585 192.159 17.2427 192.159 18.4286H189.787C189.787 15.9884 191.794 14.392 194.85 14.392C197.883 14.392 199.753 16.034 199.753 19.1583V26H197.313L197.107 24.3352C196.629 25.4983 195.101 26.2965 193.345 26.2965ZM194.257 24.1984C195.967 24.1984 197.062 23.1721 197.062 21.4389V20.8459L194.713 21.0284C192.98 21.188 192.318 21.7582 192.318 22.6704C192.318 23.6966 193.002 24.1984 194.257 24.1984ZM204.379 26H201.62V9.03266H204.379V26ZM214.95 9.32913V26H212.03V9.32913H214.95ZM221.952 26.2965C218.691 26.2965 216.661 23.9019 216.661 20.4126C216.661 16.9006 218.713 14.392 222.111 14.392C223.685 14.392 225.076 15.0533 225.783 16.1708V9.03266H228.543V26H225.988L225.806 24.244C225.122 25.5439 223.662 26.2965 221.952 26.2965ZM222.568 23.7422C224.506 23.7422 225.76 22.3511 225.76 20.3214C225.76 18.2917 224.506 16.8778 222.568 16.8778C220.629 16.8778 219.443 18.3145 219.443 20.3214C219.443 22.3283 220.629 23.7422 222.568 23.7422ZM235.57 26.2965C232.218 26.2965 229.869 23.8563 229.869 20.367C229.869 16.8322 232.172 14.392 235.479 14.392C238.854 14.392 240.998 16.6497 240.998 20.1618V21.0056L232.514 21.0284C232.719 23.0125 233.768 24.0159 235.616 24.0159C237.144 24.0159 238.147 23.423 238.466 22.3511H241.043C240.564 24.8141 238.512 26.2965 235.57 26.2965ZM235.502 16.6725C233.86 16.6725 232.856 17.5619 232.582 19.2496H238.238C238.238 17.6988 237.166 16.6725 235.502 16.6725ZM245.094 26H242.312V14.7341H244.889L245.117 16.1936C245.824 15.0533 247.193 14.392 248.721 14.392C251.548 14.392 253.008 16.148 253.008 19.0671V26H250.226V19.7285C250.226 17.8356 249.291 16.9234 247.854 16.9234C246.143 16.9234 245.094 18.1093 245.094 19.9337V26ZM258.661 26H255.878V17.0602H253.712V14.7341H255.878V11.222H258.661V14.7341H260.85V17.0602H258.661V26ZM263.059 12.4763C262.101 12.4763 261.348 11.7237 261.348 10.7887C261.348 9.85366 262.101 9.12388 263.059 9.12388C263.971 9.12388 264.723 9.85366 264.723 10.7887C264.723 11.7237 263.971 12.4763 263.059 12.4763ZM261.667 26V14.7341H264.45V26H261.667ZM270.243 26H267.461V17.0602H265.295V14.7341H267.461V11.222H270.243V14.7341H272.433V17.0602H270.243V26ZM272.27 31.2225V28.8963H273.934C275.029 28.8963 275.713 28.6454 276.192 27.3227L276.511 26.4789L271.973 14.7341H274.915L277.811 22.9441L280.867 14.7341H283.741L278.222 28.5086C277.378 30.6067 276.192 31.4733 274.345 31.4733C273.57 31.4733 272.885 31.3821 272.27 31.2225ZM296.052 26H290.054V9.32913H295.892C300.818 9.32913 304.216 12.7272 304.216 17.6988C304.216 22.602 300.887 26 296.052 26ZM295.619 12.0202H292.973V23.3089H295.778C299.108 23.3089 301.138 21.1652 301.138 17.6988C301.138 14.1639 299.062 12.0202 295.619 12.0202ZM310.653 26.2965C307.3 26.2965 304.951 23.8563 304.951 20.367C304.951 16.8322 307.255 14.392 310.562 14.392C313.937 14.392 316.08 16.6497 316.08 20.1618V21.0056L307.597 21.0284C307.802 23.0125 308.851 24.0159 310.698 24.0159C312.226 24.0159 313.23 23.423 313.549 22.3511H316.126C315.647 24.8141 313.595 26.2965 310.653 26.2965ZM310.584 16.6725C308.942 16.6725 307.939 17.5619 307.665 19.2496H313.321C313.321 17.6988 312.249 16.6725 310.584 16.6725ZM316.528 22.5792H319.174C319.197 23.5598 319.926 24.1756 321.204 24.1756C322.503 24.1756 323.21 23.651 323.21 22.83C323.21 22.2599 322.914 21.8494 321.911 21.6213L319.881 21.1424C317.851 20.6863 316.87 19.7285 316.87 17.9268C316.87 15.7147 318.741 14.392 321.34 14.392C323.872 14.392 325.582 15.8515 325.605 18.0409H322.96C322.937 17.083 322.298 16.4673 321.226 16.4673C320.132 16.4673 319.493 16.969 319.493 17.8128C319.493 18.4514 319.995 18.8619 320.953 19.0899L322.982 19.5688C324.875 20.0021 325.833 20.8687 325.833 22.602C325.833 24.8825 323.895 26.2965 321.112 26.2965C318.307 26.2965 316.528 24.7913 316.528 22.5792ZM328.43 12.4763C327.473 12.4763 326.72 11.7237 326.72 10.7887C326.72 9.85366 327.473 9.12388 328.43 9.12388C329.343 9.12388 330.095 9.85366 330.095 10.7887C330.095 11.7237 329.343 12.4763 328.43 12.4763ZM327.039 26V14.7341H329.822V26H327.039ZM331.145 20.1162C331.145 16.8322 333.289 14.3692 336.505 14.3692C338.192 14.3692 339.515 15.0761 340.176 16.2848L340.336 14.7341H342.913V25.4299C342.913 29.1928 340.655 31.5418 337.006 31.5418C333.768 31.5418 331.556 29.6945 331.214 26.6842H333.996C334.178 28.1437 335.296 29.0103 337.006 29.0103C338.922 29.0103 340.154 27.8016 340.154 25.9316V24.0615C339.447 25.1106 338.055 25.7719 336.436 25.7719C333.243 25.7719 331.145 23.3774 331.145 20.1162ZM333.95 20.0477C333.95 21.9406 335.159 23.3546 336.984 23.3546C338.899 23.3546 340.085 22.009 340.085 20.0477C340.085 18.1321 338.922 16.8094 336.984 16.8094C335.136 16.8094 333.95 18.2005 333.95 20.0477ZM347.662 26H344.88V14.7341H347.457L347.685 16.1936C348.392 15.0533 349.761 14.392 351.289 14.392C354.116 14.392 355.576 16.148 355.576 19.0671V26H352.794V19.7285C352.794 17.8356 351.859 16.9234 350.422 16.9234C348.712 16.9234 347.662 18.1093 347.662 19.9337V26Z" fill="#292929"/>
<path d="M393.971 2.8653L398.176 14.228L409.539 18.4326L398.176 22.6372L393.971 34L389.767 22.6372L378.404 18.4326L389.767 14.228L393.971 2.8653Z" fill="#D9D9D9"/>
<path d="M432.142 26V9.32913H438.779C442.063 9.32913 444.07 11.0396 444.07 13.8218C444.07 15.6691 443.249 16.9918 441.675 17.6532C443.431 18.2233 444.321 19.546 444.321 21.4845C444.321 24.3352 442.337 26 438.893 26H432.142ZM438.528 11.9062H435.062V16.4445H438.596C440.193 16.4445 441.082 15.6007 441.082 14.1183C441.082 12.6816 440.17 11.9062 438.528 11.9062ZM438.779 18.9075H435.062V23.423H438.779C440.421 23.423 441.333 22.6248 441.333 21.1196C441.333 19.7057 440.398 18.9075 438.779 18.9075ZM452.744 14.6884V17.2655H451.718C449.711 17.2655 448.457 18.3373 448.457 20.5267V26H445.674V14.7569H448.297L448.457 16.3989C448.936 15.2814 450.008 14.5288 451.513 14.5288C451.9 14.5288 452.288 14.5744 452.744 14.6884ZM456.622 26.2965C454.228 26.2965 452.768 24.9053 452.768 22.7844C452.768 20.7091 454.273 19.4092 456.942 19.2039L460.317 18.9531V18.7022C460.317 17.1742 459.405 16.5585 457.991 16.5585C456.349 16.5585 455.436 17.2427 455.436 18.4286H453.065C453.065 15.9884 455.071 14.392 458.127 14.392C461.161 14.392 463.031 16.034 463.031 19.1583V26H460.59L460.385 24.3352C459.906 25.4983 458.378 26.2965 456.622 26.2965ZM457.534 24.1984C459.245 24.1984 460.34 23.1721 460.34 21.4389V20.8459L457.991 21.0284C456.257 21.188 455.596 21.7582 455.596 22.6704C455.596 23.6966 456.28 24.1984 457.534 24.1984ZM467.634 26H464.852V14.7341H467.429L467.657 16.1936C468.364 15.0533 469.732 14.392 471.26 14.392C474.088 14.392 475.547 16.148 475.547 19.0671V26H472.765V19.7285C472.765 17.8356 471.83 16.9234 470.393 16.9234C468.683 16.9234 467.634 18.1093 467.634 19.9337V26ZM481.998 26.2965C478.737 26.2965 476.708 23.9019 476.708 20.4126C476.708 16.9006 478.76 14.392 482.158 14.392C483.732 14.392 485.123 15.0533 485.83 16.1708V9.03266H488.589V26H486.035L485.853 24.244C485.168 25.5439 483.709 26.2965 481.998 26.2965ZM482.614 23.7422C484.553 23.7422 485.807 22.3511 485.807 20.3214C485.807 18.2917 484.553 16.8778 482.614 16.8778C480.676 16.8778 479.49 18.3145 479.49 20.3214C479.49 22.3283 480.676 23.7422 482.614 23.7422ZM495.264 13.9815C495.264 11.0624 497.681 9.03266 501.193 9.03266C504.568 9.03266 506.712 10.9027 506.803 13.9131H503.884C503.816 12.4763 502.79 11.6325 501.148 11.6325C499.346 11.6325 498.183 12.4991 498.183 13.8902C498.183 15.0761 498.821 15.7375 500.213 16.0568L502.835 16.6269C505.686 17.2427 507.077 18.7022 507.077 21.188C507.077 24.2896 504.66 26.2965 500.988 26.2965C497.43 26.2965 495.104 24.4036 495.036 21.4161H497.955C497.978 22.83 499.118 23.6738 500.988 23.6738C502.926 23.6738 504.158 22.83 504.158 21.4389C504.158 20.3214 503.588 19.6601 502.219 19.3636L499.574 18.7706C496.746 18.1549 495.264 16.5357 495.264 13.9815ZM512.226 26H509.444V17.0602H507.278V14.7341H509.444V11.222H512.226V14.7341H514.416V17.0602H512.226V26ZM522.303 14.6884V17.2655H521.277C519.27 17.2655 518.016 18.3373 518.016 20.5267V26H515.233V14.7569H517.856L518.016 16.3989C518.494 15.2814 519.566 14.5288 521.071 14.5288C521.459 14.5288 521.847 14.5744 522.303 14.6884ZM526.181 26.2965C523.786 26.2965 522.327 24.9053 522.327 22.7844C522.327 20.7091 523.832 19.4092 526.5 19.2039L529.875 18.9531V18.7022C529.875 17.1742 528.963 16.5585 527.549 16.5585C525.907 16.5585 524.995 17.2427 524.995 18.4286H522.623C522.623 15.9884 524.63 14.392 527.686 14.392C530.719 14.392 532.589 16.034 532.589 19.1583V26H530.149L529.944 24.3352C529.465 25.4983 527.937 26.2965 526.181 26.2965ZM527.093 24.1984C528.804 24.1984 529.898 23.1721 529.898 21.4389V20.8459L527.549 21.0284C525.816 21.188 525.155 21.7582 525.155 22.6704C525.155 23.6966 525.839 24.1984 527.093 24.1984ZM538.086 26H535.304V17.0602H533.137V14.7341H535.304V11.222H538.086V14.7341H540.275V17.0602H538.086V26ZM546.021 26.2965C542.669 26.2965 540.32 23.8563 540.32 20.367C540.32 16.8322 542.623 14.392 545.93 14.392C549.305 14.392 551.449 16.6497 551.449 20.1618V21.0056L542.965 21.0284C543.171 23.0125 544.22 24.0159 546.067 24.0159C547.595 24.0159 548.598 23.423 548.918 22.3511H551.495C551.016 24.8141 548.963 26.2965 546.021 26.2965ZM545.953 16.6725C544.311 16.6725 543.307 17.5619 543.034 19.2496H548.69C548.69 17.6988 547.618 16.6725 545.953 16.6725ZM552.125 20.1162C552.125 16.8322 554.269 14.3692 557.484 14.3692C559.172 14.3692 560.495 15.0761 561.156 16.2848L561.316 14.7341H563.893V25.4299C563.893 29.1928 561.635 31.5418 557.986 31.5418C554.748 31.5418 552.535 29.6945 552.193 26.6842H554.976C555.158 28.1437 556.276 29.0103 557.986 29.0103C559.902 29.0103 561.133 27.8016 561.133 25.9316V24.0615C560.426 25.1106 559.035 25.7719 557.416 25.7719C554.223 25.7719 552.125 23.3774 552.125 20.1162ZM554.93 20.0477C554.93 21.9406 556.139 23.3546 557.963 23.3546C559.879 23.3546 561.065 22.009 561.065 20.0477C561.065 18.1321 559.902 16.8094 557.963 16.8094C556.116 16.8094 554.93 18.2005 554.93 20.0477ZM564.879 31.2225V28.8963H566.544C567.639 28.8963 568.323 28.6454 568.802 27.3227L569.121 26.4789L564.583 14.7341H567.525L570.421 22.9441L573.477 14.7341H576.35L570.831 28.5086C569.988 30.6067 568.802 31.4733 566.954 31.4733C566.179 31.4733 565.495 31.3821 564.879 31.2225Z" fill="#292929"/>
<path d="M613.619 2.8653L617.824 14.228L629.186 18.4326L617.824 22.6372L613.619 34L609.415 22.6372L598.052 18.4326L609.415 14.228L613.619 2.8653Z" fill="#D9D9D9"/>
<path d="M654.618 26H651.79V9.32913H654.618L660 22.602L665.382 9.32913H668.256V26H665.428V20.8687C665.428 17.5163 665.428 16.5357 665.587 15.3498L661.346 26H658.655L654.436 15.3726C654.595 16.3761 654.618 17.9496 654.618 20.0249V26ZM669.961 20.3442C669.961 16.8322 672.493 14.4148 675.982 14.4148C679.471 14.4148 682.003 16.8322 682.003 20.3442C682.003 23.8563 679.471 26.2737 675.982 26.2737C672.493 26.2737 669.961 23.8563 669.961 20.3442ZM672.744 20.3442C672.744 22.3967 674.066 23.7879 675.982 23.7879C677.898 23.7879 679.22 22.3967 679.22 20.3442C679.22 18.2917 677.898 16.9006 675.982 16.9006C674.066 16.9006 672.744 18.2917 672.744 20.3442ZM685.873 26H683.296V9.03266H686.078V16.3761C686.808 15.1217 688.313 14.3692 690.023 14.3692C693.239 14.3692 695.2 16.8778 695.2 20.4354C695.2 23.9019 693.079 26.2965 689.841 26.2965C688.153 26.2965 686.717 25.5439 686.055 24.244L685.873 26ZM686.101 20.3214C686.101 22.3511 687.355 23.7422 689.271 23.7422C691.232 23.7422 692.395 22.3283 692.395 20.3214C692.395 18.3145 691.232 16.8778 689.271 16.8778C687.355 16.8778 686.101 18.2917 686.101 20.3214ZM697.895 12.4763C696.937 12.4763 696.184 11.7237 696.184 10.7887C696.184 9.85366 696.937 9.12388 697.895 9.12388C698.807 9.12388 699.559 9.85366 699.559 10.7887C699.559 11.7237 698.807 12.4763 697.895 12.4763ZM696.503 26V14.7341H699.286V26H696.503ZM704.053 26H701.294V9.03266H704.053V26ZM711.1 26.2965C707.747 26.2965 705.398 23.8563 705.398 20.367C705.398 16.8322 707.702 14.392 711.008 14.392C714.384 14.392 716.527 16.6497 716.527 20.1618V21.0056L708.044 21.0284C708.249 23.0125 709.298 24.0159 711.145 24.0159C712.673 24.0159 713.677 23.423 713.996 22.3511H716.573C716.094 24.8141 714.041 26.2965 711.1 26.2965ZM711.031 16.6725C709.389 16.6725 708.386 17.5619 708.112 19.2496H713.768C713.768 17.6988 712.696 16.6725 711.031 16.6725ZM724.924 26H721.89L727.911 9.32913H730.899L736.919 26H733.841L732.495 22.1459H726.269L724.924 26ZM729.029 14.3007L727.136 19.6829H731.651L729.736 14.3007C729.599 13.8674 729.439 13.3657 729.394 13.0236C729.325 13.3429 729.188 13.8446 729.029 14.3007ZM737.687 31.2225V14.7341H740.264L740.447 16.4445C741.131 15.1446 742.613 14.392 744.324 14.392C747.493 14.392 749.592 16.6953 749.592 20.2302C749.592 23.7422 747.676 26.2965 744.324 26.2965C742.636 26.2965 741.176 25.6351 740.469 24.4948V31.2225H737.687ZM740.492 20.367C740.492 22.3967 741.746 23.7879 743.662 23.7879C745.623 23.7879 746.787 22.3739 746.787 20.367C746.787 18.3601 745.623 16.9234 743.662 16.9234C741.746 16.9234 740.492 18.3373 740.492 20.367ZM750.895 31.2225V14.7341H753.472L753.654 16.4445C754.338 15.1446 755.821 14.392 757.531 14.392C760.701 14.392 762.799 16.6953 762.799 20.2302C762.799 23.7422 760.884 26.2965 757.531 26.2965C755.844 26.2965 754.384 25.6351 753.677 24.4948V31.2225H750.895ZM753.7 20.367C753.7 22.3967 754.954 23.7879 756.87 23.7879C758.831 23.7879 759.994 22.3739 759.994 20.367C759.994 18.3601 758.831 16.9234 756.87 16.9234C754.954 16.9234 753.7 18.3373 753.7 20.367Z" fill="#292929"/>
<path d="M800.267 2.8653L804.471 14.228L815.834 18.4326L804.471 22.6372L800.267 34L796.062 22.6372L784.699 18.4326L796.062 14.228L800.267 2.8653Z" fill="#D9D9D9"/>
<path d="M841.904 26L836.933 9.32913H839.966L842.611 18.1321C842.862 19.0443 843.113 19.9793 843.364 21.4389C843.637 19.9565 843.888 19.0899 844.185 18.1321L846.807 9.32913H850.023L852.6 18.1321C852.874 19.0671 853.125 20.0249 853.398 21.4389C853.718 19.8881 853.946 18.9987 854.196 18.1549L856.888 9.32913H859.852L854.789 26H851.962L848.404 13.8674L844.778 26H841.904ZM864.137 26.2965C860.784 26.2965 858.435 23.8563 858.435 20.367C858.435 16.8322 860.739 14.392 864.045 14.392C867.421 14.392 869.564 16.6497 869.564 20.1618V21.0056L861.081 21.0284C861.286 23.0125 862.335 24.0159 864.182 24.0159C865.71 24.0159 866.714 23.423 867.033 22.3511H869.61C869.131 24.8141 867.079 26.2965 864.137 26.2965ZM864.068 16.6725C862.426 16.6725 861.423 17.5619 861.149 19.2496H866.805C866.805 17.6988 865.733 16.6725 864.068 16.6725ZM873.456 26H870.879V9.03266H873.661V16.3761C874.391 15.1217 875.896 14.3692 877.607 14.3692C880.822 14.3692 882.783 16.8778 882.783 20.4354C882.783 23.9019 880.663 26.2965 877.424 26.2965C875.737 26.2965 874.3 25.5439 873.638 24.244L873.456 26ZM873.684 20.3214C873.684 22.3511 874.938 23.7422 876.854 23.7422C878.815 23.7422 879.978 22.3283 879.978 20.3214C879.978 18.3145 878.815 16.8778 876.854 16.8778C874.938 16.8778 873.684 18.2917 873.684 20.3214ZM883.22 22.5792H885.865C885.888 23.5598 886.618 24.1756 887.895 24.1756C889.195 24.1756 889.902 23.651 889.902 22.83C889.902 22.2599 889.605 21.8494 888.602 21.6213L886.572 21.1424C884.543 20.6863 883.562 19.7285 883.562 17.9268C883.562 15.7147 885.432 14.392 888.032 14.392C890.563 14.392 892.274 15.8515 892.297 18.0409H889.651C889.628 17.083 888.99 16.4673 887.918 16.4673C886.823 16.4673 886.185 16.969 886.185 17.8128C886.185 18.4514 886.686 18.8619 887.644 19.0899L889.674 19.5688C891.567 20.0021 892.525 20.8687 892.525 22.602C892.525 24.8825 890.586 26.2965 887.804 26.2965C884.999 26.2965 883.22 24.7913 883.22 22.5792ZM895.122 12.4763C894.164 12.4763 893.412 11.7237 893.412 10.7887C893.412 9.85366 894.164 9.12388 895.122 9.12388C896.034 9.12388 896.787 9.85366 896.787 10.7887C896.787 11.7237 896.034 12.4763 895.122 12.4763ZM893.731 26V14.7341H896.513V26H893.731ZM902.307 26H899.524V17.0602H897.358V14.7341H899.524V11.222H902.307V14.7341H904.496V17.0602H902.307V26ZM910.242 26.2965C906.89 26.2965 904.541 23.8563 904.541 20.367C904.541 16.8322 906.844 14.392 910.151 14.392C913.526 14.392 915.67 16.6497 915.67 20.1618V21.0056L907.186 21.0284C907.392 23.0125 908.441 24.0159 910.288 24.0159C911.816 24.0159 912.819 23.423 913.139 22.3511H915.716C915.237 24.8141 913.184 26.2965 910.242 26.2965ZM910.174 16.6725C908.532 16.6725 907.528 17.5619 907.255 19.2496H912.91C912.91 17.6988 911.839 16.6725 910.174 16.6725ZM928.627 26H922.63V9.32913H928.468C933.394 9.32913 936.792 12.7272 936.792 17.6988C936.792 22.602 933.462 26 928.627 26ZM928.194 12.0202H925.549V23.3089H928.354C931.683 23.3089 933.713 21.1652 933.713 17.6988C933.713 14.1639 931.638 12.0202 928.194 12.0202ZM943.228 26.2965C939.876 26.2965 937.527 23.8563 937.527 20.367C937.527 16.8322 939.83 14.392 943.137 14.392C946.512 14.392 948.656 16.6497 948.656 20.1618V21.0056L940.172 21.0284C940.378 23.0125 941.427 24.0159 943.274 24.0159C944.802 24.0159 945.805 23.423 946.125 22.3511H948.702C948.223 24.8141 946.17 26.2965 943.228 26.2965ZM943.16 16.6725C941.518 16.6725 940.514 17.5619 940.241 19.2496H945.897C945.897 17.6988 944.825 16.6725 943.16 16.6725ZM949.104 22.5792H951.749C951.772 23.5598 952.502 24.1756 953.779 24.1756C955.079 24.1756 955.786 23.651 955.786 22.83C955.786 22.2599 955.49 21.8494 954.486 21.6213L952.456 21.1424C950.427 20.6863 949.446 19.7285 949.446 17.9268C949.446 15.7147 951.316 14.392 953.916 14.392C956.447 14.392 958.158 15.8515 958.181 18.0409H955.535C955.512 17.083 954.874 16.4673 953.802 16.4673C952.707 16.4673 952.069 16.969 952.069 17.8128C952.069 18.4514 952.57 18.8619 953.528 19.0899L955.558 19.5688C957.451 20.0021 958.409 20.8687 958.409 22.602C958.409 24.8825 956.47 26.2965 953.688 26.2965C950.883 26.2965 949.104 24.7913 949.104 22.5792ZM961.006 12.4763C960.048 12.4763 959.296 11.7237 959.296 10.7887C959.296 9.85366 960.048 9.12388 961.006 9.12388C961.918 9.12388 962.671 9.85366 962.671 10.7887C962.671 11.7237 961.918 12.4763 961.006 12.4763ZM959.615 26V14.7341H962.397V26H959.615ZM963.721 20.1162C963.721 16.8322 965.865 14.3692 969.08 14.3692C970.768 14.3692 972.091 15.0761 972.752 16.2848L972.912 14.7341H975.489V25.4299C975.489 29.1928 973.231 31.5418 969.582 31.5418C966.344 31.5418 964.131 29.6945 963.789 26.6842H966.572C966.754 28.1437 967.871 29.0103 969.582 29.0103C971.498 29.0103 972.729 27.8016 972.729 25.9316V24.0615C972.022 25.1106 970.631 25.7719 969.012 25.7719C965.819 25.7719 963.721 23.3774 963.721 20.1162ZM966.526 20.0477C966.526 21.9406 967.735 23.3546 969.559 23.3546C971.475 23.3546 972.661 22.009 972.661 20.0477C972.661 18.1321 971.498 16.8094 969.559 16.8094C967.712 16.8094 966.526 18.2005 966.526 20.0477ZM980.238 26H977.456V14.7341H980.033L980.261 16.1936C980.968 15.0533 982.336 14.392 983.864 14.392C986.692 14.392 988.152 16.148 988.152 19.0671V26H985.369V19.7285C985.369 17.8356 984.434 16.9234 982.997 16.9234C981.287 16.9234 980.238 18.1093 980.238 19.9337V26Z" fill="#292929"/>
<path d="M1025.91 2.8653L1030.12 14.228L1041.48 18.4326L1030.12 22.6372L1025.91 34L1021.71 22.6372L1010.35 18.4326L1021.71 14.228L1025.91 2.8653Z" fill="#D9D9D9"/>
<path d="M1067 9.32913V23.3089H1073.98V26H1064.09V9.32913H1067ZM1078.39 26.2965C1075.99 26.2965 1074.53 24.9053 1074.53 22.7844C1074.53 20.7091 1076.04 19.4092 1078.71 19.2039L1082.08 18.9531V18.7022C1082.08 17.1742 1081.17 16.5585 1079.75 16.5585C1078.11 16.5585 1077.2 17.2427 1077.2 18.4286H1074.83C1074.83 15.9884 1076.84 14.392 1079.89 14.392C1082.92 14.392 1084.79 16.034 1084.79 19.1583V26H1082.35L1082.15 24.3352C1081.67 25.4983 1080.14 26.2965 1078.39 26.2965ZM1079.3 24.1984C1081.01 24.1984 1082.1 23.1721 1082.1 21.4389V20.8459L1079.75 21.0284C1078.02 21.188 1077.36 21.7582 1077.36 22.6704C1077.36 23.6966 1078.04 24.1984 1079.3 24.1984ZM1089.4 26H1086.62V14.7341H1089.19L1089.42 16.1936C1090.13 15.0533 1091.5 14.392 1093.02 14.392C1095.85 14.392 1097.31 16.148 1097.31 19.0671V26H1094.53V19.7285C1094.53 17.8356 1093.59 16.9234 1092.16 16.9234C1090.45 16.9234 1089.4 18.1093 1089.4 19.9337V26ZM1103.76 26.2965C1100.5 26.2965 1098.47 23.9019 1098.47 20.4126C1098.47 16.9006 1100.52 14.392 1103.92 14.392C1105.5 14.392 1106.89 15.0533 1107.59 16.1708V9.03266H1110.35V26H1107.8L1107.62 24.244C1106.93 25.5439 1105.47 26.2965 1103.76 26.2965ZM1104.38 23.7422C1106.32 23.7422 1107.57 22.3511 1107.57 20.3214C1107.57 18.2917 1106.32 16.8778 1104.38 16.8778C1102.44 16.8778 1101.25 18.3145 1101.25 20.3214C1101.25 22.3283 1102.44 23.7422 1104.38 23.7422ZM1113.73 12.4763C1112.77 12.4763 1112.02 11.7237 1112.02 10.7887C1112.02 9.85366 1112.77 9.12388 1113.73 9.12388C1114.64 9.12388 1115.4 9.85366 1115.4 10.7887C1115.4 11.7237 1114.64 12.4763 1113.73 12.4763ZM1112.34 26V14.7341H1115.12V26H1112.34ZM1119.87 26H1117.09V14.7341H1119.66L1119.89 16.1936C1120.6 15.0533 1121.97 14.392 1123.49 14.392C1126.32 14.392 1127.78 16.148 1127.78 19.0671V26H1125V19.7285C1125 17.8356 1124.06 16.9234 1122.63 16.9234C1120.92 16.9234 1119.87 18.1093 1119.87 19.9337V26ZM1128.96 20.1162C1128.96 16.8322 1131.11 14.3692 1134.32 14.3692C1136.01 14.3692 1137.33 15.0761 1137.99 16.2848L1138.15 14.7341H1140.73V25.4299C1140.73 29.1928 1138.47 31.5418 1134.82 31.5418C1131.59 31.5418 1129.37 29.6945 1129.03 26.6842H1131.81C1132 28.1437 1133.11 29.0103 1134.82 29.0103C1136.74 29.0103 1137.97 27.8016 1137.97 25.9316V24.0615C1137.27 25.1106 1135.87 25.7719 1134.25 25.7719C1131.06 25.7719 1128.96 23.3774 1128.96 20.1162ZM1131.77 20.0477C1131.77 21.9406 1132.98 23.3546 1134.8 23.3546C1136.72 23.3546 1137.9 22.009 1137.9 20.0477C1137.9 18.1321 1136.74 16.8094 1134.8 16.8094C1132.95 16.8094 1131.77 18.2005 1131.77 20.0477ZM1154.93 20.253H1151.26V26H1148.34V9.32913H1154.93C1158.29 9.32913 1160.45 11.5185 1160.45 14.7797C1160.45 17.9952 1158.26 20.253 1154.93 20.253ZM1154.36 11.929H1151.26V17.6532H1154.32C1156.33 17.6532 1157.4 16.5813 1157.4 14.7569C1157.4 12.9324 1156.3 11.929 1154.36 11.929ZM1164.49 26.2965C1162.1 26.2965 1160.64 24.9053 1160.64 22.7844C1160.64 20.7091 1162.14 19.4092 1164.81 19.2039L1168.19 18.9531V18.7022C1168.19 17.1742 1167.28 16.5585 1165.86 16.5585C1164.22 16.5585 1163.31 17.2427 1163.31 18.4286H1160.94C1160.94 15.9884 1162.94 14.392 1166 14.392C1169.03 14.392 1170.9 16.034 1170.9 19.1583V26H1168.46L1168.26 24.3352C1167.78 25.4983 1166.25 26.2965 1164.49 26.2965ZM1165.41 24.1984C1167.12 24.1984 1168.21 23.1721 1168.21 21.4389V20.8459L1165.86 21.0284C1164.13 21.188 1163.47 21.7582 1163.47 22.6704C1163.47 23.6966 1164.15 24.1984 1165.41 24.1984ZM1172.08 20.1162C1172.08 16.8322 1174.23 14.3692 1177.44 14.3692C1179.13 14.3692 1180.45 15.0761 1181.12 16.2848L1181.27 14.7341H1183.85V25.4299C1183.85 29.1928 1181.59 31.5418 1177.95 31.5418C1174.71 31.5418 1172.49 29.6945 1172.15 26.6842H1174.93C1175.12 28.1437 1176.23 29.0103 1177.95 29.0103C1179.86 29.0103 1181.09 27.8016 1181.09 25.9316V24.0615C1180.39 25.1106 1178.99 25.7719 1177.38 25.7719C1174.18 25.7719 1172.08 23.3774 1172.08 20.1162ZM1174.89 20.0477C1174.89 21.9406 1176.1 23.3546 1177.92 23.3546C1179.84 23.3546 1181.02 22.009 1181.02 20.0477C1181.02 18.1321 1179.86 16.8094 1177.92 16.8094C1176.08 16.8094 1174.89 18.2005 1174.89 20.0477ZM1190.86 26.2965C1187.51 26.2965 1185.16 23.8563 1185.16 20.367C1185.16 16.8322 1187.46 14.392 1190.77 14.392C1194.14 14.392 1196.29 16.6497 1196.29 20.1618V21.0056L1187.8 21.0284C1188.01 23.0125 1189.06 24.0159 1190.9 24.0159C1192.43 24.0159 1193.44 23.423 1193.76 22.3511H1196.33C1195.85 24.8141 1193.8 26.2965 1190.86 26.2965ZM1190.79 16.6725C1189.15 16.6725 1188.15 17.5619 1187.87 19.2496H1193.53C1193.53 17.6988 1192.46 16.6725 1190.79 16.6725Z" fill="#292929"/>
<path d="M1233.56 2.8653L1237.77 14.228L1249.13 18.4326L1237.77 22.6372L1233.56 34L1229.36 22.6372L1217.99 18.4326L1229.36 14.228L1233.56 2.8653Z" fill="#D9D9D9"/>
<path d="M1274.65 9.32913V23.3089H1281.63V26H1271.73V9.32913H1274.65ZM1281.8 20.3442C1281.8 16.8322 1284.33 14.4148 1287.82 14.4148C1291.31 14.4148 1293.84 16.8322 1293.84 20.3442C1293.84 23.8563 1291.31 26.2737 1287.82 26.2737C1284.33 26.2737 1281.8 23.8563 1281.8 20.3442ZM1284.58 20.3442C1284.58 22.3967 1285.9 23.7879 1287.82 23.7879C1289.73 23.7879 1291.06 22.3967 1291.06 20.3442C1291.06 18.2917 1289.73 16.9006 1287.82 16.9006C1285.9 16.9006 1284.58 18.2917 1284.58 20.3442ZM1294.49 20.1162C1294.49 16.8322 1296.64 14.3692 1299.85 14.3692C1301.54 14.3692 1302.86 15.0761 1303.52 16.2848L1303.68 14.7341H1306.26V25.4299C1306.26 29.1928 1304 31.5418 1300.35 31.5418C1297.12 31.5418 1294.9 29.6945 1294.56 26.6842H1297.34C1297.53 28.1437 1298.64 29.0103 1300.35 29.0103C1302.27 29.0103 1303.5 27.8016 1303.5 25.9316V24.0615C1302.79 25.1106 1301.4 25.7719 1299.78 25.7719C1296.59 25.7719 1294.49 23.3774 1294.49 20.1162ZM1297.3 20.0477C1297.3 21.9406 1298.51 23.3546 1300.33 23.3546C1302.25 23.3546 1303.43 22.009 1303.43 20.0477C1303.43 18.1321 1302.27 16.8094 1300.33 16.8094C1298.48 16.8094 1297.3 18.2005 1297.3 20.0477ZM1307.57 20.3442C1307.57 16.8322 1310.1 14.4148 1313.59 14.4148C1317.08 14.4148 1319.61 16.8322 1319.61 20.3442C1319.61 23.8563 1317.08 26.2737 1313.59 26.2737C1310.1 26.2737 1307.57 23.8563 1307.57 20.3442ZM1310.35 20.3442C1310.35 22.3967 1311.67 23.7879 1313.59 23.7879C1315.5 23.7879 1316.83 22.3967 1316.83 20.3442C1316.83 18.2917 1315.5 16.9006 1313.59 16.9006C1311.67 16.9006 1310.35 18.2917 1310.35 20.3442ZM1332.54 26H1326.55V9.32913H1332.38C1337.31 9.32913 1340.71 12.7272 1340.71 17.6988C1340.71 22.602 1337.38 26 1332.54 26ZM1332.11 12.0202H1329.47V23.3089H1332.27C1335.6 23.3089 1337.63 21.1652 1337.63 17.6988C1337.63 14.1639 1335.55 12.0202 1332.11 12.0202ZM1347.15 26.2965C1343.79 26.2965 1341.44 23.8563 1341.44 20.367C1341.44 16.8322 1343.75 14.392 1347.05 14.392C1350.43 14.392 1352.57 16.6497 1352.57 20.1618V21.0056L1344.09 21.0284C1344.29 23.0125 1345.34 24.0159 1347.19 24.0159C1348.72 24.0159 1349.72 23.423 1350.04 22.3511H1352.62C1352.14 24.8141 1350.09 26.2965 1347.15 26.2965ZM1347.08 16.6725C1345.43 16.6725 1344.43 17.5619 1344.16 19.2496H1349.81C1349.81 17.6988 1348.74 16.6725 1347.08 16.6725ZM1353.02 22.5792H1355.67C1355.69 23.5598 1356.42 24.1756 1357.7 24.1756C1359 24.1756 1359.7 23.651 1359.7 22.83C1359.7 22.2599 1359.41 21.8494 1358.4 21.6213L1356.37 21.1424C1354.34 20.6863 1353.36 19.7285 1353.36 17.9268C1353.36 15.7147 1355.23 14.392 1357.83 14.392C1360.36 14.392 1362.07 15.8515 1362.1 18.0409H1359.45C1359.43 17.083 1358.79 16.4673 1357.72 16.4673C1356.62 16.4673 1355.99 16.969 1355.99 17.8128C1355.99 18.4514 1356.49 18.8619 1357.45 19.0899L1359.47 19.5688C1361.37 20.0021 1362.33 20.8687 1362.33 22.602C1362.33 24.8825 1360.39 26.2965 1357.6 26.2965C1354.8 26.2965 1353.02 24.7913 1353.02 22.5792ZM1364.92 12.4763C1363.96 12.4763 1363.21 11.7237 1363.21 10.7887C1363.21 9.85366 1363.96 9.12388 1364.92 9.12388C1365.84 9.12388 1366.59 9.85366 1366.59 10.7887C1366.59 11.7237 1365.84 12.4763 1364.92 12.4763ZM1363.53 26V14.7341L1366.31 14.7341V26H1363.53ZM1367.64 20.1162C1367.64 16.8322 1369.78 14.3692 1373 14.3692C1374.68 14.3692 1376.01 15.0761 1376.67 16.2848L1376.83 14.7341H1379.41V25.4299C1379.41 29.1928 1377.15 31.5418 1373.5 31.5418C1370.26 31.5418 1368.05 29.6945 1367.71 26.6842H1370.49C1370.67 28.1437 1371.79 29.0103 1373.5 29.0103C1375.41 29.0103 1376.65 27.8016 1376.65 25.9316V24.0615C1375.94 25.1106 1374.55 25.7719 1372.93 25.7719C1369.74 25.7719 1367.64 23.3774 1367.64 20.1162ZM1370.44 20.0477C1370.44 21.9406 1371.65 23.3546 1373.48 23.3546C1375.39 23.3546 1376.58 22.009 1376.58 20.0477C1376.58 18.1321 1375.41 16.8094 1373.48 16.8094C1371.63 16.8094 1370.44 18.2005 1370.44 20.0477ZM1384.15 26H1381.37V14.7341H1383.95L1384.18 16.1936C1384.88 15.0533 1386.25 14.392 1387.78 14.392C1390.61 14.392 1392.07 16.148 1392.07 19.0671V26H1389.29V19.7285C1389.29 17.8356 1388.35 16.9234 1386.91 16.9234C1385.2 16.9234 1384.15 18.1093 1384.15 19.9337V26Z" fill="#292929"/>
<path d="M1430.21 2.8653L1434.41 14.228L1445.78 18.4326L1434.41 22.6372L1430.21 34L1426 22.6372L1414.64 18.4326L1426 14.228L1430.21 2.8653Z" fill="#D9D9D9"/>
</svg>
