<svg width="2518" height="34" viewBox="0 0 2518 34" fill="none" xmlns="http://www.w3.org/2000/svg">
<path d="M15.5673 2.8653L19.7719 14.228L31.1347 18.4326L19.7719 22.6372L15.5673 34L11.3627 22.6372L0 18.4326L11.3627 14.228L15.5673 2.8653Z" fill="#D9D9D9"/>
<path d="M56.6575 9.32913V26H53.7384V9.32913H56.6575ZM61.8124 26H59.0301V14.7341H61.6072L61.8352 16.1936C62.5422 15.0533 63.9105 14.392 65.4385 14.392C68.2664 14.392 69.726 16.148 69.726 19.0671V26H66.9437V19.7285C66.9437 17.8356 66.0086 16.9234 64.5719 16.9234C62.8615 16.9234 61.8124 18.1093 61.8124 19.9337V26ZM75.3787 26H72.5964V17.0602H70.4299V14.7341H72.5964V11.222H75.3787V14.7341H77.568V17.0602H75.3787V26ZM80.8713 26L77.2224 14.7341H80.1187L81.6011 19.5688C81.8519 20.4582 82.08 21.4389 82.2852 22.4879C82.4905 21.3933 82.6957 20.6863 83.0606 19.5688L84.6114 14.7341H87.4393L88.9444 19.5688C89.0813 20.0249 89.5374 21.7126 89.6742 22.4651C89.8567 21.6213 90.2216 20.2758 90.4268 19.5688L91.932 14.7341H94.8739L90.9741 26H88.3743L86.8235 21.1196C86.3674 19.6372 86.1166 18.5654 86.0253 17.9952C85.9113 18.5198 85.7061 19.318 85.1359 21.1652L83.5851 26H80.8713ZM97.0376 12.4763C96.0797 12.4763 95.3272 11.7237 95.3272 10.7887C95.3272 9.85366 96.0797 9.12388 97.0376 9.12388C97.9498 9.12388 98.7024 9.85366 98.7024 10.7887C98.7024 11.7237 97.9498 12.4763 97.0376 12.4763ZM95.6464 26V14.7341H98.4287V26H95.6464ZM104.222 26H101.44V17.0602H99.2736V14.7341H101.44V11.222H104.222V14.7341H106.412V17.0602H104.222V26Z" fill="#292929"/>
<path d="M143.215 2.8653L147.419 14.228L158.782 18.4326L147.419 22.6372L143.215 34L139.01 22.6372L127.647 18.4326L139.01 14.228L143.215 2.8653Z" fill="#D9D9D9"/>
<path d="M184.305 9.32913V26H181.386V9.32913H184.305ZM189.46 26H186.678V14.7341H189.255L189.483 16.1936C190.19 15.0533 191.558 14.392 193.086 14.392C195.914 14.392 197.373 16.148 197.373 19.0671V26H194.591V19.7285C194.591 17.8356 193.656 16.9234 192.219 16.9234C190.509 16.9234 189.46 18.1093 189.46 19.9337V26ZM203.026 26H200.244V17.0602H198.077V14.7341H200.244V11.222H203.026V14.7341H205.215V17.0602H203.026V26ZM208.519 26L204.87 14.7341H207.766L209.249 19.5688C209.499 20.4582 209.727 21.4389 209.933 22.4879C210.138 21.3933 210.343 20.6863 210.708 19.5688L212.259 14.7341H215.087L216.592 19.5688C216.729 20.0249 217.185 21.7126 217.322 22.4651C217.504 21.6213 217.869 20.2758 218.074 19.5688L219.579 14.7341H222.521L218.622 26H216.022L214.471 21.1196C214.015 19.6372 213.764 18.5654 213.673 17.9952C213.559 18.5198 213.354 19.318 212.783 21.1652L211.233 26H208.519ZM224.685 12.4763C223.727 12.4763 222.975 11.7237 222.975 10.7887C222.975 9.85366 223.727 9.12388 224.685 9.12388C225.597 9.12388 226.35 9.85366 226.35 10.7887C226.35 11.7237 225.597 12.4763 224.685 12.4763ZM223.294 26V14.7341H226.076V26H223.294ZM231.87 26H229.088V17.0602H226.921V14.7341H229.088V11.222H231.87V14.7341H234.059V17.0602H231.87V26Z" fill="#292929"/>
<path d="M270.863 2.8653L275.067 14.228L286.43 18.4326L275.067 22.6372L270.863 34L266.658 22.6372L255.295 18.4326L266.658 14.228L270.863 2.8653Z" fill="#D9D9D9"/>
<path d="M315.625 20.253H311.953V26H309.034V9.32913H315.625C318.977 9.32913 321.144 11.5185 321.144 14.7797C321.144 17.9952 318.954 20.253 315.625 20.253ZM315.054 11.929H311.953V17.6532H315.009C317.016 17.6532 318.088 16.5813 318.088 14.7569C318.088 12.9324 316.993 11.929 315.054 11.929ZM329.346 14.6884V17.2655H328.32C326.313 17.2655 325.059 18.3373 325.059 20.5267V26H322.276V14.7569H324.899L325.059 16.3989C325.538 15.2814 326.609 14.5288 328.115 14.5288C328.502 14.5288 328.89 14.5744 329.346 14.6884ZM329.277 20.3442C329.277 16.8322 331.809 14.4148 335.298 14.4148C338.787 14.4148 341.318 16.8322 341.318 20.3442C341.318 23.8563 338.787 26.2737 335.298 26.2737C331.809 26.2737 329.277 23.8563 329.277 20.3442ZM332.059 20.3442C332.059 22.3967 333.382 23.7879 335.298 23.7879C337.213 23.7879 338.536 22.3967 338.536 20.3442C338.536 18.2917 337.213 16.9006 335.298 16.9006C333.382 16.9006 332.059 18.2917 332.059 20.3442ZM347.241 26.2965C343.98 26.2965 341.95 23.9019 341.95 20.4126C341.95 16.9006 344.003 14.392 347.401 14.392C348.974 14.392 350.365 15.0533 351.072 16.1708V9.03266H353.832V26H351.278L351.095 24.244C350.411 25.5439 348.952 26.2965 347.241 26.2965ZM347.857 23.7422C349.795 23.7422 351.05 22.3511 351.05 20.3214C351.05 18.2917 349.795 16.8778 347.857 16.8778C345.918 16.8778 344.732 18.3145 344.732 20.3214C344.732 22.3283 345.918 23.7422 347.857 23.7422ZM363.459 14.7341H366.241V26H363.664L363.459 24.4948C362.775 25.5667 361.315 26.2965 359.81 26.2965C357.21 26.2965 355.682 24.5404 355.682 21.781V14.7341H358.465V20.8003C358.465 22.9441 359.308 23.8107 360.859 23.8107C362.615 23.8107 363.459 22.7844 363.459 20.6407V14.7341ZM367.319 20.3442C367.319 16.855 369.622 14.392 372.952 14.392C376.03 14.392 378.129 16.1024 378.425 18.8162H375.643C375.323 17.5391 374.388 16.8778 373.066 16.8778C371.287 16.8778 370.101 18.2233 370.101 20.3442C370.101 22.4651 371.196 23.7879 372.975 23.7879C374.366 23.7879 375.346 23.1037 375.643 21.8722H378.448C378.106 24.4948 375.916 26.2965 372.975 26.2965C369.554 26.2965 367.319 23.9247 367.319 20.3442ZM383.438 26H380.656V17.0602H378.489V14.7341H380.656V11.222H383.438V14.7341H385.627V17.0602H383.438V26ZM398.088 26H392.09V9.32913H397.928C402.854 9.32913 406.252 12.7272 406.252 17.6988C406.252 22.602 402.922 26 398.088 26ZM397.654 12.0202H395.009V23.3089H397.814C401.143 23.3089 403.173 21.1652 403.173 17.6988C403.173 14.1639 401.098 12.0202 397.654 12.0202ZM412.688 26.2965C409.336 26.2965 406.987 23.8563 406.987 20.367C406.987 16.8322 409.29 14.392 412.597 14.392C415.972 14.392 418.116 16.6497 418.116 20.1618V21.0056L409.632 21.0284C409.838 23.0125 410.887 24.0159 412.734 24.0159C414.262 24.0159 415.265 23.423 415.585 22.3511H418.162C417.683 24.8141 415.63 26.2965 412.688 26.2965ZM412.62 16.6725C410.978 16.6725 409.975 17.5619 409.701 19.2496H415.357C415.357 17.6988 414.285 16.6725 412.62 16.6725ZM418.564 22.5792H421.21C421.232 23.5598 421.962 24.1756 423.239 24.1756C424.539 24.1756 425.246 23.651 425.246 22.83C425.246 22.2599 424.95 21.8494 423.946 21.6213L421.916 21.1424C419.887 20.6863 418.906 19.7285 418.906 17.9268C418.906 15.7147 420.776 14.392 423.376 14.392C425.907 14.392 427.618 15.8515 427.641 18.0409H424.995C424.972 17.083 424.334 16.4673 423.262 16.4673C422.167 16.4673 421.529 16.969 421.529 17.8128C421.529 18.4514 422.031 18.8619 422.988 19.0899L425.018 19.5688C426.911 20.0021 427.869 20.8687 427.869 22.602C427.869 24.8825 425.93 26.2965 423.148 26.2965C420.343 26.2965 418.564 24.7913 418.564 22.5792ZM430.466 12.4763C429.508 12.4763 428.756 11.7237 428.756 10.7887C428.756 9.85366 429.508 9.12388 430.466 9.12388C431.378 9.12388 432.131 9.85366 432.131 10.7887C432.131 11.7237 431.378 12.4763 430.466 12.4763ZM429.075 26V14.7341H431.857V26H429.075ZM433.181 20.1162C433.181 16.8322 435.325 14.3692 438.54 14.3692C440.228 14.3692 441.551 15.0761 442.212 16.2848L442.372 14.7341H444.949V25.4299C444.949 29.1928 442.691 31.5418 439.042 31.5418C435.804 31.5418 433.592 29.6945 433.249 26.6842H436.032C436.214 28.1437 437.332 29.0103 439.042 29.0103C440.958 29.0103 442.189 27.8016 442.189 25.9316V24.0615C441.482 25.1106 440.091 25.7719 438.472 25.7719C435.279 25.7719 433.181 23.3774 433.181 20.1162ZM435.986 20.0477C435.986 21.9406 437.195 23.3546 439.019 23.3546C440.935 23.3546 442.121 22.009 442.121 20.0477C442.121 18.1321 440.958 16.8094 439.019 16.8094C437.172 16.8094 435.986 18.2005 435.986 20.0477ZM449.698 26H446.916V14.7341H449.493L449.721 16.1936C450.428 15.0533 451.796 14.392 453.324 14.392C456.152 14.392 457.612 16.148 457.612 19.0671V26H454.829V19.7285C454.829 17.8356 453.894 16.9234 452.458 16.9234C450.747 16.9234 449.698 18.1093 449.698 19.9337V26Z" fill="#292929"/>
<path d="M495.51 2.8653L499.715 14.228L511.078 18.4326L499.715 22.6372L495.51 34L491.306 22.6372L479.943 18.4326L491.306 14.228L495.51 2.8653Z" fill="#D9D9D9"/>
<path d="M533.681 26V9.32913H540.318C543.602 9.32913 545.609 11.0396 545.609 13.8218C545.609 15.6691 544.788 16.9918 543.214 17.6532C544.97 18.2233 545.859 19.546 545.859 21.4845C545.859 24.3352 543.875 26 540.432 26H533.681ZM540.067 11.9062H536.6V16.4445H540.135C541.732 16.4445 542.621 15.6007 542.621 14.1183C542.621 12.6816 541.709 11.9062 540.067 11.9062ZM540.318 18.9075H536.6V23.423H540.318C541.96 23.423 542.872 22.6248 542.872 21.1196C542.872 19.7057 541.937 18.9075 540.318 18.9075ZM554.283 14.6884V17.2655H553.257C551.25 17.2655 549.996 18.3373 549.996 20.5267V26H547.213V14.7569H549.836L549.996 16.3989C550.475 15.2814 551.546 14.5288 553.052 14.5288C553.439 14.5288 553.827 14.5744 554.283 14.6884ZM558.161 26.2965C555.766 26.2965 554.307 24.9053 554.307 22.7844C554.307 20.7091 555.812 19.4092 558.48 19.2039L561.856 18.9531V18.7022C561.856 17.1742 560.943 16.5585 559.529 16.5585C557.887 16.5585 556.975 17.2427 556.975 18.4286H554.603C554.603 15.9884 556.61 14.392 559.666 14.392C562.699 14.392 564.569 16.034 564.569 19.1583V26H562.129L561.924 24.3352C561.445 25.4983 559.917 26.2965 558.161 26.2965ZM559.073 24.1984C560.784 24.1984 561.878 23.1721 561.878 21.4389V20.8459L559.529 21.0284C557.796 21.188 557.135 21.7582 557.135 22.6704C557.135 23.6966 557.819 24.1984 559.073 24.1984ZM569.173 26H566.39V14.7341H568.967L569.196 16.1936C569.903 15.0533 571.271 14.392 572.799 14.392C575.627 14.392 577.086 16.148 577.086 19.0671V26H574.304V19.7285C574.304 17.8356 573.369 16.9234 571.932 16.9234C570.222 16.9234 569.173 18.1093 569.173 19.9337V26ZM583.537 26.2965C580.276 26.2965 578.246 23.9019 578.246 20.4126C578.246 16.9006 580.299 14.392 583.697 14.392C585.27 14.392 586.662 15.0533 587.369 16.1708V9.03266H590.128V26H587.574L587.391 24.244C586.707 25.5439 585.248 26.2965 583.537 26.2965ZM584.153 23.7422C586.091 23.7422 587.346 22.3511 587.346 20.3214C587.346 18.2917 586.091 16.8778 584.153 16.8778C582.214 16.8778 581.029 18.3145 581.029 20.3214C581.029 22.3283 582.214 23.7422 584.153 23.7422ZM602.436 26L596.141 9.32913H599.243L602.892 18.9303C603.257 19.9337 603.576 20.9144 603.941 22.2599C604.351 20.8003 604.693 19.7741 605.013 18.9303L608.616 9.32913H611.649L605.446 26H602.436ZM613.797 12.4763C612.839 12.4763 612.087 11.7237 612.087 10.7887C612.087 9.85366 612.839 9.12388 613.797 9.12388C614.709 9.12388 615.462 9.85366 615.462 10.7887C615.462 11.7237 614.709 12.4763 613.797 12.4763ZM612.406 26V14.7341H615.188V26H612.406ZM616.284 22.5792H618.929C618.952 23.5598 619.682 24.1756 620.959 24.1756C622.259 24.1756 622.966 23.651 622.966 22.83C622.966 22.2599 622.67 21.8494 621.666 21.6213L619.636 21.1424C617.607 20.6863 616.626 19.7285 616.626 17.9268C616.626 15.7147 618.496 14.392 621.096 14.392C623.627 14.392 625.338 15.8515 625.361 18.0409H622.715C622.692 17.083 622.054 16.4673 620.982 16.4673C619.887 16.4673 619.249 16.969 619.249 17.8128C619.249 18.4514 619.75 18.8619 620.708 19.0899L622.738 19.5688C624.631 20.0021 625.589 20.8687 625.589 22.602C625.589 24.8825 623.65 26.2965 620.868 26.2965C618.063 26.2965 616.284 24.7913 616.284 22.5792ZM634.435 14.7341H637.217V26H634.64L634.435 24.4948C633.751 25.5667 632.291 26.2965 630.786 26.2965C628.186 26.2965 626.658 24.5404 626.658 21.781V14.7341H629.44V20.8003C629.44 22.9441 630.284 23.8107 631.835 23.8107C633.591 23.8107 634.435 22.7844 634.435 20.6407V14.7341ZM642.531 26.2965C640.136 26.2965 638.677 24.9053 638.677 22.7844C638.677 20.7091 640.182 19.4092 642.85 19.2039L646.225 18.9531V18.7022C646.225 17.1742 645.313 16.5585 643.899 16.5585C642.257 16.5585 641.345 17.2427 641.345 18.4286H638.973C638.973 15.9884 640.98 14.392 644.036 14.392C647.069 14.392 648.939 16.034 648.939 19.1583V26H646.499L646.294 24.3352C645.815 25.4983 644.287 26.2965 642.531 26.2965ZM643.443 24.1984C645.154 24.1984 646.248 23.1721 646.248 21.4389V20.8459L643.899 21.0284C642.166 21.188 641.505 21.7582 641.505 22.6704C641.505 23.6966 642.189 24.1984 643.443 24.1984ZM653.565 26H650.806V9.03266H653.565V26ZM664.136 9.32913V26H661.217V9.32913H664.136ZM671.138 26.2965C667.877 26.2965 665.847 23.9019 665.847 20.4126C665.847 16.9006 667.9 14.392 671.298 14.392C672.871 14.392 674.263 15.0533 674.97 16.1708V9.03266H677.729V26H675.175L674.992 24.244C674.308 25.5439 672.849 26.2965 671.138 26.2965ZM671.754 23.7422C673.692 23.7422 674.947 22.3511 674.947 20.3214C674.947 18.2917 673.692 16.8778 671.754 16.8778C669.815 16.8778 668.63 18.3145 668.63 20.3214C668.63 22.3283 669.815 23.7422 671.754 23.7422ZM684.756 26.2965C681.404 26.2965 679.055 23.8563 679.055 20.367C679.055 16.8322 681.358 14.392 684.665 14.392C688.04 14.392 690.184 16.6497 690.184 20.1618V21.0056L681.7 21.0284C681.906 23.0125 682.955 24.0159 684.802 24.0159C686.33 24.0159 687.333 23.423 687.653 22.3511H690.23C689.751 24.8141 687.698 26.2965 684.756 26.2965ZM684.688 16.6725C683.046 16.6725 682.042 17.5619 681.769 19.2496H687.425C687.425 17.6988 686.353 16.6725 684.688 16.6725ZM694.281 26H691.499V14.7341H694.076L694.304 16.1936C695.011 15.0533 696.379 14.392 697.907 14.392C700.735 14.392 702.194 16.148 702.194 19.0671V26H699.412V19.7285C699.412 17.8356 698.477 16.9234 697.04 16.9234C695.33 16.9234 694.281 18.1093 694.281 19.9337V26ZM707.847 26H705.065V17.0602H702.898V14.7341H705.065V11.222H707.847V14.7341H710.036V17.0602H707.847V26ZM712.245 12.4763C711.287 12.4763 710.535 11.7237 710.535 10.7887C710.535 9.85366 711.287 9.12388 712.245 9.12388C713.157 9.12388 713.91 9.85366 713.91 10.7887C713.91 11.7237 713.157 12.4763 712.245 12.4763ZM710.854 26V14.7341H713.636V26H710.854ZM719.43 26H716.648V17.0602H714.481V14.7341H716.648V11.222H719.43V14.7341H721.619V17.0602H719.43V26ZM721.456 31.2225V28.8963H723.121C724.215 28.8963 724.9 28.6454 725.379 27.3227L725.698 26.4789L721.16 14.7341H724.101L726.998 22.9441L730.054 14.7341H732.927L727.408 28.5086C726.564 30.6067 725.379 31.4733 723.531 31.4733C722.756 31.4733 722.072 31.3821 721.456 31.2225ZM745.238 26H739.24V9.32913H745.079C750.005 9.32913 753.403 12.7272 753.403 17.6988C753.403 22.602 750.073 26 745.238 26ZM744.805 12.0202H742.16V23.3089H744.965C748.294 23.3089 750.324 21.1652 750.324 17.6988C750.324 14.1639 748.249 12.0202 744.805 12.0202ZM759.839 26.2965C756.487 26.2965 754.138 23.8563 754.138 20.367C754.138 16.8322 756.441 14.392 759.748 14.392C763.123 14.392 765.267 16.6497 765.267 20.1618V21.0056L756.783 21.0284C756.988 23.0125 758.038 24.0159 759.885 24.0159C761.413 24.0159 762.416 23.423 762.735 22.3511H765.313C764.834 24.8141 762.781 26.2965 759.839 26.2965ZM759.771 16.6725C758.129 16.6725 757.125 17.5619 756.852 19.2496H762.507C762.507 17.6988 761.436 16.6725 759.771 16.6725ZM765.715 22.5792H768.36C768.383 23.5598 769.113 24.1756 770.39 24.1756C771.69 24.1756 772.397 23.651 772.397 22.83C772.397 22.2599 772.1 21.8494 771.097 21.6213L769.067 21.1424C767.038 20.6863 766.057 19.7285 766.057 17.9268C766.057 15.7147 767.927 14.392 770.527 14.392C773.058 14.392 774.769 15.8515 774.791 18.0409H772.146C772.123 17.083 771.485 16.4673 770.413 16.4673C769.318 16.4673 768.68 16.969 768.68 17.8128C768.68 18.4514 769.181 18.8619 770.139 19.0899L772.169 19.5688C774.062 20.0021 775.019 20.8687 775.019 22.602C775.019 24.8825 773.081 26.2965 770.299 26.2965C767.494 26.2965 765.715 24.7913 765.715 22.5792ZM777.617 12.4763C776.659 12.4763 775.906 11.7237 775.906 10.7887C775.906 9.85366 776.659 9.12388 777.617 9.12388C778.529 9.12388 779.282 9.85366 779.282 10.7887C779.282 11.7237 778.529 12.4763 777.617 12.4763ZM776.226 26V14.7341H779.008V26H776.226ZM780.332 20.1162C780.332 16.8322 782.475 14.3692 785.691 14.3692C787.379 14.3692 788.701 15.0761 789.363 16.2848L789.522 14.7341H792.099V25.4299C792.099 29.1928 789.842 31.5418 786.193 31.5418C782.954 31.5418 780.742 29.6945 780.4 26.6842H783.182C783.365 28.1437 784.482 29.0103 786.193 29.0103C788.108 29.0103 789.34 27.8016 789.34 25.9316V24.0615C788.633 25.1106 787.242 25.7719 785.623 25.7719C782.43 25.7719 780.332 23.3774 780.332 20.1162ZM783.137 20.0477C783.137 21.9406 784.346 23.3546 786.17 23.3546C788.086 23.3546 789.272 22.009 789.272 20.0477C789.272 18.1321 788.108 16.8094 786.17 16.8094C784.323 16.8094 783.137 18.2005 783.137 20.0477ZM796.849 26H794.067V14.7341H796.644L796.872 16.1936C797.579 15.0533 798.947 14.392 800.475 14.392C803.303 14.392 804.762 16.148 804.762 19.0671V26H801.98V19.7285C801.98 17.8356 801.045 16.9234 799.608 16.9234C797.898 16.9234 796.849 18.1093 796.849 19.9337V26Z" fill="#292929"/>
<path d="M843.158 2.8653L847.362 14.228L858.725 18.4326L847.362 22.6372L843.158 34L838.953 22.6372L827.59 18.4326L838.953 14.228L843.158 2.8653Z" fill="#D9D9D9"/>
<path d="M881.329 26V9.32913H887.965C891.249 9.32913 893.256 11.0396 893.256 13.8218C893.256 15.6691 892.435 16.9918 890.861 17.6532C892.617 18.2233 893.507 19.546 893.507 21.4845C893.507 24.3352 891.523 26 888.079 26H881.329ZM887.714 11.9062H884.248V16.4445H887.783C889.379 16.4445 890.268 15.6007 890.268 14.1183C890.268 12.6816 889.356 11.9062 887.714 11.9062ZM887.965 18.9075H884.248V23.423H887.965C889.607 23.423 890.519 22.6248 890.519 21.1196C890.519 19.7057 889.584 18.9075 887.965 18.9075ZM901.93 14.6884V17.2655H900.904C898.897 17.2655 897.643 18.3373 897.643 20.5267V26H894.861V14.7569H897.483L897.643 16.3989C898.122 15.2814 899.194 14.5288 900.699 14.5288C901.087 14.5288 901.474 14.5744 901.93 14.6884ZM905.809 26.2965C903.414 26.2965 901.954 24.9053 901.954 22.7844C901.954 20.7091 903.46 19.4092 906.128 19.2039L909.503 18.9531V18.7022C909.503 17.1742 908.591 16.5585 907.177 16.5585C905.535 16.5585 904.623 17.2427 904.623 18.4286H902.251C902.251 15.9884 904.258 14.392 907.314 14.392C910.347 14.392 912.217 16.034 912.217 19.1583V26H909.777L909.571 24.3352C909.093 25.4983 907.565 26.2965 905.809 26.2965ZM906.721 24.1984C908.431 24.1984 909.526 23.1721 909.526 21.4389V20.8459L907.177 21.0284C905.444 21.188 904.782 21.7582 904.782 22.6704C904.782 23.6966 905.466 24.1984 906.721 24.1984ZM916.82 26H914.038V14.7341H916.615L916.843 16.1936C917.55 15.0533 918.918 14.392 920.446 14.392C923.274 14.392 924.734 16.148 924.734 19.0671V26H921.951V19.7285C921.951 17.8356 921.016 16.9234 919.58 16.9234C917.869 16.9234 916.82 18.1093 916.82 19.9337V26ZM931.185 26.2965C927.923 26.2965 925.894 23.9019 925.894 20.4126C925.894 16.9006 927.946 14.392 931.344 14.392C932.918 14.392 934.309 15.0533 935.016 16.1708V9.03266H937.775V26H935.221L935.039 24.244C934.355 25.5439 932.895 26.2965 931.185 26.2965ZM931.8 23.7422C933.739 23.7422 934.993 22.3511 934.993 20.3214C934.993 18.2917 933.739 16.8778 931.8 16.8778C929.862 16.8778 928.676 18.3145 928.676 20.3214C928.676 22.3283 929.862 23.7422 931.8 23.7422ZM944.45 13.9815C944.45 11.0624 946.867 9.03266 950.379 9.03266C953.755 9.03266 955.898 10.9027 955.99 13.9131H953.071C953.002 12.4763 951.976 11.6325 950.334 11.6325C948.532 11.6325 947.369 12.4991 947.369 13.8902C947.369 15.0761 948.008 15.7375 949.399 16.0568L952.021 16.6269C954.872 17.2427 956.263 18.7022 956.263 21.188C956.263 24.2896 953.846 26.2965 950.174 26.2965C946.617 26.2965 944.29 24.4036 944.222 21.4161H947.141C947.164 22.83 948.304 23.6738 950.174 23.6738C952.113 23.6738 953.344 22.83 953.344 21.4389C953.344 20.3214 952.774 19.6601 951.406 19.3636L948.76 18.7706C945.932 18.1549 944.45 16.5357 944.45 13.9815ZM961.413 26H958.63V17.0602H956.464V14.7341H958.63V11.222H961.413V14.7341H963.602V17.0602H961.413V26ZM971.489 14.6884V17.2655H970.463C968.456 17.2655 967.202 18.3373 967.202 20.5267V26H964.42V14.7569H967.042L967.202 16.3989C967.681 15.2814 968.753 14.5288 970.258 14.5288C970.645 14.5288 971.033 14.5744 971.489 14.6884ZM975.367 26.2965C972.973 26.2965 971.513 24.9053 971.513 22.7844C971.513 20.7091 973.018 19.4092 975.687 19.2039L979.062 18.9531V18.7022C979.062 17.1742 978.15 16.5585 976.736 16.5585C975.094 16.5585 974.181 17.2427 974.181 18.4286H971.81C971.81 15.9884 973.816 14.392 976.872 14.392C979.906 14.392 981.776 16.034 981.776 19.1583V26H979.335L979.13 24.3352C978.651 25.4983 977.123 26.2965 975.367 26.2965ZM976.279 24.1984C977.99 24.1984 979.085 23.1721 979.085 21.4389V20.8459L976.736 21.0284C975.002 21.188 974.341 21.7582 974.341 22.6704C974.341 23.6966 975.025 24.1984 976.279 24.1984ZM987.272 26H984.49V17.0602H982.323V14.7341H984.49V11.222H987.272V14.7341H989.461V17.0602H987.272V26ZM995.208 26.2965C991.855 26.2965 989.506 23.8563 989.506 20.367C989.506 16.8322 991.81 14.392 995.116 14.392C998.492 14.392 1000.64 16.6497 1000.64 20.1618V21.0056L992.152 21.0284C992.357 23.0125 993.406 24.0159 995.253 24.0159C996.781 24.0159 997.785 23.423 998.104 22.3511H1000.68C1000.2 24.8141 998.149 26.2965 995.208 26.2965ZM995.139 16.6725C993.497 16.6725 992.494 17.5619 992.22 19.2496H997.876C997.876 17.6988 996.804 16.6725 995.139 16.6725ZM1001.31 20.1162C1001.31 16.8322 1003.45 14.3692 1006.67 14.3692C1008.36 14.3692 1009.68 15.0761 1010.34 16.2848L1010.5 14.7341H1013.08V25.4299C1013.08 29.1928 1010.82 31.5418 1007.17 31.5418C1003.93 31.5418 1001.72 29.6945 1001.38 26.6842H1004.16C1004.34 28.1437 1005.46 29.0103 1007.17 29.0103C1009.09 29.0103 1010.32 27.8016 1010.32 25.9316V24.0615C1009.61 25.1106 1008.22 25.7719 1006.6 25.7719C1003.41 25.7719 1001.31 23.3774 1001.31 20.1162ZM1004.12 20.0477C1004.12 21.9406 1005.33 23.3546 1007.15 23.3546C1009.07 23.3546 1010.25 22.009 1010.25 20.0477C1010.25 18.1321 1009.09 16.8094 1007.15 16.8094C1005.3 16.8094 1004.12 18.2005 1004.12 20.0477ZM1014.07 31.2225V28.8963H1015.73C1016.82 28.8963 1017.51 28.6454 1017.99 27.3227L1018.31 26.4789L1013.77 14.7341H1016.71L1019.61 22.9441L1022.66 14.7341H1025.54L1020.02 28.5086C1019.17 30.6067 1017.99 31.4733 1016.14 31.4733C1015.37 31.4733 1014.68 31.3821 1014.07 31.2225Z" fill="#292929"/>
<path d="M1062.81 2.8653L1067.01 14.228L1078.37 18.4326L1067.01 22.6372L1062.81 34L1058.6 22.6372L1047.24 18.4326L1058.6 14.228L1062.81 2.8653Z" fill="#D9D9D9"/>
<path d="M1103.8 26H1100.98V9.32913H1103.8L1109.19 22.602L1114.57 9.32913H1117.44V26H1114.61V20.8687C1114.61 17.5163 1114.61 16.5357 1114.77 15.3498L1110.53 26H1107.84L1103.62 15.3726C1103.78 16.3761 1103.8 17.9496 1103.8 20.0249V26ZM1119.15 20.3442C1119.15 16.8322 1121.68 14.4148 1125.17 14.4148C1128.66 14.4148 1131.19 16.8322 1131.19 20.3442C1131.19 23.8563 1128.66 26.2737 1125.17 26.2737C1121.68 26.2737 1119.15 23.8563 1119.15 20.3442ZM1121.93 20.3442C1121.93 22.3967 1123.25 23.7879 1125.17 23.7879C1127.08 23.7879 1128.41 22.3967 1128.41 20.3442C1128.41 18.2917 1127.08 16.9006 1125.17 16.9006C1123.25 16.9006 1121.93 18.2917 1121.93 20.3442ZM1135.06 26H1132.48V9.03266H1135.26V16.3761C1135.99 15.1217 1137.5 14.3692 1139.21 14.3692C1142.43 14.3692 1144.39 16.8778 1144.39 20.4354C1144.39 23.9019 1142.27 26.2965 1139.03 26.2965C1137.34 26.2965 1135.9 25.5439 1135.24 24.244L1135.06 26ZM1135.29 20.3214C1135.29 22.3511 1136.54 23.7422 1138.46 23.7422C1140.42 23.7422 1141.58 22.3283 1141.58 20.3214C1141.58 18.3145 1140.42 16.8778 1138.46 16.8778C1136.54 16.8778 1135.29 18.2917 1135.29 20.3214ZM1147.08 12.4763C1146.12 12.4763 1145.37 11.7237 1145.37 10.7887C1145.37 9.85366 1146.12 9.12388 1147.08 9.12388C1147.99 9.12388 1148.75 9.85366 1148.75 10.7887C1148.75 11.7237 1147.99 12.4763 1147.08 12.4763ZM1145.69 26V14.7341H1148.47V26H1145.69ZM1153.24 26H1150.48V9.03266H1153.24V26ZM1160.29 26.2965C1156.93 26.2965 1154.58 23.8563 1154.58 20.367C1154.58 16.8322 1156.89 14.392 1160.19 14.392C1163.57 14.392 1165.71 16.6497 1165.71 20.1618V21.0056L1157.23 21.0284C1157.43 23.0125 1158.48 24.0159 1160.33 24.0159C1161.86 24.0159 1162.86 23.423 1163.18 22.3511H1165.76C1165.28 24.8141 1163.23 26.2965 1160.29 26.2965ZM1160.22 16.6725C1158.58 16.6725 1157.57 17.5619 1157.3 19.2496H1162.95C1162.95 17.6988 1161.88 16.6725 1160.22 16.6725ZM1174.11 26H1171.08L1177.1 9.32913H1180.08L1186.11 26H1183.03L1181.68 22.1459H1175.46L1174.11 26ZM1178.21 14.3007L1176.32 19.6829H1180.84L1178.92 14.3007C1178.78 13.8674 1178.63 13.3657 1178.58 13.0236C1178.51 13.3429 1178.37 13.8446 1178.21 14.3007ZM1186.87 31.2225V14.7341H1189.45L1189.63 16.4445C1190.32 15.1446 1191.8 14.392 1193.51 14.392C1196.68 14.392 1198.78 16.6953 1198.78 20.2302C1198.78 23.7422 1196.86 26.2965 1193.51 26.2965C1191.82 26.2965 1190.36 25.6351 1189.66 24.4948V31.2225H1186.87ZM1189.68 20.367C1189.68 22.3967 1190.93 23.7879 1192.85 23.7879C1194.81 23.7879 1195.97 22.3739 1195.97 20.367C1195.97 18.3601 1194.81 16.9234 1192.85 16.9234C1190.93 16.9234 1189.68 18.3373 1189.68 20.367ZM1200.08 31.2225V14.7341H1202.66L1202.84 16.4445C1203.52 15.1446 1205.01 14.392 1206.72 14.392C1209.89 14.392 1211.99 16.6953 1211.99 20.2302C1211.99 23.7422 1210.07 26.2965 1206.72 26.2965C1205.03 26.2965 1203.57 25.6351 1202.86 24.4948V31.2225H1200.08ZM1202.89 20.367C1202.89 22.3967 1204.14 23.7879 1206.06 23.7879C1208.02 23.7879 1209.18 22.3739 1209.18 20.367C1209.18 18.3601 1208.02 16.9234 1206.06 16.9234C1204.14 16.9234 1202.89 18.3373 1202.89 20.367Z" fill="#292929"/>
<path d="M1249.45 2.8653L1253.66 14.228L1265.02 18.4326L1253.66 22.6372L1249.45 34L1245.25 22.6372L1233.89 18.4326L1245.25 14.228L1249.45 2.8653Z" fill="#D9D9D9"/>
<path d="M1291.09 26L1286.12 9.32913H1289.15L1291.8 18.1321C1292.05 19.0443 1292.3 19.9793 1292.55 21.4389C1292.82 19.9565 1293.07 19.0899 1293.37 18.1321L1295.99 9.32913H1299.21L1301.79 18.1321C1302.06 19.0671 1302.31 20.0249 1302.58 21.4389C1302.9 19.8881 1303.13 18.9987 1303.38 18.1549L1306.07 9.32913H1309.04L1303.98 26H1301.15L1297.59 13.8674L1293.96 26H1291.09ZM1313.32 26.2965C1309.97 26.2965 1307.62 23.8563 1307.62 20.367C1307.62 16.8322 1309.92 14.392 1313.23 14.392C1316.61 14.392 1318.75 16.6497 1318.75 20.1618V21.0056L1310.27 21.0284C1310.47 23.0125 1311.52 24.0159 1313.37 24.0159C1314.9 24.0159 1315.9 23.423 1316.22 22.3511H1318.8C1318.32 24.8141 1316.26 26.2965 1313.32 26.2965ZM1313.25 16.6725C1311.61 16.6725 1310.61 17.5619 1310.34 19.2496H1315.99C1315.99 17.6988 1314.92 16.6725 1313.25 16.6725ZM1322.64 26H1320.07V9.03266H1322.85V16.3761C1323.58 15.1217 1325.08 14.3692 1326.79 14.3692C1330.01 14.3692 1331.97 16.8778 1331.97 20.4354C1331.97 23.9019 1329.85 26.2965 1326.61 26.2965C1324.92 26.2965 1323.49 25.5439 1322.82 24.244L1322.64 26ZM1322.87 20.3214C1322.87 22.3511 1324.12 23.7422 1326.04 23.7422C1328 23.7422 1329.16 22.3283 1329.16 20.3214C1329.16 18.3145 1328 16.8778 1326.04 16.8778C1324.12 16.8778 1322.87 18.2917 1322.87 20.3214ZM1332.41 22.5792H1335.05C1335.07 23.5598 1335.8 24.1756 1337.08 24.1756C1338.38 24.1756 1339.09 23.651 1339.09 22.83C1339.09 22.2599 1338.79 21.8494 1337.79 21.6213L1335.76 21.1424C1333.73 20.6863 1332.75 19.7285 1332.75 17.9268C1332.75 15.7147 1334.62 14.392 1337.22 14.392C1339.75 14.392 1341.46 15.8515 1341.48 18.0409H1338.84C1338.81 17.083 1338.18 16.4673 1337.1 16.4673C1336.01 16.4673 1335.37 16.969 1335.37 17.8128C1335.37 18.4514 1335.87 18.8619 1336.83 19.0899L1338.86 19.5688C1340.75 20.0021 1341.71 20.8687 1341.71 22.602C1341.71 24.8825 1339.77 26.2965 1336.99 26.2965C1334.19 26.2965 1332.41 24.7913 1332.41 22.5792ZM1344.31 12.4763C1343.35 12.4763 1342.6 11.7237 1342.6 10.7887C1342.6 9.85366 1343.35 9.12388 1344.31 9.12388C1345.22 9.12388 1345.97 9.85366 1345.97 10.7887C1345.97 11.7237 1345.22 12.4763 1344.31 12.4763ZM1342.92 26V14.7341H1345.7V26H1342.92ZM1351.49 26H1348.71V17.0602H1346.54V14.7341H1348.71V11.222H1351.49V14.7341H1353.68V17.0602H1351.49V26ZM1359.43 26.2965C1356.08 26.2965 1353.73 23.8563 1353.73 20.367C1353.73 16.8322 1356.03 14.392 1359.34 14.392C1362.71 14.392 1364.86 16.6497 1364.86 20.1618V21.0056L1356.37 21.0284C1356.58 23.0125 1357.63 24.0159 1359.47 24.0159C1361 24.0159 1362.01 23.423 1362.32 22.3511H1364.9C1364.42 24.8141 1362.37 26.2965 1359.43 26.2965ZM1359.36 16.6725C1357.72 16.6725 1356.71 17.5619 1356.44 19.2496H1362.1C1362.1 17.6988 1361.02 16.6725 1359.36 16.6725ZM1377.81 26H1371.82V9.32913H1377.65C1382.58 9.32913 1385.98 12.7272 1385.98 17.6988C1385.98 22.602 1382.65 26 1377.81 26ZM1377.38 12.0202H1374.73V23.3089H1377.54C1380.87 23.3089 1382.9 21.1652 1382.9 17.6988C1382.9 14.1639 1380.82 12.0202 1377.38 12.0202ZM1392.41 26.2965C1389.06 26.2965 1386.71 23.8563 1386.71 20.367C1386.71 16.8322 1389.02 14.392 1392.32 14.392C1395.7 14.392 1397.84 16.6497 1397.84 20.1618V21.0056L1389.36 21.0284C1389.56 23.0125 1390.61 24.0159 1392.46 24.0159C1393.99 24.0159 1394.99 23.423 1395.31 22.3511H1397.89C1397.41 24.8141 1395.36 26.2965 1392.41 26.2965ZM1392.35 16.6725C1390.7 16.6725 1389.7 17.5619 1389.43 19.2496H1395.08C1395.08 17.6988 1394.01 16.6725 1392.35 16.6725ZM1398.29 22.5792H1400.94C1400.96 23.5598 1401.69 24.1756 1402.97 24.1756C1404.27 24.1756 1404.97 23.651 1404.97 22.83C1404.97 22.2599 1404.68 21.8494 1403.67 21.6213L1401.64 21.1424C1399.61 20.6863 1398.63 19.7285 1398.63 17.9268C1398.63 15.7147 1400.5 14.392 1403.1 14.392C1405.63 14.392 1407.34 15.8515 1407.37 18.0409H1404.72C1404.7 17.083 1404.06 16.4673 1402.99 16.4673C1401.89 16.4673 1401.25 16.969 1401.25 17.8128C1401.25 18.4514 1401.76 18.8619 1402.71 19.0899L1404.74 19.5688C1406.64 20.0021 1407.59 20.8687 1407.59 22.602C1407.59 24.8825 1405.66 26.2965 1402.87 26.2965C1400.07 26.2965 1398.29 24.7913 1398.29 22.5792ZM1410.19 12.4763C1409.23 12.4763 1408.48 11.7237 1408.48 10.7887C1408.48 9.85366 1409.23 9.12388 1410.19 9.12388C1411.1 9.12388 1411.86 9.85366 1411.86 10.7887C1411.86 11.7237 1411.1 12.4763 1410.19 12.4763ZM1408.8 26V14.7341H1411.58V26H1408.8ZM1412.91 20.1162C1412.91 16.8322 1415.05 14.3692 1418.27 14.3692C1419.95 14.3692 1421.28 15.0761 1421.94 16.2848L1422.1 14.7341H1424.67V25.4299C1424.67 29.1928 1422.42 31.5418 1418.77 31.5418C1415.53 31.5418 1413.32 29.6945 1412.98 26.6842H1415.76C1415.94 28.1437 1417.06 29.0103 1418.77 29.0103C1420.68 29.0103 1421.92 27.8016 1421.92 25.9316V24.0615C1421.21 25.1106 1419.82 25.7719 1418.2 25.7719C1415.01 25.7719 1412.91 23.3774 1412.91 20.1162ZM1415.71 20.0477C1415.71 21.9406 1416.92 23.3546 1418.75 23.3546C1420.66 23.3546 1421.85 22.009 1421.85 20.0477C1421.85 18.1321 1420.68 16.8094 1418.75 16.8094C1416.9 16.8094 1415.71 18.2005 1415.71 20.0477ZM1429.42 26H1426.64V14.7341H1429.22L1429.45 16.1936C1430.15 15.0533 1431.52 14.392 1433.05 14.392C1435.88 14.392 1437.34 16.148 1437.34 19.0671V26H1434.56V19.7285C1434.56 17.8356 1433.62 16.9234 1432.18 16.9234C1430.47 16.9234 1429.42 18.1093 1429.42 19.9337V26Z" fill="#292929"/>
<path d="M1475.1 2.8653L1479.31 14.228L1490.67 18.4326L1479.31 22.6372L1475.1 34L1470.9 22.6372L1459.53 18.4326L1470.9 14.228L1475.1 2.8653Z" fill="#D9D9D9"/>
<path d="M1516.19 9.32913V23.3089H1523.17V26H1513.27V9.32913H1516.19ZM1527.57 26.2965C1525.18 26.2965 1523.72 24.9053 1523.72 22.7844C1523.72 20.7091 1525.22 19.4092 1527.89 19.2039L1531.27 18.9531V18.7022C1531.27 17.1742 1530.35 16.5585 1528.94 16.5585C1527.3 16.5585 1526.39 17.2427 1526.39 18.4286H1524.01C1524.01 15.9884 1526.02 14.392 1529.08 14.392C1532.11 14.392 1533.98 16.034 1533.98 19.1583V26H1531.54L1531.34 24.3352C1530.86 25.4983 1529.33 26.2965 1527.57 26.2965ZM1528.48 24.1984C1530.2 24.1984 1531.29 23.1721 1531.29 21.4389V20.8459L1528.94 21.0284C1527.21 21.188 1526.55 21.7582 1526.55 22.6704C1526.55 23.6966 1527.23 24.1984 1528.48 24.1984ZM1538.58 26H1535.8V14.7341H1538.38L1538.61 16.1936C1539.31 15.0533 1540.68 14.392 1542.21 14.392C1545.04 14.392 1546.5 16.148 1546.5 19.0671V26H1543.72V19.7285C1543.72 17.8356 1542.78 16.9234 1541.34 16.9234C1539.63 16.9234 1538.58 18.1093 1538.58 19.9337V26ZM1552.95 26.2965C1549.69 26.2965 1547.66 23.9019 1547.66 20.4126C1547.66 16.9006 1549.71 14.392 1553.11 14.392C1554.68 14.392 1556.07 15.0533 1556.78 16.1708V9.03266H1559.54V26H1556.99L1556.8 24.244C1556.12 25.5439 1554.66 26.2965 1552.95 26.2965ZM1553.56 23.7422C1555.5 23.7422 1556.76 22.3511 1556.76 20.3214C1556.76 18.2917 1555.5 16.8778 1553.56 16.8778C1551.63 16.8778 1550.44 18.3145 1550.44 20.3214C1550.44 22.3283 1551.63 23.7422 1553.56 23.7422ZM1562.92 12.4763C1561.96 12.4763 1561.21 11.7237 1561.21 10.7887C1561.21 9.85366 1561.96 9.12388 1562.92 9.12388C1563.83 9.12388 1564.58 9.85366 1564.58 10.7887C1564.58 11.7237 1563.83 12.4763 1562.92 12.4763ZM1561.53 26V14.7341H1564.31V26H1561.53ZM1569.05 26H1566.27V14.7341H1568.85L1569.08 16.1936C1569.78 15.0533 1571.15 14.392 1572.68 14.392C1575.51 14.392 1576.97 16.148 1576.97 19.0671V26H1574.19V19.7285C1574.19 17.8356 1573.25 16.9234 1571.81 16.9234C1570.1 16.9234 1569.05 18.1093 1569.05 19.9337V26ZM1578.15 20.1162C1578.15 16.8322 1580.29 14.3692 1583.51 14.3692C1585.2 14.3692 1586.52 15.0761 1587.18 16.2848L1587.34 14.7341H1589.92V25.4299C1589.92 29.1928 1587.66 31.5418 1584.01 31.5418C1580.77 31.5418 1578.56 29.6945 1578.22 26.6842H1581C1581.18 28.1437 1582.3 29.0103 1584.01 29.0103C1585.93 29.0103 1587.16 27.8016 1587.16 25.9316V24.0615C1586.45 25.1106 1585.06 25.7719 1583.44 25.7719C1580.25 25.7719 1578.15 23.3774 1578.15 20.1162ZM1580.96 20.0477C1580.96 21.9406 1582.16 23.3546 1583.99 23.3546C1585.9 23.3546 1587.09 22.009 1587.09 20.0477C1587.09 18.1321 1585.93 16.8094 1583.99 16.8094C1582.14 16.8094 1580.96 18.2005 1580.96 20.0477ZM1604.12 20.253H1600.45V26H1597.53V9.32913H1604.12C1607.47 9.32913 1609.64 11.5185 1609.64 14.7797C1609.64 17.9952 1607.45 20.253 1604.12 20.253ZM1603.55 11.929H1600.45V17.6532H1603.51C1605.51 17.6532 1606.58 16.5813 1606.58 14.7569C1606.58 12.9324 1605.49 11.929 1603.55 11.929ZM1613.68 26.2965C1611.29 26.2965 1609.83 24.9053 1609.83 22.7844C1609.83 20.7091 1611.33 19.4092 1614 19.2039L1617.37 18.9531V18.7022C1617.37 17.1742 1616.46 16.5585 1615.05 16.5585C1613.41 16.5585 1612.49 17.2427 1612.49 18.4286H1610.12C1610.12 15.9884 1612.13 14.392 1615.18 14.392C1618.22 14.392 1620.09 16.034 1620.09 19.1583V26H1617.65L1617.44 24.3352C1616.96 25.4983 1615.44 26.2965 1613.68 26.2965ZM1614.59 24.1984C1616.3 24.1984 1617.4 23.1721 1617.4 21.4389V20.8459L1615.05 21.0284C1613.31 21.188 1612.65 21.7582 1612.65 22.6704C1612.65 23.6966 1613.34 24.1984 1614.59 24.1984ZM1621.27 20.1162C1621.27 16.8322 1623.41 14.3692 1626.63 14.3692C1628.32 14.3692 1629.64 15.0761 1630.3 16.2848L1630.46 14.7341H1633.04V25.4299C1633.04 29.1928 1630.78 31.5418 1627.13 31.5418C1623.89 31.5418 1621.68 29.6945 1621.34 26.6842H1624.12C1624.3 28.1437 1625.42 29.0103 1627.13 29.0103C1629.05 29.0103 1630.28 27.8016 1630.28 25.9316V24.0615C1629.57 25.1106 1628.18 25.7719 1626.56 25.7719C1623.37 25.7719 1621.27 23.3774 1621.27 20.1162ZM1624.08 20.0477C1624.08 21.9406 1625.28 23.3546 1627.11 23.3546C1629.02 23.3546 1630.21 22.009 1630.21 20.0477C1630.21 18.1321 1629.05 16.8094 1627.11 16.8094C1625.26 16.8094 1624.08 18.2005 1624.08 20.0477ZM1640.05 26.2965C1636.69 26.2965 1634.34 23.8563 1634.34 20.367C1634.34 16.8322 1636.65 14.392 1639.95 14.392C1643.33 14.392 1645.47 16.6497 1645.47 20.1618V21.0056L1636.99 21.0284C1637.19 23.0125 1638.24 24.0159 1640.09 24.0159C1641.62 24.0159 1642.62 23.423 1642.94 22.3511H1645.52C1645.04 24.8141 1642.99 26.2965 1640.05 26.2965ZM1639.98 16.6725C1638.33 16.6725 1637.33 17.5619 1637.06 19.2496H1642.71C1642.71 17.6988 1641.64 16.6725 1639.98 16.6725Z" fill="#292929"/>
<path d="M1682.75 2.8653L1686.95 14.228L1698.32 18.4326L1686.95 22.6372L1682.75 34L1678.54 22.6372L1667.18 18.4326L1678.54 14.228L1682.75 2.8653Z" fill="#D9D9D9"/>
<path d="M1723.84 9.32913V23.3089H1730.82V26H1720.92V9.32913H1723.84ZM1730.98 20.3442C1730.98 16.8322 1733.52 14.4148 1737 14.4148C1740.49 14.4148 1743.02 16.8322 1743.02 20.3442C1743.02 23.8563 1740.49 26.2737 1737 26.2737C1733.52 26.2737 1730.98 23.8563 1730.98 20.3442ZM1733.77 20.3442C1733.77 22.3967 1735.09 23.7879 1737 23.7879C1738.92 23.7879 1740.24 22.3967 1740.24 20.3442C1740.24 18.2917 1738.92 16.9006 1737 16.9006C1735.09 16.9006 1733.77 18.2917 1733.77 20.3442ZM1743.68 20.1162C1743.68 16.8322 1745.82 14.3692 1749.04 14.3692C1750.73 14.3692 1752.05 15.0761 1752.71 16.2848L1752.87 14.7341H1755.45V25.4299C1755.45 29.1928 1753.19 31.5418 1749.54 31.5418C1746.3 31.5418 1744.09 29.6945 1743.75 26.6842H1746.53C1746.71 28.1437 1747.83 29.0103 1749.54 29.0103C1751.46 29.0103 1752.69 27.8016 1752.69 25.9316V24.0615C1751.98 25.1106 1750.59 25.7719 1748.97 25.7719C1745.78 25.7719 1743.68 23.3774 1743.68 20.1162ZM1746.48 20.0477C1746.48 21.9406 1747.69 23.3546 1749.52 23.3546C1751.43 23.3546 1752.62 22.009 1752.62 20.0477C1752.62 18.1321 1751.46 16.8094 1749.52 16.8094C1747.67 16.8094 1746.48 18.2005 1746.48 20.0477ZM1756.75 20.3442C1756.75 16.8322 1759.28 14.4148 1762.77 14.4148C1766.26 14.4148 1768.79 16.8322 1768.79 20.3442C1768.79 23.8563 1766.26 26.2737 1762.77 26.2737C1759.28 26.2737 1756.75 23.8563 1756.75 20.3442ZM1759.54 20.3442C1759.54 22.3967 1760.86 23.7879 1762.77 23.7879C1764.69 23.7879 1766.01 22.3967 1766.01 20.3442C1766.01 18.2917 1764.69 16.9006 1762.77 16.9006C1760.86 16.9006 1759.54 18.2917 1759.54 20.3442ZM1781.73 26H1775.73V9.32913H1781.57C1786.5 9.32913 1789.89 12.7272 1789.89 17.6988C1789.89 22.602 1786.57 26 1781.73 26ZM1781.3 12.0202H1778.65V23.3089H1781.46C1784.79 23.3089 1786.82 21.1652 1786.82 17.6988C1786.82 14.1639 1784.74 12.0202 1781.3 12.0202ZM1796.33 26.2965C1792.98 26.2965 1790.63 23.8563 1790.63 20.367C1790.63 16.8322 1792.93 14.392 1796.24 14.392C1799.62 14.392 1801.76 16.6497 1801.76 20.1618V21.0056L1793.28 21.0284C1793.48 23.0125 1794.53 24.0159 1796.38 24.0159C1797.9 24.0159 1798.91 23.423 1799.23 22.3511H1801.8C1801.33 24.8141 1799.27 26.2965 1796.33 26.2965ZM1796.26 16.6725C1794.62 16.6725 1793.62 17.5619 1793.34 19.2496H1799C1799 17.6988 1797.93 16.6725 1796.26 16.6725ZM1802.21 22.5792H1804.85C1804.88 23.5598 1805.6 24.1756 1806.88 24.1756C1808.18 24.1756 1808.89 23.651 1808.89 22.83C1808.89 22.2599 1808.59 21.8494 1807.59 21.6213L1805.56 21.1424C1803.53 20.6863 1802.55 19.7285 1802.55 17.9268C1802.55 15.7147 1804.42 14.392 1807.02 14.392C1809.55 14.392 1811.26 15.8515 1811.28 18.0409H1808.64C1808.62 17.083 1807.98 16.4673 1806.9 16.4673C1805.81 16.4673 1805.17 16.969 1805.17 17.8128C1805.17 18.4514 1805.67 18.8619 1806.63 19.0899L1808.66 19.5688C1810.55 20.0021 1811.51 20.8687 1811.51 22.602C1811.51 24.8825 1809.57 26.2965 1806.79 26.2965C1803.99 26.2965 1802.21 24.7913 1802.21 22.5792ZM1814.11 12.4763C1813.15 12.4763 1812.4 11.7237 1812.4 10.7887C1812.4 9.85366 1813.15 9.12388 1814.11 9.12388C1815.02 9.12388 1815.77 9.85366 1815.77 10.7887C1815.77 11.7237 1815.02 12.4763 1814.11 12.4763ZM1812.72 26V14.7341L1815.5 14.7341V26H1812.72ZM1816.82 20.1162C1816.82 16.8322 1818.97 14.3692 1822.18 14.3692C1823.87 14.3692 1825.19 15.0761 1825.85 16.2848L1826.01 14.7341H1828.59V25.4299C1828.59 29.1928 1826.33 31.5418 1822.68 31.5418C1819.45 31.5418 1817.23 29.6945 1816.89 26.6842H1819.67C1819.86 28.1437 1820.97 29.0103 1822.68 29.0103C1824.6 29.0103 1825.83 27.8016 1825.83 25.9316V24.0615C1825.13 25.1106 1823.73 25.7719 1822.11 25.7719C1818.92 25.7719 1816.82 23.3774 1816.82 20.1162ZM1819.63 20.0477C1819.63 21.9406 1820.84 23.3546 1822.66 23.3546C1824.58 23.3546 1825.76 22.009 1825.76 20.0477C1825.76 18.1321 1824.6 16.8094 1822.66 16.8094C1820.81 16.8094 1819.63 18.2005 1819.63 20.0477ZM1833.34 26H1830.56V14.7341H1833.14L1833.36 16.1936C1834.07 15.0533 1835.44 14.392 1836.97 14.392C1839.79 14.392 1841.25 16.148 1841.25 19.0671V26H1838.47V19.7285C1838.47 17.8356 1837.54 16.9234 1836.1 16.9234C1834.39 16.9234 1833.34 18.1093 1833.34 19.9337V26Z" fill="#292929"/>
<path d="M1879.4 2.8653L1883.6 14.228L1894.96 18.4326L1883.6 22.6372L1879.4 34L1875.19 22.6372L1863.83 18.4326L1875.19 14.228L1879.4 2.8653Z" fill="#D9D9D9"/>
<path d="M1917.57 26V9.32913H1924.2C1927.49 9.32913 1929.49 11.0396 1929.49 13.8218C1929.49 15.6691 1928.67 16.9918 1927.1 17.6532C1928.86 18.2233 1929.74 19.546 1929.74 21.4845C1929.74 24.3352 1927.76 26 1924.32 26H1917.57ZM1923.95 11.9062H1920.49V16.4445H1924.02C1925.62 16.4445 1926.51 15.6007 1926.51 14.1183C1926.51 12.6816 1925.59 11.9062 1923.95 11.9062ZM1924.2 18.9075H1920.49V23.423H1924.2C1925.85 23.423 1926.76 22.6248 1926.76 21.1196C1926.76 19.7057 1925.82 18.9075 1924.2 18.9075ZM1938.17 14.6884V17.2655H1937.14C1935.14 17.2655 1933.88 18.3373 1933.88 20.5267V26H1931.1V14.7569H1933.72L1933.88 16.3989C1934.36 15.2814 1935.43 14.5288 1936.94 14.5288C1937.32 14.5288 1937.71 14.5744 1938.17 14.6884ZM1942.05 26.2965C1939.65 26.2965 1938.19 24.9053 1938.19 22.7844C1938.19 20.7091 1939.7 19.4092 1942.37 19.2039L1945.74 18.9531V18.7022C1945.74 17.1742 1944.83 16.5585 1943.41 16.5585C1941.77 16.5585 1940.86 17.2427 1940.86 18.4286H1938.49C1938.49 15.9884 1940.5 14.392 1943.55 14.392C1946.58 14.392 1948.45 16.034 1948.45 19.1583V26H1946.01L1945.81 24.3352C1945.33 25.4983 1943.8 26.2965 1942.05 26.2965ZM1942.96 24.1984C1944.67 24.1984 1945.76 23.1721 1945.76 21.4389V20.8459L1943.41 21.0284C1941.68 21.188 1941.02 21.7582 1941.02 22.6704C1941.02 23.6966 1941.7 24.1984 1942.96 24.1984ZM1953.06 26H1950.28V14.7341H1952.85L1953.08 16.1936C1953.79 15.0533 1955.16 14.392 1956.68 14.392C1959.51 14.392 1960.97 16.148 1960.97 19.0671V26H1958.19V19.7285C1958.19 17.8356 1957.25 16.9234 1955.82 16.9234C1954.11 16.9234 1953.06 18.1093 1953.06 19.9337V26ZM1967.42 26.2965C1964.16 26.2965 1962.13 23.9019 1962.13 20.4126C1962.13 16.9006 1964.18 14.392 1967.58 14.392C1969.16 14.392 1970.55 15.0533 1971.25 16.1708V9.03266H1974.01V26H1971.46L1971.28 24.244C1970.59 25.5439 1969.13 26.2965 1967.42 26.2965ZM1968.04 23.7422C1969.98 23.7422 1971.23 22.3511 1971.23 20.3214C1971.23 18.2917 1969.98 16.8778 1968.04 16.8778C1966.1 16.8778 1964.91 18.3145 1964.91 20.3214C1964.91 22.3283 1966.1 23.7422 1968.04 23.7422ZM1977.39 12.4763C1976.43 12.4763 1975.68 11.7237 1975.68 10.7887C1975.68 9.85366 1976.43 9.12388 1977.39 9.12388C1978.3 9.12388 1979.06 9.85366 1979.06 10.7887C1979.06 11.7237 1978.3 12.4763 1977.39 12.4763ZM1976 26V14.7341H1978.78V26H1976ZM1983.53 26H1980.75V14.7341H1983.32L1983.55 16.1936C1984.26 15.0533 1985.63 14.392 1987.15 14.392C1989.98 14.392 1991.44 16.148 1991.44 19.0671V26H1988.66V19.7285C1988.66 17.8356 1987.72 16.9234 1986.29 16.9234C1984.58 16.9234 1983.53 18.1093 1983.53 19.9337V26ZM1992.62 20.1162C1992.62 16.8322 1994.77 14.3692 1997.98 14.3692C1999.67 14.3692 2000.99 15.0761 2001.66 16.2848L2001.81 14.7341H2004.39V25.4299C2004.39 29.1928 2002.13 31.5418 1998.49 31.5418C1995.25 31.5418 1993.03 29.6945 1992.69 26.6842H1995.47C1995.66 28.1437 1996.77 29.0103 1998.49 29.0103C2000.4 29.0103 2001.63 27.8016 2001.63 25.9316V24.0615C2000.93 25.1106 1999.53 25.7719 1997.91 25.7719C1994.72 25.7719 1992.62 23.3774 1992.62 20.1162ZM1995.43 20.0477C1995.43 21.9406 1996.64 23.3546 1998.46 23.3546C2000.38 23.3546 2001.56 22.009 2001.56 20.0477C2001.56 18.1321 2000.4 16.8094 1998.46 16.8094C1996.62 16.8094 1995.43 18.2005 1995.43 20.0477Z" fill="#292929"/>
<path d="M2043.04 2.8653L2047.25 14.228L2058.61 18.4326L2047.25 22.6372L2043.04 34L2038.84 22.6372L2027.48 18.4326L2038.84 14.228L2043.04 2.8653Z" fill="#D9D9D9"/>
<path d="M2084.13 9.32913V26H2081.21V9.32913H2084.13ZM2089.29 26H2086.51V14.7341H2089.08L2089.31 16.1936C2090.02 15.0533 2091.39 14.392 2092.91 14.392C2095.74 14.392 2097.2 16.148 2097.2 19.0671V26H2094.42V19.7285C2094.42 17.8356 2093.48 16.9234 2092.05 16.9234C2090.34 16.9234 2089.29 18.1093 2089.29 19.9337V26ZM2102.85 26H2100.07V17.0602H2097.91V14.7341H2100.07V11.222H2102.85V14.7341H2105.04V17.0602H2102.85V26ZM2108.35 26L2104.7 14.7341H2107.59L2109.08 19.5688C2109.33 20.4582 2109.56 21.4389 2109.76 22.4879C2109.97 21.3933 2110.17 20.6863 2110.54 19.5688L2112.09 14.7341H2114.92L2116.42 19.5688C2116.56 20.0249 2117.01 21.7126 2117.15 22.4651C2117.33 21.6213 2117.7 20.2758 2117.9 19.5688L2119.41 14.7341H2122.35L2118.45 26H2115.85L2114.3 21.1196C2113.84 19.6372 2113.59 18.5654 2113.5 17.9952C2113.39 18.5198 2113.18 19.318 2112.61 21.1652L2111.06 26H2108.35ZM2124.51 12.4763C2123.56 12.4763 2122.8 11.7237 2122.8 10.7887C2122.8 9.85366 2123.56 9.12388 2124.51 9.12388C2125.43 9.12388 2126.18 9.85366 2126.18 10.7887C2126.18 11.7237 2125.43 12.4763 2124.51 12.4763ZM2123.12 26V14.7341H2125.9V26H2123.12ZM2131.7 26H2128.92V17.0602H2126.75V14.7341H2128.92V11.222H2131.7V14.7341H2133.89V17.0602H2131.7V26Z" fill="#292929"/>
<path d="M2170.69 2.8653L2174.9 14.228L2186.26 18.4326L2174.9 22.6372L2170.69 34L2166.49 22.6372L2155.12 18.4326L2166.49 14.228L2170.69 2.8653Z" fill="#D9D9D9"/>
<path d="M2211.78 9.32913V26H2208.86V9.32913H2211.78ZM2216.94 26H2214.15V14.7341H2216.73L2216.96 16.1936C2217.67 15.0533 2219.03 14.392 2220.56 14.392C2223.39 14.392 2224.85 16.148 2224.85 19.0671V26H2222.07V19.7285C2222.07 17.8356 2221.13 16.9234 2219.7 16.9234C2217.99 16.9234 2216.94 18.1093 2216.94 19.9337V26ZM2230.5 26H2227.72V17.0602H2225.55V14.7341H2227.72V11.222H2230.5V14.7341H2232.69V17.0602H2230.5V26ZM2235.99 26L2232.35 14.7341H2235.24L2236.72 19.5688C2236.98 20.4582 2237.2 21.4389 2237.41 22.4879C2237.61 21.3933 2237.82 20.6863 2238.18 19.5688L2239.73 14.7341H2242.56L2244.07 19.5688C2244.2 20.0249 2244.66 21.7126 2244.8 22.4651C2244.98 21.6213 2245.35 20.2758 2245.55 19.5688L2247.06 14.7341H2250L2246.1 26H2243.5L2241.95 21.1196C2241.49 19.6372 2241.24 18.5654 2241.15 17.9952C2241.03 18.5198 2240.83 19.318 2240.26 21.1652L2238.71 26H2235.99ZM2252.16 12.4763C2251.2 12.4763 2250.45 11.7237 2250.45 10.7887C2250.45 9.85366 2251.2 9.12388 2252.16 9.12388C2253.07 9.12388 2253.83 9.85366 2253.83 10.7887C2253.83 11.7237 2253.07 12.4763 2252.16 12.4763ZM2250.77 26V14.7341H2253.55V26H2250.77ZM2259.35 26H2256.56V17.0602H2254.4V14.7341H2256.56V11.222H2259.35V14.7341H2261.54V17.0602H2259.35V26Z" fill="#292929"/>
<path d="M2298.34 2.8653L2302.54 14.228L2313.91 18.4326L2302.54 22.6372L2298.34 34L2294.13 22.6372L2282.77 18.4326L2294.13 14.228L2298.34 2.8653Z" fill="#D9D9D9"/>
<path d="M2339.43 9.32913V26H2336.51V9.32913H2339.43ZM2344.58 26H2341.8V14.7341H2344.38L2344.61 16.1936C2345.31 15.0533 2346.68 14.392 2348.21 14.392C2351.04 14.392 2352.5 16.148 2352.5 19.0671V26H2349.71V19.7285C2349.71 17.8356 2348.78 16.9234 2347.34 16.9234C2345.63 16.9234 2344.58 18.1093 2344.58 19.9337V26ZM2358.15 26H2355.37V17.0602H2353.2V14.7341H2355.37V11.222H2358.15V14.7341H2360.34V17.0602H2358.15V26ZM2363.64 26L2359.99 14.7341H2362.89L2364.37 19.5688C2364.62 20.4582 2364.85 21.4389 2365.06 22.4879C2365.26 21.3933 2365.47 20.6863 2365.83 19.5688L2367.38 14.7341H2370.21L2371.72 19.5688C2371.85 20.0249 2372.31 21.7126 2372.45 22.4651C2372.63 21.6213 2372.99 20.2758 2373.2 19.5688L2374.7 14.7341H2377.64L2373.75 26H2371.15L2369.59 21.1196C2369.14 19.6372 2368.89 18.5654 2368.8 17.9952C2368.68 18.5198 2368.48 19.318 2367.91 21.1652L2366.36 26H2363.64ZM2379.81 12.4763C2378.85 12.4763 2378.1 11.7237 2378.1 10.7887C2378.1 9.85366 2378.85 9.12388 2379.81 9.12388C2380.72 9.12388 2381.47 9.85366 2381.47 10.7887C2381.47 11.7237 2380.72 12.4763 2379.81 12.4763ZM2378.42 26V14.7341H2381.2V26H2378.42ZM2386.99 26H2384.21V17.0602H2382.04V14.7341H2384.21V11.222H2386.99V14.7341H2389.18V17.0602H2386.99V26Z" fill="#292929"/>
<path d="M2425.99 2.8653L2430.19 14.228L2441.55 18.4326L2430.19 22.6372L2425.99 34L2421.78 22.6372L2410.42 18.4326L2421.78 14.228L2425.99 2.8653Z" fill="#D9D9D9"/>
<path d="M2467.08 9.32913V26H2464.16V9.32913H2467.08ZM2472.23 26H2469.45V14.7341H2472.03L2472.25 16.1936C2472.96 15.0533 2474.33 14.392 2475.86 14.392C2478.68 14.392 2480.14 16.148 2480.14 19.0671V26H2477.36V19.7285C2477.36 17.8356 2476.43 16.9234 2474.99 16.9234C2473.28 16.9234 2472.23 18.1093 2472.23 19.9337V26ZM2485.8 26H2483.01V17.0602H2480.85V14.7341H2483.01V11.222H2485.8V14.7341H2487.99V17.0602H2485.8V26ZM2491.29 26L2487.64 14.7341H2490.54L2492.02 19.5688C2492.27 20.4582 2492.5 21.4389 2492.7 22.4879C2492.91 21.3933 2493.11 20.6863 2493.48 19.5688L2495.03 14.7341H2497.86L2499.36 19.5688C2499.5 20.0249 2499.96 21.7126 2500.09 22.4651C2500.28 21.6213 2500.64 20.2758 2500.85 19.5688L2502.35 14.7341H2505.29L2501.39 26H2498.79L2497.24 21.1196C2496.79 19.6372 2496.54 18.5654 2496.44 17.9952C2496.33 18.5198 2496.12 19.318 2495.55 21.1652L2494 26H2491.29ZM2507.46 12.4763C2506.5 12.4763 2505.75 11.7237 2505.75 10.7887C2505.75 9.85366 2506.5 9.12388 2507.46 9.12388C2508.37 9.12388 2509.12 9.85366 2509.12 10.7887C2509.12 11.7237 2508.37 12.4763 2507.46 12.4763ZM2506.06 26V14.7341H2508.85V26H2506.06ZM2514.64 26H2511.86V17.0602H2509.69V14.7341H2511.86V11.222H2514.64V14.7341H2516.83V17.0602H2514.64V26Z" fill="#292929"/>
</svg>