<svg width="118" height="30" viewBox="0 0 118 30" fill="none" xmlns="http://www.w3.org/2000/svg">
<g opacity="0.7">
<path d="M4.10812 12.8425L8.36062 8.58997V8.57495L20.4206 8.58997L16.1681 12.8425V12.8275H8.36812V14.275H16.8806V19.9375L12.6281 24.19H0.568115L4.82062 19.9375H12.6206V18.535L4.10812 18.52V12.8425Z" fill="#234DF0"/>
<path d="M26.8029 24.1898H14.7429L18.9954 19.9373H31.0554L26.8029 24.1898ZM30.3504 12.8423H18.2904L22.5429 8.58984H34.6029L30.3504 12.8423ZM31.0554 18.5273L18.2904 18.5123V14.2598H31.0554V18.5273Z" fill="#234DF0"/>
<path d="M48.0953 25.6075H48.1103L43.8578 29.86L43.8428 29.83V29.86H36.7478L41.0003 25.6075H43.8353V24.175H36.7403L32.4878 19.9225V12.8275L36.7403 8.57495H43.8353L48.0803 12.82H48.0953V25.615V25.6075ZM43.9253 19.9375L43.8428 19.9075V12.8275H36.7478V19.9225H43.8428V19.9375H43.9253Z" fill="#234DF0"/>
<path d="M60.868 8.58232L65.1205 4.32983V19.9373L60.868 24.1898L53.773 15.3548V24.1898H50.7955C49.0105 24.1898 48.118 22.0373 49.378 20.7773L49.513 20.6423V12.8423L53.7655 8.58983L60.8605 17.4173V8.58983L60.868 8.58232ZM50.788 24.1898H48.793V20.3423H50.788V24.1898Z" fill="#234DF0"/>
<path d="M66.5378 6.51985L70.6853 3.28735V7.53984L66.5378 11.2824M66.5378 12.8423L70.7903 8.58986V19.9374L66.5378 24.1898V12.8423Z" fill="#234DF0"/>
<path d="M87.8306 25.6075H87.8456L83.5931 29.86L83.5781 29.83V29.86H76.4831L80.7356 25.6075H83.5706V24.175H76.4756L72.2231 19.9225V12.8275L76.4756 8.57495H83.5706L87.8156 12.82H87.8306V25.615V25.6075ZM83.6606 19.9375L83.5781 19.9075V12.8275H76.4831V19.9225H83.5781V19.9375H83.6606Z" fill="#234DF0"/>
<path d="M89.248 19.9375V12.8425L93.5005 8.58997V8.57495H100.596V8.60498L104.841 12.85H104.856V19.945L100.603 24.1975H93.508L89.2555 19.945L89.248 19.9375ZM93.508 19.9375H100.603V12.8275H93.508V19.9375Z" fill="#234DF0"/>
<path d="M105.161 4.87542V4.20942H109.409V4.87542H107.699V10.4824H106.88V4.87542H105.161ZM110.417 10.4824V4.25442H111.299L113.756 9.74442H113.45L115.907 4.25442H116.78V10.4824H115.961V5.10942L116.276 5.12742L113.891 10.4824H113.315L110.921 5.12742L111.236 5.10942V10.4824H110.417Z" fill="#234DF0"/>
</g>
</svg>