<svg width="1440" height="810" viewBox="0 0 1440 810" fill="none" xmlns="http://www.w3.org/2000/svg">
<g clip-path="url(#clip0_3143_5987)">
<path d="M1440 0H0V810H1440V0Z" fill="#F2FC2B"/>
<path d="M440.43 383.044L464.949 358.525V358.441L534.416 358.525L509.897 383.044V382.96H464.949V391.299H513.986V423.91L489.467 448.428H420L444.518 423.91H489.467V415.817L440.43 415.733V383.044Z" fill="#234DF0"/>
<path d="M571.193 448.423H501.726L526.245 423.904H595.712L571.193 448.423ZM591.623 383.044H522.156L546.675 358.525H616.142L591.623 383.044ZM595.712 415.812L522.156 415.728V391.209H595.712V415.806V415.812Z" fill="#234DF0"/>
<path d="M693.864 456.594H693.948L669.43 481.112L669.346 480.95V481.112H628.48L652.998 456.594H669.346V448.339H628.48L603.961 423.82V382.954L628.48 358.436H669.346L693.78 382.871H693.864V456.588V456.594ZM669.832 423.904L669.346 423.742V382.96H628.48V423.826H669.346V423.91H669.832V423.904Z" fill="#234DF0"/>
<path d="M767.414 358.525L791.932 334.007V423.904L767.414 448.423L726.548 397.506V448.423H709.412C699.149 448.423 694.009 436.012 701.263 428.753L702.029 427.987V383.038L726.548 358.52L767.414 409.352V358.52V358.525ZM709.384 448.423H697.868V426.253H709.384V448.423Z" fill="#234DF0"/>
<path d="M800.103 346.629L824.012 328V352.518L800.103 374.078M800.103 383.043L824.621 358.525V423.904L800.103 448.422V383.043Z" fill="#234DF0"/>
<path d="M922.773 456.594H922.857L898.339 481.112L898.255 480.95V481.112H857.389L881.907 456.594H898.255V448.339H857.389L832.871 423.82V382.954L857.389 358.436H898.255L922.69 382.871H922.773V456.588V456.594ZM898.747 423.904L898.261 423.742V382.96H857.395V423.826H898.261V423.91H898.747V423.904Z" fill="#234DF0"/>
<path d="M930.944 423.904V383.044L955.463 358.525V358.441H996.329V358.604L1020.76 383.038H1020.85V423.898L996.329 448.417H955.463L930.944 423.898V423.904ZM955.463 423.904H996.329V382.96H955.463V423.904Z" fill="#234DF0"/>
<path d="M1114.15 347.038V346.372H1118.39V347.038H1116.68V352.645H1115.86V347.038H1114.15ZM1119.4 352.645V346.417H1120.28L1122.74 351.907H1122.43L1124.89 346.417H1125.76V352.645H1124.95V347.272L1125.26 347.29L1122.88 352.645H1122.3L1119.91 347.29L1120.22 347.272V352.645H1119.4Z" fill="#234DF0"/>
</g>
<defs>
<clipPath id="clip0_3143_5987">
<rect width="1440" height="810" fill="white"/>
</clipPath>
</defs>
</svg>