<svg width="986" height="746" viewBox="0 0 986 746" fill="none" xmlns="http://www.w3.org/2000/svg">
<path d="M13.375 1.46228H492.903V374.25H13.375C6.37005 374.25 0.685059 368.565 0.685059 361.56V14.1523C0.685059 7.14728 6.37005 1.46228 13.375 1.46228Z" fill="#234DF0"/>
<path d="M113.987 178.118L125.087 167.01V166.973L156.55 167.01L145.45 178.118V178.08H125.095V181.853H147.302V196.62L136.202 207.72H104.74L115.84 196.62H136.195V192.953L113.987 192.915V178.11V178.118Z" fill="#F2FC2B"/>
<path d="M173.207 207.728H141.745L152.852 196.628H184.315L173.215 207.728H173.207ZM182.455 178.118H150.992L162.092 167.01H193.555L182.455 178.118ZM184.307 192.96L151 192.923V181.823H184.307V192.96Z" fill="#F2FC2B"/>
<path d="M228.76 211.425H228.797L217.697 222.532L217.66 222.457V222.532H199.15L210.257 211.425H217.66V207.69H199.15L188.05 196.59V178.08L199.15 166.98H217.66L228.73 178.05H228.767V211.432L228.76 211.425ZM217.877 196.62L217.652 196.545V178.08H199.142V196.59H217.652V196.627H217.877V196.62Z" fill="#F2FC2B"/>
<path d="M262.067 167.01L273.167 155.91V196.62L262.067 207.72L243.557 184.665V207.72H235.795C231.145 207.72 228.82 202.103 232.105 198.81L232.45 198.465V178.11L243.55 167.003L262.06 190.028V167.003L262.067 167.01ZM235.787 207.728H230.575V197.685H235.787V207.728Z" fill="#F2FC2B"/>
<path d="M276.873 161.625L287.703 153.188V164.288L276.873 174.053M276.873 178.118L287.973 167.01V196.62L276.873 207.72V178.11V178.118Z" fill="#F2FC2B"/>
<path d="M332.425 211.425H332.462L321.362 222.532L321.325 222.457V222.532H302.815L313.922 211.425H321.325V207.69H302.815L291.715 196.59V178.08L302.815 166.98H321.325L332.395 178.05H332.432V211.432L332.425 211.425ZM321.542 196.62L321.317 196.545V178.08H302.807V196.59H321.317V196.627H321.542V196.62Z" fill="#F2FC2B"/>
<path d="M336.13 196.62V178.118L347.23 167.01V166.973H365.74V167.048L376.81 178.118H376.847V196.62L365.747 207.72H347.237L336.137 196.62H336.13ZM347.23 196.62H365.74V178.08H347.23V196.62Z" fill="#F2FC2B"/>
<path d="M377.132 164.425V163.79H381.181V164.425H379.551V169.77H378.77V164.425H377.132ZM382.142 169.77V163.833H382.983L385.326 169.066H385.034L387.376 163.833H388.208V169.77H387.428V164.648L387.728 164.665L385.454 169.77H384.905L382.623 164.665L382.923 164.648V169.77H382.142Z" fill="#F2FC2B"/>
<path d="M13.375 372.787H492.903V745.575H13.375C6.37005 745.575 0.685059 739.89 0.685059 732.885V385.47C0.685059 378.465 6.37005 372.78 13.375 372.78V372.787Z" fill="#DDDDD7"/>
<path d="M119.995 549.443L131.095 538.335V538.297L162.558 538.335L151.458 549.443V549.405H131.103V553.178H153.31V567.945L142.21 579.045H110.748L121.848 567.945H142.203V564.277L119.995 564.24V549.435V549.443Z" fill="#234DF0"/>
<path d="M179.215 579.052H147.752L158.86 567.952H190.322L179.222 579.052H179.215ZM188.47 549.442H157.007L168.107 538.335H199.57L188.47 549.442ZM190.322 564.285L157.015 564.247V553.147H190.322V564.285Z" fill="#234DF0"/>
<path d="M234.768 582.75H234.805L223.705 593.857L223.668 593.782V593.857H205.158L216.265 582.75H223.668V579.015H205.158L194.058 567.915V549.405L205.158 538.305H223.668L234.738 549.375H234.775V582.757L234.768 582.75ZM223.885 567.945L223.66 567.87V549.405H205.15V567.915H223.66V567.952H223.885V567.945Z" fill="#234DF0"/>
<path d="M268.083 538.335L279.183 527.235V567.945L268.083 579.045L249.573 555.99V579.045H241.81C237.16 579.045 234.835 573.427 238.12 570.135L238.465 569.79V549.435L249.565 538.328L268.075 561.353V538.328L268.083 538.335ZM241.803 579.053H236.59V569.01H241.803V579.053Z" fill="#234DF0"/>
<path d="M282.888 532.95L293.718 524.513V535.613L282.888 545.378M282.888 549.443L293.988 538.335V567.945L282.888 579.045V549.435V549.443Z" fill="#234DF0"/>
<path d="M338.44 582.75H338.477L327.377 593.857L327.34 593.782V593.857H308.83L319.937 582.75H327.34V579.015H308.83L297.73 567.915V549.405L308.83 538.305H327.34L338.41 549.375H338.447V582.757L338.44 582.75ZM327.557 567.945L327.332 567.87V549.405H308.822V567.915H327.332V567.952H327.557V567.945Z" fill="#234DF0"/>
<path d="M342.138 567.945V549.443L353.238 538.335V538.297H371.748V538.373L382.818 549.443H382.855V567.945L371.755 579.045H353.245L342.145 567.945H342.138ZM353.245 567.945H371.755V549.405H353.245V567.945Z" fill="#234DF0"/>
<path d="M383.139 535.75V535.115H387.189V535.75H385.559V541.095H384.778V535.75H383.139ZM388.15 541.095V535.158H388.991L391.333 540.392H391.042L393.384 535.158H394.216V541.095H393.436V535.973L393.736 535.99L391.462 541.095H390.913L388.631 535.99L388.931 535.973V541.095H388.15Z" fill="#234DF0"/>
<path d="M492.91 372.787H972.438C979.443 372.787 985.128 378.472 985.128 385.477V732.892C985.128 739.897 979.443 745.582 972.438 745.582H492.91V372.795V372.787Z" fill="black"/>
<path d="M612.212 548.933L623.312 537.825V537.787L654.775 537.825L643.675 548.933V548.895H623.32V552.667H645.527V567.435L634.427 578.535H602.965L614.065 567.435H634.42V563.767L612.212 563.73V548.925V548.933Z" fill="#F2FC2B"/>
<path d="M671.432 578.542H639.97L651.077 567.442H682.54L671.44 578.542H671.432ZM680.687 548.932H649.225L660.325 537.825H691.787L680.687 548.932ZM682.54 563.775L649.232 563.737V552.637H682.54V563.775Z" fill="#F2FC2B"/>
<path d="M726.985 582.24H727.023L715.923 593.347L715.885 593.272V593.347H697.375L708.483 582.24H715.885V578.505H697.375L686.275 567.405V548.895L697.375 537.795H715.885L726.955 548.865H726.993V582.247L726.985 582.24ZM716.11 567.435L715.885 567.36V548.895H697.375V567.405H715.885V567.442H716.11V567.435Z" fill="#F2FC2B"/>
<path d="M760.3 537.825L771.4 526.725V567.435L760.3 578.535L741.79 555.48V578.535H734.028C729.378 578.535 727.053 572.917 730.338 569.625L730.683 569.28V548.925L741.783 537.818L760.293 560.842V537.818L760.3 537.825ZM734.02 578.542H728.808V568.5H734.02V578.542Z" fill="#F2FC2B"/>
<path d="M775.105 532.44L785.935 524.002V535.102L775.105 544.867M775.105 548.932L786.205 537.825V567.435L775.105 578.535V548.925V548.932Z" fill="#F2FC2B"/>
<path d="M830.658 582.24H830.695L819.595 593.347L819.558 593.272V593.347H801.048L812.155 582.24H819.558V578.505H801.048L789.948 567.405V548.895L801.048 537.795H819.558L830.628 548.865H830.665V582.247L830.658 582.24ZM819.775 567.435L819.55 567.36V548.895H801.04V567.405H819.55V567.442H819.775V567.435Z" fill="#F2FC2B"/>
<path d="M834.355 567.435V548.933L845.455 537.825V537.787H863.965V537.863L875.035 548.933H875.073V567.435L863.972 578.535H845.462L834.362 567.435H834.355ZM845.462 567.435H863.972V548.895H845.462V567.435Z" fill="#F2FC2B"/>
<path d="M875.357 535.24V534.605H879.406V535.24H877.776V540.585H876.995V535.24H875.357ZM880.368 540.585V534.648H881.208L883.551 539.881H883.259L885.601 534.648H886.434V540.585H885.653V535.463L885.953 535.48L883.679 540.585H883.13L880.848 535.48L881.148 535.463V540.585H880.368Z" fill="#F2FC2B"/>
<path d="M492.91 0H972.438C979.443 0 985.128 5.685 985.128 12.69V360.105C985.128 367.11 979.443 372.795 972.438 372.795H492.91V0Z" fill="#F2FC2B"/>
<path d="M589.278 176.655L600.378 165.547V165.51L631.84 165.547L620.74 176.655V176.617H600.385V180.39H622.593V195.157L611.493 206.257H580.03L591.13 195.157H611.485V191.49L589.278 191.452V176.647V176.655Z" fill="#234DF0"/>
<path d="M648.498 206.265H617.035L628.143 195.165H659.605L648.505 206.265H648.498ZM657.753 176.655H626.29L637.39 165.547H668.853L657.753 176.655ZM659.598 191.49L626.29 191.452V180.352H659.598V191.49Z" fill="#234DF0"/>
<path d="M704.05 209.962H704.087L692.987 221.07L692.95 220.995V221.07H674.44L685.547 209.962H692.95V206.227H674.44L663.34 195.127V176.617L674.44 165.517H692.95L704.02 176.587H704.057V209.97L704.05 209.962ZM693.167 195.157L692.942 195.082V176.617H674.432V195.127H692.942V195.165H693.167V195.157Z" fill="#234DF0"/>
<path d="M737.365 165.547L748.465 154.447V195.157L737.365 206.257L718.855 183.202V206.257H711.092C706.442 206.257 704.117 200.64 707.402 197.347L707.747 197.002V176.647L718.847 165.54L737.357 188.565V165.54L737.365 165.547ZM711.085 206.265H705.872V196.222H711.085V206.265Z" fill="#234DF0"/>
<path d="M752.162 160.162L762.992 151.725V162.825L752.162 172.59M752.162 176.655L763.262 165.547V195.157L752.162 206.257V176.647V176.655Z" fill="#234DF0"/>
<path d="M807.723 209.962H807.76L796.66 221.07L796.623 220.995V221.07H778.113L789.22 209.962H796.623V206.227H778.113L767.013 195.127V176.617L778.113 165.517H796.623L807.693 176.587H807.73V209.97L807.723 209.962ZM796.84 195.157L796.615 195.082V176.617H778.105V195.127H796.615V195.165H796.84V195.157Z" fill="#234DF0"/>
<path d="M811.42 195.157V176.655L822.52 165.547V165.51H841.03V165.585L852.1 176.655H852.137V195.157L841.037 206.257H822.527L811.427 195.157H811.42ZM822.527 195.157H841.037V176.617H822.527V195.157Z" fill="#234DF0"/>
<path d="M852.422 162.962V162.327H856.471V162.962H854.841V168.307H854.06V162.962H852.422ZM857.432 168.307V162.37H858.273L860.616 167.604H860.324L862.666 162.37H863.499V168.307H862.718V163.185L863.018 163.202L860.744 168.307H860.195L857.913 163.202L858.213 163.185V168.307H857.432Z" fill="#234DF0"/>
</svg>