<svg width="983" height="745" viewBox="0 0 983 745" fill="none" xmlns="http://www.w3.org/2000/svg">
<g clip-path="url(#clip0_3277_4852)">
<path d="M18.6098 0.0975342H982.51V372.885H18.6098C8.71735 372.885 0.692383 364.853 0.692383 354.967V18.0225C0.692383 8.13003 8.72485 0.105036 18.6098 0.105036V0.0975342Z" fill="#234DF0"/>
<path d="M364.795 176.753L375.895 165.645V165.608L407.357 165.645L396.257 176.753V176.715H375.902V180.488H398.11V195.255L387.01 206.355H355.547L366.647 195.255H387.002V191.588L364.795 191.55V176.745V176.753Z" fill="#F2FC2B"/>
<path d="M424.015 206.363H392.552L403.66 195.263H435.122L424.022 206.363H424.015ZM433.27 176.753H401.807L412.907 165.645H444.37L433.27 176.753ZM435.122 191.595L401.815 191.558V180.458H435.122V191.595Z" fill="#F2FC2B"/>
<path d="M479.567 210.06H479.605L468.505 221.167L468.467 221.092V221.167H449.957L461.065 210.06H468.467V206.325H449.957L438.857 195.225V176.715L449.957 165.615H468.467L479.537 176.685H479.575V210.067L479.567 210.06ZM468.685 195.255L468.46 195.18V176.715H449.95V195.225H468.46V195.262H468.685V195.255Z" fill="#F2FC2B"/>
<path d="M512.882 165.645L523.982 154.545V195.255L512.882 206.355L494.372 183.3V206.355H486.61C481.96 206.355 479.635 200.738 482.92 197.445L483.265 197.1V176.745L494.365 165.638L512.875 188.663V165.638L512.882 165.645ZM486.602 206.363H481.39V196.32H486.602V206.363Z" fill="#F2FC2B"/>
<path d="M527.688 160.26L538.517 151.823V162.923L527.688 172.688M527.688 176.753L538.788 165.645V195.255L527.688 206.355V176.745V176.753Z" fill="#F2FC2B"/>
<path d="M583.24 210.06H583.278L572.178 221.167L572.14 221.092V221.167H553.63L564.738 210.06H572.14V206.325H553.63L542.53 195.225V176.715L553.63 165.615H572.14L583.21 176.685H583.248V210.067L583.24 210.06ZM572.358 195.255L572.133 195.18V176.715H553.623V195.225H572.133V195.262H572.358V195.255Z" fill="#F2FC2B"/>
<path d="M586.938 195.255V176.753L598.038 165.645V165.608H616.547V165.683L627.617 176.753H627.655V195.255L616.555 206.355H598.045L586.945 195.255H586.938ZM598.045 195.255H616.555V176.715H598.045V195.255Z" fill="#F2FC2B"/>
<path d="M627.939 163.06V162.425H631.989V163.06H630.359V168.405H629.578V163.06H627.939ZM632.95 168.405V162.468H633.791L636.133 167.701H635.841L638.184 162.468H639.016V168.405H638.235V163.283L638.536 163.3L636.262 168.405H635.713L633.431 163.3L633.731 163.283V168.405H632.95Z" fill="#F2FC2B"/>
<path d="M38.9652 44.728H34.1412V51.04H32.4132V33.856H38.9652C42.2772 33.856 44.3652 36.016 44.3652 39.256C44.3652 42.376 42.2532 44.728 38.9652 44.728ZM38.7252 35.416H34.1412V43.168H38.6292C41.1252 43.168 42.5652 41.584 42.5652 39.232C42.5652 36.856 41.1012 35.416 38.7252 35.416ZM52.8674 39.28V40.768H51.9554C49.8194 40.768 48.4514 42.208 48.4514 44.416V51.04H46.7954V39.424H48.3554L48.4754 41.224C48.9314 39.976 50.1554 39.16 51.7874 39.16C52.1474 39.16 52.4594 39.184 52.8674 39.28ZM55.8848 36.232C55.2128 36.232 54.6608 35.68 54.6608 35.008C54.6608 34.336 55.2128 33.76 55.8848 33.76C56.5568 33.76 57.1328 34.336 57.1328 35.008C57.1328 35.68 56.5568 36.232 55.8848 36.232ZM55.0688 51.04V39.424H56.7248V51.04H55.0688ZM61.8342 51.04H60.1782V39.424H61.6182L61.8102 41.08C62.3862 39.856 63.6822 39.112 65.3142 39.112C67.1382 39.112 68.5062 40.072 69.0582 41.584C69.5862 40.072 71.0022 39.112 72.8742 39.112C75.3942 39.112 77.0502 40.744 77.0502 43.432V51.04H75.4422V43.768C75.4422 41.776 74.3382 40.6 72.5622 40.6C70.6182 40.6 69.4662 42.064 69.4662 43.864V51.04H67.8342V43.744C67.8342 41.776 66.7062 40.624 64.9542 40.624C63.0102 40.624 61.8342 42.064 61.8342 43.84V51.04ZM83.7173 51.328C81.2453 51.328 79.7813 49.936 79.7813 47.896C79.7813 45.76 81.4133 44.416 84.1253 44.2L87.9653 43.888V43.504C87.9653 41.224 86.5973 40.504 84.8933 40.504C82.8773 40.504 81.6773 41.416 81.6773 42.976H80.1653C80.1653 40.624 82.0853 39.112 84.9413 39.112C87.6293 39.112 89.5973 40.456 89.5973 43.528V51.04H88.2053L87.9893 49C87.2693 50.464 85.6853 51.328 83.7173 51.328ZM84.1013 49.984C86.5493 49.984 87.9653 48.28 87.9653 45.76V45.136L84.5333 45.4C82.3493 45.592 81.4613 46.552 81.4613 47.848C81.4613 49.264 82.5173 49.984 84.1013 49.984ZM98.9924 39.28V40.768H98.0804C95.9444 40.768 94.5764 42.208 94.5764 44.416V51.04H92.9204V39.424H94.4804L94.6004 41.224C95.0564 39.976 96.2804 39.16 97.9124 39.16C98.2724 39.16 98.5844 39.184 98.9924 39.28ZM100.369 56.104V54.736H101.641C102.649 54.736 103.657 54.664 104.233 53.104L104.737 51.736L100.033 39.424H101.785L105.529 49.552L109.201 39.424H110.905L105.577 53.704C104.905 55.528 103.777 56.272 102.121 56.272C101.425 56.272 100.897 56.224 100.369 56.104ZM121.227 51.04H119.571V33.544H121.227V51.04ZM123.933 45.232C123.933 41.68 126.429 39.112 129.837 39.112C133.245 39.112 135.741 41.68 135.741 45.232C135.741 48.76 133.245 51.328 129.837 51.328C126.429 51.328 123.933 48.76 123.933 45.232ZM125.613 45.208C125.613 47.944 127.341 49.84 129.837 49.84C132.309 49.84 134.061 47.944 134.061 45.208C134.061 42.52 132.309 40.6 129.837 40.6C127.341 40.6 125.613 42.52 125.613 45.208ZM137.597 44.896C137.597 41.728 139.637 39.112 143.045 39.112C145.061 39.112 146.597 40.048 147.341 41.752L147.509 39.424H148.949V50.68C148.949 54.136 146.741 56.392 143.333 56.392C140.357 56.392 138.269 54.712 137.813 51.904H139.469C139.829 53.776 141.269 54.88 143.357 54.88C145.733 54.88 147.317 53.272 147.317 50.848V48.088C146.525 49.72 144.917 50.68 142.925 50.68C139.613 50.68 137.597 48.064 137.597 44.896ZM139.253 44.872C139.253 47.248 140.717 49.192 143.165 49.192C145.685 49.192 147.173 47.368 147.173 44.872C147.173 42.4 145.733 40.576 143.189 40.576C140.693 40.576 139.253 42.52 139.253 44.872ZM151.589 45.232C151.589 41.68 154.085 39.112 157.493 39.112C160.901 39.112 163.397 41.68 163.397 45.232C163.397 48.76 160.901 51.328 157.493 51.328C154.085 51.328 151.589 48.76 151.589 45.232ZM153.269 45.208C153.269 47.944 154.997 49.84 157.493 49.84C159.965 49.84 161.717 47.944 161.717 45.208C161.717 42.52 159.965 40.6 157.493 40.6C154.997 40.6 153.269 42.52 153.269 45.208Z" fill="white"/>
</g>
<path d="M18.6098 371.422H982.51V744.21H18.6098C8.71735 744.21 0.692383 736.177 0.692383 726.292V389.347C0.692383 379.455 8.72485 371.43 18.6098 371.43V371.422Z" fill="#DDDDD7"/>
<path d="M481.352 609.547H389.215L421.735 577.027H513.865L481.345 609.547H481.352ZM508.45 522.832H416.32L448.84 490.312H540.97L508.45 522.832ZM513.872 566.295L416.32 566.19V533.67H513.872V566.295Z" fill="#234DF0"/>
<path d="M34.1412 417.421V434.605H32.4132V417.421H34.1412ZM37.1434 428.821C37.1434 425.173 39.3754 422.677 42.7594 422.677C45.4474 422.677 47.4154 424.237 47.8714 426.637H46.2154C45.7834 425.029 44.3914 424.141 42.7834 424.141C40.4314 424.141 38.7754 425.941 38.7754 428.797C38.7754 431.557 40.3114 433.405 42.6634 433.405C44.3914 433.405 45.7834 432.445 46.2394 430.957H47.9194C47.3674 433.333 45.3034 434.893 42.6634 434.893C39.3754 434.893 37.1434 432.469 37.1434 428.821ZM49.6122 428.797C49.6122 425.245 52.1082 422.677 55.5162 422.677C58.9242 422.677 61.4202 425.245 61.4202 428.797C61.4202 432.325 58.9242 434.893 55.5162 434.893C52.1082 434.893 49.6122 432.325 49.6122 428.797ZM51.2922 428.773C51.2922 431.509 53.0202 433.405 55.5162 433.405C57.9882 433.405 59.7402 431.509 59.7402 428.773C59.7402 426.085 57.9882 424.165 55.5162 424.165C53.0202 424.165 51.2922 426.085 51.2922 428.773ZM65.7248 434.605H64.0688V422.989H65.5088L65.7488 425.005C66.5168 423.517 68.0528 422.677 69.7328 422.677C72.9248 422.677 74.2448 424.573 74.2448 427.501V434.605H72.5888V427.861C72.5888 425.149 71.3648 424.189 69.4448 424.189C67.0688 424.189 65.7248 425.917 65.7248 428.533V434.605ZM83.2176 431.341H84.8016C84.8016 432.685 85.8096 433.525 87.4416 433.525C89.2416 433.525 90.2976 432.757 90.2976 431.509C90.2976 430.549 89.8176 429.997 88.4496 429.661L86.4576 429.157C84.4416 428.653 83.4576 427.597 83.4576 426.013C83.4576 423.973 85.1616 422.677 87.6576 422.677C90.1056 422.677 91.6896 424.021 91.7616 426.181H90.1536C90.1056 424.837 89.1696 424.045 87.6096 424.045C85.9776 424.045 85.0656 424.741 85.0656 425.989C85.0656 426.877 85.6896 427.501 86.9616 427.813L88.9536 428.317C90.9696 428.821 91.8816 429.757 91.8816 431.437C91.8816 433.525 90.1056 434.893 87.4656 434.893C84.8496 434.893 83.2176 433.501 83.2176 431.341ZM93.1975 439.669V438.301H94.4695C95.4775 438.301 96.4855 438.229 97.0615 436.669L97.5655 435.301L92.8615 422.989H94.6135L98.3575 433.117L102.03 422.989H103.734L98.4055 437.269C97.7335 439.093 96.6055 439.837 94.9495 439.837C94.2535 439.837 93.7255 439.789 93.1975 439.669ZM107.326 434.605H105.67V422.989H107.11L107.302 424.645C107.878 423.421 109.174 422.677 110.806 422.677C112.63 422.677 113.998 423.637 114.55 425.149C115.078 423.637 116.494 422.677 118.366 422.677C120.886 422.677 122.542 424.309 122.542 426.997V434.605H120.934V427.333C120.934 425.341 119.83 424.165 118.054 424.165C116.11 424.165 114.958 425.629 114.958 427.429V434.605H113.326V427.309C113.326 425.341 112.198 424.189 110.446 424.189C108.502 424.189 107.326 425.629 107.326 427.405V434.605ZM127.314 434.605H125.874V417.109H127.53V425.245C128.346 423.541 129.93 422.677 131.898 422.677C135.282 422.677 137.25 425.317 137.25 428.821C137.25 432.301 135.234 434.893 131.85 434.893C129.906 434.893 128.298 434.029 127.482 432.229L127.314 434.605ZM127.554 428.773C127.554 431.461 129.042 433.381 131.586 433.381C134.106 433.381 135.57 431.461 135.57 428.773C135.57 426.109 134.106 424.165 131.586 424.165C129.042 424.165 127.554 426.109 127.554 428.773ZM139.073 428.797C139.073 425.245 141.569 422.677 144.977 422.677C148.385 422.677 150.881 425.245 150.881 428.797C150.881 432.325 148.385 434.893 144.977 434.893C141.569 434.893 139.073 432.325 139.073 428.797ZM140.753 428.773C140.753 431.509 142.481 433.405 144.977 433.405C147.449 433.405 149.201 431.509 149.201 428.773C149.201 426.085 147.449 424.165 144.977 424.165C142.481 424.165 140.753 426.085 140.753 428.773ZM155.258 434.605H153.602V417.109H155.258V434.605Z" fill="black"/>
<defs>
<clipPath id="clip0_3277_4852">
<rect x="0.692383" y="0.0975342" width="981.818" height="372.787" rx="12" fill="white"/>
</clipPath>
</defs>
</svg>