<svg width="48" height="48" viewBox="0 0 48 48" fill="none" xmlns="http://www.w3.org/2000/svg">
<path d="M0 24C0 10.7452 10.7452 0 24 0C37.2548 0 48 10.7452 48 24C48 37.2548 37.2548 48 24 48C10.7452 48 0 37.2548 0 24Z" fill="#0077B5"/>
<path d="M16.9608 36.2197H11.5213V19.8779H16.9608V36.2197ZM30.3133 19.4941C33.8923 19.4942 36.575 21.8303 36.575 26.8496V36.2197H31.1365V27.4766C31.1365 25.2807 30.3494 23.7823 28.3807 23.7822C26.8781 23.7822 25.9827 24.7928 25.5897 25.7686C25.446 26.1182 25.4109 26.6055 25.4109 27.0938V36.2197H19.9715C19.9718 36.1472 20.043 21.4076 19.9715 19.8779H25.4109V22.1934C26.1328 21.0807 27.4256 19.4941 30.3133 19.4941ZM14.2772 12C16.1375 12.0001 17.2837 13.2202 17.3192 14.8223C17.3192 16.3914 16.1375 17.6475 14.241 17.6475H14.2068C12.3809 17.6475 11.2 16.3914 11.2 14.8223C11.2002 13.2202 12.4167 12 14.2772 12Z" fill="white"/>
</svg>