<svg width="48" height="48" viewBox="0 0 48 48" fill="none" xmlns="http://www.w3.org/2000/svg">
<path d="M24 48C37.2548 48 48 37.2548 48 24C48 10.7452 37.2548 0 24 0C10.7452 0 0 10.7452 0 24C0 37.2548 10.7452 48 24 48Z" fill="#25D366"/>
<path d="M24.7906 8.7998C28.6084 8.80145 32.192 10.2878 34.8864 12.9854C37.5806 15.6827 39.0636 19.268 39.0621 23.0811C39.059 30.9478 32.6591 37.3493 24.7906 37.3525H24.7848C22.3965 37.3516 20.0498 36.7521 17.9655 35.6152L10.4 37.5996L12.4244 30.2051C11.1756 28.0408 10.5191 25.5855 10.5201 23.0703C10.5233 15.2019 16.9247 8.79997 24.7906 8.7998ZM24.7955 11.21C18.2528 11.2101 12.9319 16.5314 12.9293 23.0713C12.9285 25.3124 13.5555 27.4954 14.7428 29.3838L15.025 29.832L13.8268 34.209L18.316 33.0312L18.7487 33.2891C20.5698 34.3698 22.6583 34.9416 24.7867 34.9424H24.7906C31.3284 34.9424 36.6503 29.6205 36.653 23.0801C36.6541 19.9108 35.4207 16.9305 33.1813 14.6885C30.9418 12.4466 27.9636 11.2111 24.7955 11.21ZM19.7389 16.4795C19.9763 16.4795 20.214 16.4818 20.4215 16.4922C20.6404 16.5032 20.9348 16.4092 21.2242 17.1045C21.5214 17.8186 22.2347 19.5735 22.3239 19.752C22.413 19.9304 22.472 20.1389 22.3531 20.377C22.2344 20.6146 22.1749 20.7636 21.9967 20.9717C21.8184 21.1798 21.622 21.4369 21.4615 21.5967C21.2831 21.7744 21.0974 21.9674 21.3053 22.3242C21.5133 22.6812 22.2296 23.8484 23.2897 24.7939C24.6517 26.0088 25.8003 26.386 26.1569 26.5645C26.5133 26.743 26.7213 26.7125 26.9293 26.4746C27.1374 26.2365 27.8204 25.4342 28.0582 25.0771C28.2959 24.7203 28.5342 24.7795 28.861 24.8984C29.1885 25.0179 30.941 25.8802 31.2975 26.0586C31.6539 26.2371 31.8919 26.326 31.9811 26.4746C32.0702 26.6233 32.0701 27.3378 31.7731 28.1709C31.4757 29.0038 30.051 29.7639 29.3658 29.8662C28.7515 29.9581 27.9739 29.9961 27.1198 29.7246C26.6019 29.5603 25.938 29.3409 25.0875 28.9736C21.5104 27.429 19.174 23.827 18.9957 23.5889C18.8168 23.35 17.5397 21.655 17.5397 19.9004C17.5397 18.1454 18.4609 17.2828 18.7877 16.9258C19.1145 16.5689 19.5012 16.4795 19.7389 16.4795Z" fill="#FDFDFD"/>
</svg>